<?xml version="1.0" encoding="utf-8"?>
<!-- Generator: Adobe Illustrator 19.2.1, SVG Export Plug-In . SVG Version: 6.00 Build 0)  -->
<svg version="1.1" xmlns="http://www.w3.org/2000/svg" xmlns:xlink="http://www.w3.org/1999/xlink" x="0px" y="0px" width="500px"
	 height="500px" viewBox="0 0 500 500" style="enable-background:new 0 0 500 500;" xml:space="preserve">
<style type="text/css">
	.st0{fill:#008374;}
	.st1{fill:#FFFFFF;}
</style>
<g id="Calque_1">
	<polygon id="shadow" points="411.2,121.7 928,668.8 567.7,668.8 342,670.2 36.3,362.5 107,356 88.7,339.5 177,344.6 
		146.1,263.6 240.6,137.9"/>
</g>
<g id="Mode_Isolation">
	<path class="st1" d="M355.5,241.1c-0.7-10.7-4.5-21.2-11.3-29.9c-6.2-8-14.7-14.3-24.5-18.3c-10.9-4.4-23-5.9-34.8-4.8
		c-11.5,1.1-22.8,4.5-33.1,9.3c-10.3,4.9-19.7,11.3-28.1,18.7c-4.4,3.8-8.6,7.9-12.3,12.2c-3.6,4.2-6.9,8.7-9.8,13.3
		c-2.8,4.5-5.5,9.1-7.8,13.9c-1.9,4-3.9,8.1-4.1,12.5c-0.1,2.4,0.4,4.9,1.9,7c1.4,1.9,3.7,3.2,6.2,3.5c5.2,0.5,10.2-3,13.2-6.6
		c2.2-2.6,3.9-5.7,5.6-8.6c2.9-4.7,6.1-9.3,9.9-13.5c3.8-4.3,8.2-8.2,12.7-11.8c4.4-3.4,9.1-6.4,14.1-8.9
		c10.2-5.1,21.9-8.3,33.6-7.8c11.1,0.5,21.8,4.6,29.5,12.2c3.7,3.7,6.7,8.2,8.5,13c2,5.1,2.7,10.7,2.4,16.1
		c-0.6,10.3-4.9,20.2-11.1,28.7c-6.4,8.8-14.7,16.2-24.2,22.1c-4.9,3.1-10.3,5.6-15.8,7.7c-4.5,1.6-9,3.2-13.6,4.5
		c-8.7,2.5-17.6,4.1-26.6,5.4c-8.9,1.3-17.9,2.1-26.9,2.7c-7.2,0.5-14.4,0.8-21.6,1c-4.1,0.1-8.1,0.1-12.2,0.1c-2.1,0-4.2,0-6.2,0
		h-13.7h-18.1h-18.5H104h-6.9c-1,0-1.9,0.1-2.9,0.3c-2.4,0.5-5.3,1.9-5.5,4.4c-0.2,2.6,2.7,4.2,5.1,4.7c1.7,0.4,3.6,0.4,5.4,0.4h6.4
		h14.8H139h17.6h12c1.4,0,2.8,0,4.2,0c6.4,0,12.9-0.2,19.3-0.4c11.1-0.4,22.2-1.1,33.2-2.2c9.6-0.9,19.1-2,28.5-3.8
		c9.5-1.7,18.9-4.1,27.9-7.2c5-1.7,9.9-3.7,14.7-6c5.1-2.5,9.9-5.4,14.6-8.6c9.2-6.3,17.5-13.5,24.5-21.9
		c6.4-7.6,11.7-16.1,15.3-25.2C354.4,260.3,356.1,250.7,355.5,241.1"/>
	<path class="st1" d="M305.1,271.1c-0.2-5.3-2.2-10.4-6-14.5c-3.5-3.7-8.3-6.2-13.4-7.4c-11.4-2.5-23.4,1.5-32.7,7.5
		c-4.8,3.1-9.2,6.8-12.9,10.9c-1.7,1.9-3.4,3.8-4.8,5.9c-1.1,1.5-2,3.1-2.6,4.9c-0.8,2.3-0.9,5.1,0.6,7.2c1.5,2.1,4.2,2.9,6.9,2.6
		c4.4-0.4,7.8-3,10.8-5.7c1.9-1.7,3.8-3.5,6-5.1c2.2-1.6,4.6-3,7.2-4.1c5-2.1,11.2-3.4,16.4-1c2.2,1,4.1,2.7,5.2,4.8
		c1.1,2.2,1.4,4.8,1,7.2c-0.7,5-3.8,9.5-7.3,13.2c-3.8,3.9-8.5,7-13.4,9.4c-4.9,2.4-10.1,3.8-15.4,5.1c-9.7,2.3-19.6,3.8-29.5,4.9
		c-9.2,1-18.4,1.7-27.6,2.1c-6.5,0.3-13.1,0.5-19.6,0.5c-2.6,0-5.2,0-7.7,0h-16.4h-15.2c-2.1,0-4.3,0-5.9,1.3
		c-1,0.8-1.4,2.1-0.7,3.2c0.7,1.1,2.1,1.6,3.4,1.8c0.7,0.1,1.3,0.1,2,0.1c4.4,0,8.9,0,13.3,0c5.8,0,11.6,0,17.4,0c2,0,4,0,6,0
		c4.3,0.1,8.7,0.1,13.1,0c7.6-0.1,15.2-0.5,22.8-1c9.2-0.6,18.5-1.6,27.6-2.9c9.3-1.4,18.6-3.2,27.6-5.9c5.3-1.6,10.5-3.3,15.3-5.6
		c5.2-2.6,9.9-5.9,14.1-9.7c7.7-7.1,14-16.5,14.6-26.8C305.1,273,305.1,272.1,305.1,271.1"/>
	<path class="st1" d="M444.7,190c-0.8-10.8-3.3-21.4-7.6-31.5c-4-9.6-9.7-18.6-16.6-26.6c-6.4-7.5-14-14.1-22.4-19.6
		c-8.4-5.5-17.6-9.8-27.3-13c-10.9-3.6-22.3-5.6-33.9-6.2c-11.5-0.6-23.1,0.3-34.4,2.3c-11.6,2.1-22.9,5.4-33.7,9.8
		c-10.4,4.1-20.3,9.2-29.7,15c-9.7,6-18.9,12.8-27.4,20.3c-4.3,3.8-8.5,7.6-12.5,11.6c-4,4-8,8.1-11.5,12.5
		c-6.7,8.3-12.7,17.2-18,26.4c-5,8.6-9.5,17.6-13.5,26.7c-3.6,8.3-7,16.8-9.7,25.4c-1.4,4.4-3.1,8.9-2.8,13.6c0.2,2.4,0.8,5,2.3,7
		c1.5,1.9,3.7,3.3,6.3,3.5c5.8,0.4,10.4-4.3,13-8.5c0.9-1.6,1.6-3.2,2.3-4.9c1.1-2.3,2-4.7,3-7.1c4.2-9.9,9-19.5,14.7-28.7
		c5.8-9.4,12.7-18.2,20.7-26.1c8.1-8,16.9-15.5,26.6-21.9c9.2-6.1,19.2-11.3,29.7-15.3c10.8-4.1,22.1-6.9,33.7-8.1
		c11.8-1.1,23.9-0.4,35.4,2.5c10.7,2.7,20.9,7.2,29.7,13.5c8.6,6.1,15.9,13.8,21.3,22.5c5.8,9.3,9.4,19.6,10.7,30.3
		c1.4,11,0.4,22.2-2.5,32.9c-2.7,9.8-6.9,19.1-12.3,27.9c-5.4,8.7-11.8,16.8-19.1,24.2c-7.8,8-16.6,15-26,21.4
		c-4.9,3.3-9.9,6.4-15.2,9.1c-5.2,2.7-10.5,5-15.9,7.1c-10.3,4-21,7.1-31.9,9.4c-8.9,1.8-17.8,3.2-26.8,4.3
		c-5.8,0.7-11.6,1.3-17.4,1.8c-11.6,0.9-23.3,1.6-34.9,2c-9.3,0.4-18.6,0.6-27.9,0.8c-5.2,0.1-10.3,0.1-15.5,0.1h-4.6H131h-16.5
		H95.8H77.4H61.8H51.3c-2.5,0-5-0.1-7.5,0.2c-2.4,0.3-5,1.2-6.5,2.9c-0.8,0.9-1.2,2.2-1,3.4c0.2,1.2,1,2.3,2.1,3
		c3,2.2,6.9,2.1,10.4,2.1h5.8h10.6h15.7h18.5H118h16.4H146c1.5,0,3,0,4.4,0c8.2,0,16.3-0.1,24.4-0.2c4.6-0.1,9.2-0.2,13.9-0.4
		c7.5-0.3,14.9-0.6,22.4-1c8.7-0.5,17.4-1,26-1.8c8.5-0.8,17.1-1.9,25.5-3.2c9.9-1.6,19.7-3.5,29.4-5.9c10.6-2.6,21-5.8,31.1-9.6
		c5.3-2,10.5-4.1,15.6-6.4c5.2-2.4,10.4-4.9,15.2-7.7c10.1-6,19.8-12.6,28.9-19.9c8.4-6.7,16.1-14.1,23.2-21.9
		c6.9-7.7,13.1-15.9,18.4-24.5c5.2-8.4,9.6-17.2,12.9-26.3c3.9-10.6,6.4-21.7,7.2-33C445.1,200.4,445.1,195.2,444.7,190"/>
</g>
</svg>
