<?xml version="1.0" encoding="utf-8"?>
<!-- Generator: Adobe Illustrator 19.2.1, SVG Export Plug-In . SVG Version: 6.00 Build 0)  -->
<svg version="1.1" id="Calque_1" xmlns="http://www.w3.org/2000/svg" xmlns:xlink="http://www.w3.org/1999/xlink" x="0px" y="0px"
	 width="200px" height="200px" viewBox="0 0 200 200" style="enable-background:new 0 0 200 200;" xml:space="preserve">
<style type="text/css">
	.st0{fill:#FFDEB8;stroke:#000000;stroke-width:0.3881;stroke-opacity:0;}
	.st1{fill:none;stroke:#000000;stroke-width:1.9407;}
	.st2{fill:#475FC4;stroke:#000000;stroke-width:0.3881;stroke-opacity:0;}
	.st3{fill:#FFDEB8;}
	.st4{fill:#622C9B;stroke:#000000;stroke-width:0.3881;stroke-opacity:0;}
</style>
<g id="container">
	<g id="container_1" transform="matrix(1.2700,0.0000,0.0000,1.2700,960.0000,500.10)">
		<g id="body" transform="matrix(0.9996,-0.0265,0.0265,0.9996,0.0000,0.00)">
			<g id="head" transform="matrix(0.9998,0.0199,-0.0199,0.9998,0.0000,0.00)">
				<g id="backhairs_container" transform="matrix(0.6450,0.0000,0.0000,0.6450,-258.0000,-360.00)">
					<g id="container_2">
						<g id="container_3">
						</g>
					</g>
				</g>
				<path id="ghead" class="st0" d="M-724.7-343.9c0-27.7,22.4-50.1,50.1-50.1l0,0c27.7,0,50.1,22.4,50.1,50.1l0,0
					c0,21.9-17.7,39.6-39.6,39.6h-21C-706.9-304.3-724.7-322-724.7-343.9z"/>
				<path id="neck" class="st0" d="M-678.5-305.4L-678.5-305.4h7.8l0,0v1.2c0,1.5-1.2,2.7-2.7,2.7h-2.3c-1.5,0-2.7-1.2-2.7-2.7
					V-305.4z"/>
				<g id="faces_container" transform="matrix(0.5775,0.0000,0.0000,0.5775,-231.0000,-346.50)">
					<g id="container_4">
						<g id="container_5">
							<path id="shape" d="M-750.4,9.4C-752.1,6.5-753,3.1-753-1c0-4,0.9-7.5,2.6-10.4c1.7-2.8,3.8-4.3,6.2-4.3
								c2.4,0,4.5,1.4,6.2,4.3c1.7,2.9,2.5,6.4,2.5,10.4c0,4.1-0.8,7.5-2.5,10.4c-1.7,2.9-3.8,4.3-6.2,4.3
								C-746.6,13.7-748.7,12.3-750.4,9.4z M-800.4,9.4c-1.7-2.9-2.5-6.3-2.5-10.4c0-4,0.8-7.5,2.5-10.4c1.7-2.8,3.8-4.3,6.2-4.3
								c2.4,0,4.4,1.4,6.1,4.3c1.7,2.9,2.6,6.4,2.6,10.4c0,4.1-0.9,7.5-2.6,10.4c-1.7,2.9-3.8,4.3-6.1,4.3
								C-796.6,13.7-798.7,12.3-800.4,9.4z"/>
						</g>
						<g id="container_6" transform="matrix(1.0000,0.0000,0.0000,1.0000,396.9000,345.10)">
						</g>
						<g id="container_7" transform="matrix(1.0000,0.0000,0.0000,1.0000,0.0000,-16.00)">
							<path id="shape_1" class="st1" d="M-801.8,53.8h65.9"/>
						</g>
						<g id="container_9" transform="matrix(1.0000,0.0000,0.0000,1.0000,0.0000,-20.00)">
							<path id="shape_4" d="M-764.7,36.5c-0.6-0.6-0.9-1.2-0.9-2c0-0.8,0.3-1.4,0.9-2c0.5-0.6,1.2-0.8,2.1-0.8c0.8,0,1.4,0.2,2,0.8
								c0.6,0.6,0.9,1.2,0.9,2c0,0.8-0.3,1.4-0.9,2c-0.5,0.5-1.2,0.8-2,0.8C-763.4,37.3-764.1,37.1-764.7,36.5z M-777,36.5
								c-0.6-0.6-0.8-1.2-0.8-2c0-0.8,0.2-1.4,0.8-2c0.6-0.6,1.2-0.8,2-0.8c0.8,0,1.5,0.2,2.1,0.8c0.5,0.6,0.8,1.2,0.8,2
								c0,0.8-0.3,1.4-0.8,2c-0.6,0.5-1.3,0.8-2.1,0.8C-775.8,37.3-776.4,37.1-777,36.5z"/>
						</g>
						<g id="container_10">
						</g>
					</g>
				</g>
				<g id="hairs_container" transform="matrix(0.6450,0.0000,0.0000,0.6450,-258.0000,-360.00)">
					<g id="container_11">
						<g id="container_12">
						</g>
						<g id="container_13">
						</g>
					</g>
				</g>
			</g>
			<g id="legLeft" transform="matrix(0.7611,0.6487,-0.6487,0.7611,-34.5000,80.00)">
				<g id="flegLeft" transform="matrix(0.9995,-0.0307,0.0307,0.9995,0.0071,30.46)">
					<path id="fleg_left" class="st2" d="M-728,93.9L-728,93.9c3.2,0,5.8,2.6,5.8,5.8v11.6c0,3.2-2.6,5.8-5.8,5.8l0,0
						c-3.2,0-5.8-2.6-5.8-5.8V99.8C-733.8,96.5-731.2,93.9-728,93.9z"/>
					<g id="shoes_01" transform="matrix(-1.0000,0.0000,0.0000,1.0000,15.0000,45.00)">
						<g id="container_19" transform="matrix(0.6000,0.0000,0.0000,0.6000,0.0000,0.00)">
							<g id="container_20">
								<g id="container_21" transform="matrix(1.0000,0.0000,0.0000,1.0000,0.1000,-3.00)">
									<path id="shape_7" class="st3" d="M1228.7,127.6v-11.9h19.3v6.5c5.1,0.3,7.6,2.1,7.7,5.4H1228.7z"/>
								</g>
							</g>
						</g>
					</g>
				</g>
				<path id="leg_left" class="st2" d="M-724.6,135.1L-724.6,135.1c3.2,0,5.8,2.6,5.8,5.8v11.6c0,3.2-2.6,5.8-5.8,5.8l0,0
					c-3.2,0-5.8-2.6-5.8-5.8v-11.6C-730.4,137.7-727.8,135.1-724.6,135.1z"/>
			</g>
			<g id="legRight" transform="matrix(0.7413,-0.6712,0.6712,0.7413,34.5000,80.00)">
				<g id="flegRight" transform="matrix(0.9999,0.0168,-0.0168,0.9999,-0.0021,30.25)">
					<path id="fleg_right" class="st2" d="M-283.5-754.3L-283.5-754.3c3.2,0,5.8,2.6,5.8,5.8v11.6c0,3.2-2.6,5.8-5.8,5.8l0,0
						c-3.2,0-5.8-2.6-5.8-5.8v-11.6C-289.3-751.7-286.7-754.3-283.5-754.3z"/>
					<g id="shoes_02" transform="matrix(1.0000,0.0000,0.0000,1.0000,-15.0000,45.00)">
						<g id="container_22" transform="matrix(0.6000,0.0000,0.0000,0.6000,0.0000,0.00)">
							<g id="container_23">
								<g id="container_24" transform="matrix(1.0000,0.0000,0.0000,1.0000,0.1000,-3.00)">
									<path id="shape_8" class="st3" d="M-457.2-1286.1v-11.9h19.3v6.5c5.1,0.3,7.6,2.1,7.7,5.4H-457.2z"/>
								</g>
							</g>
						</g>
					</g>
				</g>
				<path id="leg_right" class="st2" d="M-270.9-740.4L-270.9-740.4c3.2,0,5.8,2.6,5.8,5.8v11.6c0,3.2-2.6,5.8-5.8,5.8l0,0
					c-3.2,0-5.8-2.6-5.8-5.8v-11.6C-276.7-737.7-274.1-740.4-270.9-740.4z"/>
			</g>
			<path id="gbody" class="st4" d="M-681.8-304.3c0-7.4,6-13.4,13.4-13.4l0,0c7.4,0,13.4,6,13.4,13.4v17.7l0,0h-26.8l0,0V-304.3z"/>
			
				<rect id="shape_9" x="-681.8" y="-287" transform="matrix(-0.2701 -0.9628 0.9628 -0.2701 -578.2617 -1000.6684)" class="st2" width="26.8" height="11.6"/>
			<g id="tops_container" transform="matrix(0.1725,0.0000,0.0000,0.1725,0.0000,0.00)">
				<g id="container_25">
					<g id="container_26" transform="matrix(1.0000,0.0000,0.0000,1.0000,-2.0000,0.00)">
						<g id="container_27">
							<path id="shape_10" class="st3" d="M-3889.7-1826.4c-4.1-4.1-6.3-9-6.4-14.9h43.4c-0.1,5.8-2.2,10.8-6.4,14.9
								c-4.2,4.3-9.3,6.4-15.3,6.4C-3880.3-1820-3885.4-1822.2-3889.7-1826.4z"/>
						</g>
					</g>
				</g>
			</g>
			<g id="armRight" transform="matrix(0.0213,-0.9998,0.9998,0.0213,34.5000,20.00)">
				<g id="farmRight" transform="matrix(0.9998,-0.0192,0.0192,0.9998,0.0000,35.00)">
					<path id="farm_right" class="st4" d="M328.8-717.4L328.8-717.4c3.2,0,5.8,2.6,5.8,5.8v13.6c0,3.2-2.6,5.8-5.8,5.8l0,0
						c-3.2,0-5.8-2.6-5.8-5.8v-13.6C323-714.8,325.6-717.4,328.8-717.4z"/>
					<g id="hands_02" transform="matrix(1.0000,0.0000,0.0000,1.0000,0.0000,50.00)">
						<g id="container_28" transform="matrix(0.6000,0.0000,0.0000,0.6000,0.0000,0.00)">
							<g id="container_29" transform="matrix(1.0000,0.0000,0.0000,1.0000,-0.1000,-0.80)">
								<g id="container_30">
									<path id="shape_11" class="st3" d="M541.3-1229.7c-1.9-1.9-2.8-4.2-2.8-6.8v0v-9.5h19.4v9.5v0c0,2.6-1,4.9-2.8,6.8
										c-1.9,1.9-4.2,2.8-6.9,2.8C545.5-1226.9,543.2-1227.8,541.3-1229.7z"/>
								</g>
							</g>
						</g>
					</g>
				</g>
				<path id="arm_right" class="st4" d="M315.1-702.2L315.1-702.2c3.2,0,5.8,2.6,5.8,5.8v13.6c0,3.2-2.6,5.8-5.8,5.8l0,0
					c-3.2,0-5.8-2.6-5.8-5.8v-13.6C309.3-699.6,311.9-702.2,315.1-702.2z"/>
			</g>
			<g id="armLeft" transform="matrix(0.0042,1.0000,-1.0000,0.0042,-34.5000,20.00)">
				<g id="farmLeft" transform="matrix(0.9988,0.0492,-0.0492,0.9988,0.0000,35.00)">
					<path id="farm_left" class="st4" d="M-301.5,634.3L-301.5,634.3c3.2,0,5.8,2.6,5.8,5.8v13.6c0,3.2-2.6,5.8-5.8,5.8l0,0
						c-3.2,0-5.8-2.6-5.8-5.8v-13.6C-307.3,636.9-304.7,634.3-301.5,634.3z"/>
					<g id="hands_01" transform="matrix(-1.0000,0.0000,0.0000,1.0000,0.0000,50.00)">
						<g id="container_31" transform="matrix(0.6000,0.0000,0.0000,0.6000,0.0000,0.00)">
							<g id="container_32" transform="matrix(1.0000,0.0000,0.0000,1.0000,-0.1000,-0.80)">
								<g id="container_33">
									<path id="shape_12" class="st3" d="M495.7,1023.1c-1.9-1.9-2.8-4.2-2.8-6.8v0v-9.5h19.4v9.5v0c0,2.6-1,4.9-2.8,6.8
										c-1.9,1.9-4.2,2.8-6.9,2.8C499.9,1026,497.6,1025,495.7,1023.1z"/>
								</g>
							</g>
						</g>
					</g>
				</g>
				<path id="arm_left" class="st4" d="M-332.6,640.1L-332.6,640.1c3.2,0,5.8,2.6,5.8,5.8v13.6c0,3.2-2.6,5.8-5.8,5.8l0,0
					c-3.2,0-5.8-2.6-5.8-5.8v-13.6C-338.4,642.7-335.8,640.1-332.6,640.1z"/>
			</g>
		</g>
	</g>
</g>
</svg>
