<?xml version="1.0" encoding="utf-8"?>
<!-- Generator: Adobe Illustrator 19.2.1, SVG Export Plug-In . SVG Version: 6.00 Build 0)  -->
<svg version="1.1" id="Calque_1" xmlns="http://www.w3.org/2000/svg" xmlns:xlink="http://www.w3.org/1999/xlink" x="0px" y="0px"
	 width="200px" height="200px" viewBox="0 0 200 200" style="enable-background:new 0 0 200 200;" xml:space="preserve">
<style type="text/css">
	.st0{fill:#FFDEB8;stroke:#000000;stroke-width:0.39;stroke-opacity:0;}
	.st1{fill:none;stroke:#000000;stroke-width:1.95;}
	.st2{fill:#475FC4;stroke:#000000;stroke-width:0.39;stroke-opacity:0;}
	.st3{fill:#FFDEB8;}
	.st4{fill:#622C9B;stroke:#000000;stroke-width:0.39;stroke-opacity:0;}
</style>
<g id="container">
	<g id="container_1" transform="matrix(1.2700,0.0000,0.0000,1.2700,960.0000,500.10)">
		<g id="body" transform="matrix(0.9868,0.1619,-0.1619,0.9868,0.0000,0.00)">
			<g id="head" transform="matrix(0.9944,0.1052,-0.1052,0.9944,0.0000,0.00)">
				<g id="backhairs_container" transform="matrix(0.6450,0.0000,0.0000,0.6450,-258.0000,-360.00)">
					<g id="container_2">
						<g id="container_3">
						</g>
					</g>
				</g>
				<path id="ghead" class="st0" d="M-791.4-148.6c0-27.8,22.5-50.3,50.3-50.3l0,0c27.8,0,50.3,22.5,50.3,50.3l0,0
					c0,22-17.8,39.8-39.8,39.8h-21.1C-773.6-108.8-791.4-126.6-791.4-148.6z"/>
				<path id="neck" class="st0" d="M-745-110L-745-110h7.8l0,0v1.2c0,1.5-1.2,2.7-2.7,2.7h-2.3c-1.5,0-2.7-1.2-2.7-2.7V-110z"/>
				<g id="faces_container" transform="matrix(0.5775,0.0000,0.0000,0.5775,-231.0000,-346.50)">
					<g id="container_4">
						<g id="container_5">
							<path id="shape" d="M-865.5,347.6c-1.7-2.9-2.6-6.4-2.6-10.5c0-4.1,0.9-7.5,2.6-10.5c1.7-2.9,3.8-4.3,6.2-4.3
								c2.4,0,4.5,1.4,6.2,4.3c1.7,2.9,2.6,6.4,2.5,10.5c0,4.1-0.8,7.6-2.5,10.5c-1.7,2.9-3.8,4.4-6.2,4.3
								C-861.7,352-863.8,350.5-865.5,347.6z M-915.7,347.6c-1.7-2.9-2.5-6.4-2.5-10.5c0-4.1,0.8-7.5,2.5-10.5
								c1.7-2.9,3.8-4.3,6.2-4.3c2.4,0,4.4,1.4,6.2,4.3c1.7,2.9,2.6,6.4,2.6,10.5c0,4.1-0.9,7.6-2.6,10.5c-1.7,2.9-3.8,4.4-6.2,4.3
								C-911.9,352-914,350.5-915.7,347.6z"/>
						</g>
						<g id="container_6" transform="matrix(1.0000,0.0000,0.0000,1.0000,396.9000,345.10)">
						</g>
						<g id="container_7" transform="matrix(1.0000,0.0000,0.0000,1.0000,0.0000,-16.00)">
							<path id="shape_1" class="st1" d="M-917.2,392.2h66.3"/>
						</g>
						<g id="container_9" transform="matrix(1.0000,0.0000,0.0000,1.0000,0.0000,-20.00)">
							<path id="shape_4" d="M-879.9,374.8c-0.6-0.6-0.9-1.2-0.9-2c0-0.8,0.3-1.4,0.9-2c0.5-0.6,1.2-0.8,2.1-0.8
								c0.8,0,1.4,0.2,2,0.8c0.6,0.6,0.9,1.2,0.9,2c0,0.8-0.3,1.5-0.9,2c-0.5,0.5-1.2,0.8-2,0.8
								C-878.6,375.6-879.3,375.3-879.9,374.8z M-892.3,374.8c-0.6-0.6-0.8-1.2-0.8-2c0-0.8,0.2-1.4,0.8-2s1.2-0.8,2-0.8
								c0.8,0,1.5,0.2,2.1,0.8c0.5,0.6,0.8,1.2,0.8,2c0,0.8-0.3,1.5-0.8,2c-0.6,0.5-1.3,0.8-2.1,0.8
								C-891,375.6-891.7,375.3-892.3,374.8z"/>
						</g>
						<g id="container_10">
						</g>
					</g>
				</g>
				<g id="hairs_container" transform="matrix(0.6450,0.0000,0.0000,0.6450,-258.0000,-360.00)">
					<g id="container_11">
						<g id="container_12">
						</g>
						<g id="container_13">
						</g>
					</g>
				</g>
			</g>
			<g id="legLeft" transform="matrix(0.9841,0.1778,-0.1778,0.9841,-34.5000,80.00)">
				<g id="flegLeft" transform="matrix(0.9221,-0.3869,0.3869,0.9221,1.1680,35.80)">
					<path id="fleg_left" class="st2" d="M-623.1-408.3L-623.1-408.3c3.2,0,5.9,2.6,5.9,5.9v11.7c0,3.2-2.6,5.9-5.9,5.9l0,0
						c-3.2,0-5.9-2.6-5.9-5.9v-11.7C-629-405.7-626.4-408.3-623.1-408.3z"/>
					<g id="shoes_01" transform="matrix(-1.0000,0.0000,0.0000,1.0000,15.0000,45.00)">
						<g id="container_19" transform="matrix(0.6000,0.0000,0.0000,0.6000,0.0000,0.00)">
							<g id="container_20">
								<g id="container_21" transform="matrix(1.0000,0.0000,0.0000,1.0000,0.1000,-3.00)">
									<path id="shape_7" class="st3" d="M1053.8-709.4v-11.9h19.3v6.5c5.1,0.3,7.7,2.1,7.8,5.4H1053.8z"/>
								</g>
							</g>
						</g>
					</g>
				</g>
				<path id="leg_left" class="st2" d="M-729.2-111.8L-729.2-111.8c3.2,0,5.9,2.6,5.9,5.9v11.7c0,3.2-2.6,5.9-5.9,5.9l0,0
					c-3.2,0-5.9-2.6-5.9-5.9v-11.7C-735-109.2-732.4-111.8-729.2-111.8z"/>
			</g>
			<g id="legRight" transform="matrix(0.2890,-0.9573,0.9573,0.2890,34.5000,80.00)">
				<g id="flegRight" transform="matrix(0.9879,0.1551,-0.1551,0.9879,-0.1814,32.33)">
					<path id="fleg_right" class="st2" d="M-121.1-799.9L-121.1-799.9c3.2,0,5.9,2.6,5.9,5.9v11.7c0,3.2-2.6,5.9-5.9,5.9l0,0
						c-3.2,0-5.9-2.6-5.9-5.9v-11.7C-127-797.3-124.4-799.9-121.1-799.9z"/>
					<g id="shoes_02" transform="matrix(1.0000,0.0000,0.0000,1.0000,-15.0000,45.00)">
						<g id="container_22" transform="matrix(0.6000,0.0000,0.0000,0.6000,0.0000,0.00)">
							<g id="container_23">
								<g id="container_24" transform="matrix(1.0000,0.0000,0.0000,1.0000,0.1000,-3.00)">
									<path id="shape_8" class="st3" d="M-186.6-1362v-11.9h19.3v6.5c5.1,0.3,7.7,2.1,7.8,5.4H-186.6z"/>
								</g>
							</g>
						</g>
					</g>
				</g>
				<path id="leg_right" class="st2" d="M3.3-788.5L3.3-788.5c3.2,0,5.9,2.6,5.9,5.9v11.7c0,3.2-2.6,5.9-5.9,5.9l0,0
					c-3.2,0-5.9-2.6-5.9-5.9v-11.7C-2.6-785.9,0.1-788.5,3.3-788.5z"/>
			</g>
			<path id="gbody" class="st4" d="M-739-172.7c0-7.4,6-13.5,13.5-13.5l0,0c7.4,0,13.5,6,13.5,13.5v17.7l0,0H-739l0,0V-172.7z"/>
			
				<rect id="shape_9" x="-731.4" y="-162.9" transform="matrix(0.1116 0.9938 -0.9938 0.1116 -793.1049 588.1985)" class="st2" width="11.7" height="26.9"/>
			<g id="tops_container" transform="matrix(0.1725,0.0000,0.0000,0.1725,0.0000,0.00)">
				<g id="container_25">
					<g id="container_26" transform="matrix(1.0000,0.0000,0.0000,1.0000,-2.0000,0.00)">
						<g id="container_27">
							<path id="shape_10" class="st3" d="M-4220.9-1064c-4.2-4.1-6.3-9.1-6.4-14.9h43.6c-0.1,5.8-2.2,10.8-6.4,14.9
								c-4.2,4.3-9.4,6.4-15.4,6.4C-4211.5-1057.6-4216.6-1059.7-4220.9-1064z"/>
						</g>
					</g>
				</g>
			</g>
			<g id="armRight" transform="matrix(0.0216,-0.9998,0.9998,0.0216,34.5000,20.00)">
				<g id="farmRight" transform="matrix(0.9881,-0.1537,0.1537,0.9881,0.0000,35.00)">
					<path id="farm_right" class="st4" d="M298.7-740.7L298.7-740.7c3.2,0,5.9,2.6,5.9,5.9v13.7c0,3.2-2.6,5.9-5.9,5.9l0,0
						c-3.2,0-5.9-2.6-5.9-5.9v-13.7C292.8-738.1,295.4-740.7,298.7-740.7z"/>
					<g id="hands_02" transform="matrix(1.0000,0.0000,0.0000,1.0000,0.0000,50.00)">
						<g id="container_28" transform="matrix(0.6000,0.0000,0.0000,0.6000,0.0000,0.00)">
							<g id="container_29" transform="matrix(1.0000,0.0000,0.0000,1.0000,-0.1000,-0.80)">
								<g id="container_30">
									<path id="shape_11" class="st3" d="M491-1268.2c-1.9-1.9-2.8-4.2-2.8-6.8v0v-9.5h19.5v9.5v0c0,2.7-1,4.9-2.8,6.8
										c-1.9,1.9-4.2,2.8-6.9,2.8C495.2-1265.4,492.9-1266.3,491-1268.2z"/>
								</g>
							</g>
						</g>
					</g>
				</g>
				<path id="arm_right" class="st4" d="M182.2-756.5L182.2-756.5c3.2,0,5.9,2.6,5.9,5.9v13.7c0,3.2-2.6,5.9-5.9,5.9l0,0
					c-3.2,0-5.9-2.6-5.9-5.9v-13.7C176.3-753.9,178.9-756.5,182.2-756.5z"/>
			</g>
			<g id="armLeft" transform="matrix(-0.3322,0.9432,-0.9432,-0.3322,-34.5000,20.00)">
				<g id="farmLeft" transform="matrix(0.9562,0.2927,-0.2927,0.9562,0.0000,35.00)">
					<path id="farm_left" class="st4" d="M252.4,658.4L252.4,658.4c3.2,0,5.9,2.6,5.9,5.9v13.7c0,3.2-2.6,5.8-5.9,5.8l0,0
						c-3.2,0-5.9-2.6-5.9-5.8v-13.7C246.6,661,249.2,658.4,252.4,658.4z"/>
					<g id="hands_01" transform="matrix(-1.0000,0.0000,0.0000,1.0000,0.0000,50.00)">
						<g id="container_31" transform="matrix(0.6000,0.0000,0.0000,0.6000,0.0000,0.00)">
							<g id="container_32" transform="matrix(1.0000,0.0000,0.0000,1.0000,-0.1000,-0.80)">
								<g id="container_33">
									<path id="shape_12" class="st3" d="M-427.5,1063.6c-1.9-1.9-2.8-4.2-2.8-6.8v0v-9.5h19.5v9.5v0c0,2.7-1,4.9-2.8,6.8
										c-1.9,1.9-4.2,2.8-6.9,2.8C-423.3,1066.4-425.6,1065.5-427.5,1063.6z"/>
								</g>
							</g>
						</g>
					</g>
				</g>
				<path id="arm_left" class="st4" d="M47,724.5L47,724.5c3.2,0,5.9,2.6,5.9,5.9V744c0,3.2-2.6,5.9-5.9,5.9l0,0
					c-3.2,0-5.9-2.6-5.9-5.9v-13.7C41.1,727.1,43.7,724.5,47,724.5z"/>
			</g>
		</g>
	</g>
</g>
</svg>
