<?xml version="1.0" encoding="utf-8"?>
<!-- Generator: Adobe Illustrator 19.2.1, SVG Export Plug-In . SVG Version: 6.00 Build 0)  -->
<svg version="1.1" id="Calque_1" xmlns="http://www.w3.org/2000/svg" xmlns:xlink="http://www.w3.org/1999/xlink" x="0px" y="0px"
	 width="200px" height="200px" viewBox="0 0 200 200" style="enable-background:new 0 0 200 200;" xml:space="preserve">
<style type="text/css">
	.st0{fill:#FFDEB8;stroke:#000000;stroke-width:0.3755;stroke-opacity:0;}
	.st1{fill:none;stroke:#000000;stroke-width:1.8776;}
	.st2{fill:#475FC4;stroke:#000000;stroke-width:0.3755;stroke-opacity:0;}
	.st3{fill:#FFDEB8;}
	.st4{fill:#622C9B;stroke:#000000;stroke-width:0.3755;stroke-opacity:0;}
</style>
<g id="container">
	<g id="container_1" transform="matrix(1.2700,0.0000,0.0000,1.2700,960.0000,500.10)">
		<g id="body" transform="matrix(0.9892,0.1468,-0.1468,0.9892,0.0000,0.00)">
			<g id="head" transform="matrix(0.9846,0.1747,-0.1747,0.9846,0.0000,0.00)">
				<g id="backhairs_container" transform="matrix(0.6450,0.0000,0.0000,0.6450,-258.0000,-360.00)">
					<g id="container_2">
						<g id="container_3">
						</g>
					</g>
				</g>
				<path id="ghead" class="st0" d="M-792.2-109.4c0-26.8,21.7-48.4,48.4-48.4l0,0c26.8,0,48.4,21.7,48.4,48.4l0,0
					c0,21.2-17.1,38.3-38.3,38.3h-20.3C-775.1-71.1-792.2-88.3-792.2-109.4z"/>
				<path id="neck" class="st0" d="M-747.5-72.2L-747.5-72.2h7.5l0,0v1.1c0,1.5-1.2,2.6-2.6,2.6h-2.3c-1.5,0-2.6-1.2-2.6-2.6V-72.2z
					"/>
				<g id="faces_container" transform="matrix(0.5775,0.0000,0.0000,0.5775,-231.0000,-346.50)">
					<g id="container_4">
						<g id="container_5">
							<path id="shape" d="M-870.7,415.2c-1.7-2.8-2.5-6.1-2.5-10.1c0-3.9,0.8-7.3,2.5-10.1c1.7-2.8,3.6-4.1,6-4.1
								c2.4,0,4.4,1.4,6,4.1c1.7,2.8,2.5,6.2,2.4,10.1c0,3.9-0.8,7.3-2.4,10.1c-1.7,2.8-3.7,4.2-6,4.2
								C-867.1,419.4-869.1,418-870.7,415.2z M-919.1,415.2c-1.6-2.8-2.4-6.1-2.4-10.1c0-3.9,0.8-7.3,2.4-10.1
								c1.7-2.8,3.7-4.1,6-4.1c2.3,0,4.3,1.4,5.9,4.1c1.7,2.8,2.5,6.2,2.5,10.1c0,3.9-0.8,7.3-2.5,10.1c-1.7,2.8-3.6,4.2-5.9,4.2
								C-915.5,419.4-917.5,418-919.1,415.2z"/>
						</g>
						<g id="container_6" transform="matrix(1.0000,0.0000,0.0000,1.0000,396.9000,345.10)">
						</g>
						<g id="container_7" transform="matrix(1.0000,0.0000,0.0000,1.0000,0.0000,-16.00)">
							<path id="shape_1" class="st1" d="M-920.5,458.7h63.8"/>
						</g>
						<g id="container_9" transform="matrix(1.0000,0.0000,0.0000,1.0000,0.0000,-20.00)">
							<path id="shape_4" d="M-884.6,442.1c-0.6-0.6-0.8-1.2-0.8-2c0-0.7,0.3-1.4,0.8-1.9c0.5-0.6,1.2-0.8,2-0.8
								c0.8,0,1.4,0.2,1.9,0.8c0.6,0.6,0.9,1.2,0.9,1.9c0,0.8-0.3,1.4-0.9,2c-0.5,0.5-1.2,0.8-1.9,0.8
								C-883.4,442.9-884,442.6-884.6,442.1z M-896.5,442.1c-0.6-0.6-0.8-1.2-0.8-2c0-0.7,0.2-1.4,0.8-1.9c0.6-0.6,1.2-0.8,2-0.8
								c0.8,0,1.4,0.2,2,0.8c0.5,0.6,0.8,1.2,0.8,1.9c0,0.8-0.3,1.4-0.8,2c-0.6,0.5-1.2,0.8-2,0.8
								C-895.3,442.9-896,442.6-896.5,442.1z"/>
						</g>
						<g id="container_10">
						</g>
					</g>
				</g>
				<g id="hairs_container" transform="matrix(0.6450,0.0000,0.0000,0.6450,-258.0000,-360.00)">
					<g id="container_11">
						<g id="container_12">
						</g>
						<g id="container_13">
						</g>
					</g>
				</g>
			</g>
			<g id="legLeft" transform="matrix(0.7611,0.6487,-0.6487,0.7611,-34.5000,80.00)">
				<g id="flegLeft" transform="matrix(0.0711,-0.9975,0.9975,0.0711,13.9328,44.96)">
					<path id="fleg_left" class="st2" d="M-278.4-689.4L-278.4-689.4c3.1,0,5.6,2.5,5.6,5.6v11.3c0,3.1-2.5,5.6-5.6,5.6l0,0
						c-3.1,0-5.6-2.5-5.6-5.6v-11.3C-284-686.9-281.5-689.4-278.4-689.4z"/>
					<g id="shoes_01" transform="matrix(-1.0000,0.0000,0.0000,1.0000,15.0000,45.00)">
						<g id="container_19" transform="matrix(0.6000,0.0000,0.0000,0.6000,0.0000,0.00)">
							<g id="container_20">
								<g id="container_21" transform="matrix(1.0000,0.0000,0.0000,1.0000,0.1000,-3.00)">
									<path id="shape_7" class="st3" d="M479.6-1179.4v-11.5h18.6v6.3c4.9,0.3,7.4,2.1,7.5,5.2H479.6z"/>
								</g>
							</g>
						</g>
					</g>
				</g>
				<path id="leg_left" class="st2" d="M-687.9,257.1L-687.9,257.1c3.1,0,5.6,2.5,5.6,5.6V274c0,3.1-2.5,5.6-5.6,5.6l0,0
					c-3.1,0-5.6-2.5-5.6-5.6v-11.3C-693.6,259.7-691.1,257.1-687.9,257.1z"/>
			</g>
			<g id="legRight" transform="matrix(0.7413,-0.6712,0.6712,0.7413,34.5000,80.00)">
				<g id="flegRight" transform="matrix(0.0000,1.0000,-1.0000,0.0000,-15.0000,45.00)">
					<path id="fleg_right" class="st2" d="M-716.6,366.9L-716.6,366.9c3.1,0,5.6,2.5,5.6,5.6v11.3c0,3.1-2.5,5.6-5.6,5.6l0,0
						c-3.1,0-5.6-2.5-5.6-5.6v-11.3C-722.3,369.4-719.7,366.9-716.6,366.9z"/>
					<g id="shoes_02" transform="matrix(1.0000,0.0000,0.0000,1.0000,-15.0000,45.00)">
						<g id="container_22" transform="matrix(0.6000,0.0000,0.0000,0.6000,0.0000,0.00)">
							<g id="container_23">
								<g id="container_24" transform="matrix(1.0000,0.0000,0.0000,1.0000,0.1000,-3.00)">
									<path id="shape_8" class="st3" d="M-1178.8,581v-11.5h18.6v6.3c4.9,0.3,7.4,2.1,7.5,5.2H-1178.8z"/>
								</g>
							</g>
						</g>
					</g>
				</g>
				<path id="leg_right" class="st2" d="M-387.5-688.5L-387.5-688.5c3.1,0,5.6,2.5,5.6,5.6v11.3c0,3.1-2.5,5.6-5.6,5.6l0,0
					c-3.1,0-5.6-2.5-5.6-5.6v-11.3C-393.1-686-390.6-688.5-387.5-688.5z"/>
			</g>
			<path id="gbody" class="st4" d="M-732.8-187c0-7.2,5.8-13,13-13l0,0c7.2,0,13,5.8,13,13v17.1l0,0h-25.9l0,0V-187z"/>
			
				<rect id="shape_9" x="-725.5" y="-177.6" transform="matrix(0.9616 0.2743 -0.2743 0.9616 -72.7745 191.1413)" class="st2" width="11.3" height="25.9"/>
			<g id="tops_container" transform="matrix(0.1725,0.0000,0.0000,0.1725,0.0000,0.00)">
				<g id="container_25">
					<g id="container_26" transform="matrix(1.0000,0.0000,0.0000,1.0000,-2.0000,0.00)">
						<g id="container_27">
							<path id="shape_10" class="st3" d="M-4187.6-1144.7c-4-4-6.1-8.7-6.2-14.4h42c-0.1,5.6-2.2,10.4-6.2,14.4
								c-4.1,4.1-9,6.2-14.8,6.2C-4178.5-1138.5-4183.5-1140.6-4187.6-1144.7z"/>
						</g>
					</g>
				</g>
			</g>
			<g id="armRight" transform="matrix(0.2106,-0.9776,0.9776,0.2106,34.5000,20.00)">
				<g id="farmRight" transform="matrix(0.5655,-0.8247,0.8247,0.5655,0.0000,35.00)">
					<path id="farm_right" class="st4" d="M681.9-410.7L681.9-410.7c3.1,0,5.6,2.5,5.6,5.6v13.1c0,3.1-2.5,5.6-5.6,5.6l0,0
						c-3.1,0-5.6-2.5-5.6-5.6V-405C676.2-408.2,678.7-410.7,681.9-410.7z"/>
					<g id="hands_02" transform="matrix(1.0000,0.0000,0.0000,1.0000,0.0000,50.00)">
						<g id="container_28" transform="matrix(0.6000,0.0000,0.0000,0.6000,0.0000,0.00)">
							<g id="container_29" transform="matrix(1.0000,0.0000,0.0000,1.0000,-0.1000,-0.80)">
								<g id="container_30">
									<path id="shape_11" class="st3" d="M1129.9-720c-1.8-1.8-2.7-4-2.7-6.6v0v-9.2h18.7v9.2v0c0,2.6-0.9,4.7-2.7,6.6
										c-1.9,1.8-4.1,2.7-6.6,2.7C1133.9-717.3,1131.7-718.2,1129.9-720z"/>
								</g>
							</g>
						</g>
					</g>
				</g>
				<path id="arm_right" class="st4" d="M51.5-775.2L51.5-775.2c3.1,0,5.6,2.5,5.6,5.6v13.1c0,3.1-2.5,5.6-5.6,5.6l0,0
					c-3.1,0-5.6-2.5-5.6-5.6v-13.1C45.9-772.6,48.4-775.2,51.5-775.2z"/>
			</g>
			<g id="armLeft" transform="matrix(-0.4403,0.8979,-0.8979,-0.4403,-34.5000,20.00)">
				<g id="farmLeft" transform="matrix(0.8566,0.5159,-0.5159,0.8566,0.0000,35.00)">
					<path id="farm_left" class="st4" d="M460.5,532.7L460.5,532.7c3.1,0,5.6,2.5,5.6,5.6v13.1c0,3.1-2.5,5.6-5.6,5.6l0,0
						c-3.1,0-5.6-2.5-5.6-5.6v-13.1C454.8,535.2,457.3,532.7,460.5,532.7z"/>
					<g id="hands_01" transform="matrix(-1.0000,0.0000,0.0000,1.0000,0.0000,50.00)">
						<g id="container_31" transform="matrix(0.6000,0.0000,0.0000,0.6000,0.0000,0.00)">
							<g id="container_32" transform="matrix(1.0000,0.0000,0.0000,1.0000,-0.1000,-0.80)">
								<g id="container_33">
									<path id="shape_12" class="st3" d="M-774,852.3c-1.8-1.8-2.7-4-2.7-6.6v0v-9.2h18.7v9.2v0c0,2.6-0.9,4.7-2.7,6.6
										c-1.9,1.8-4.1,2.7-6.6,2.7C-769.9,855-772.1,854.1-774,852.3z"/>
								</g>
							</g>
						</g>
					</g>
				</g>
				<path id="arm_left" class="st4" d="M116.7,714.9L116.7,714.9c3.1,0,5.6,2.5,5.6,5.6v13.1c0,3.1-2.5,5.6-5.6,5.6l0,0
					c-3.1,0-5.6-2.5-5.6-5.6v-13.1C111.1,717.4,113.6,714.9,116.7,714.9z"/>
			</g>
		</g>
	</g>
</g>
</svg>
