<?xml version="1.0" encoding="utf-8"?>
<!-- Generator: Adobe Illustrator 19.2.1, SVG Export Plug-In . SVG Version: 6.00 Build 0)  -->
<svg version="1.1" id="Calque_1" xmlns="http://www.w3.org/2000/svg" xmlns:xlink="http://www.w3.org/1999/xlink" x="0px" y="0px"
	 width="200px" height="200px" viewBox="0 0 200 200" style="enable-background:new 0 0 200 200;" xml:space="preserve">
<style type="text/css">
	.st0{fill:#FFDEB8;stroke:#000000;stroke-width:0.3882;stroke-opacity:0;}
	.st1{fill:none;stroke:#000000;stroke-width:1.941;}
	.st2{fill:#475FC4;stroke:#000000;stroke-width:0.3882;stroke-opacity:0;}
	.st3{fill:#FFDEB8;}
	.st4{fill:#622C9B;stroke:#000000;stroke-width:0.3882;stroke-opacity:0;}
</style>
<g id="container">
	<g id="container_1" transform="matrix(1.2700,0.0000,0.0000,1.2700,960.0000,500.10)">
		<g id="body" transform="matrix(0.9021,-0.4315,0.4315,0.9021,0.0000,0.00)">
			<g id="head" transform="matrix(0.9852,0.1712,-0.1712,0.9852,0.0000,0.00)">
				<g id="backhairs_container" transform="matrix(0.6450,0.0000,0.0000,0.6450,-258.0000,-360.00)">
					<g id="container_2">
						<g id="container_3">
						</g>
					</g>
				</g>
				<path id="ghead" class="st0" d="M-619.5-510.9c0-27.7,22.4-50.1,50.1-50.1l0,0c27.7,0,50.1,22.4,50.1,50.1l0,0
					c0,21.9-17.7,39.6-39.6,39.6h-21C-601.8-471.3-619.5-489-619.5-510.9z"/>
				<path id="neck" class="st0" d="M-573.3-472.4L-573.3-472.4h7.8l0,0v1.2c0,1.5-1.2,2.7-2.7,2.7h-2.3c-1.5,0-2.7-1.2-2.7-2.7
					V-472.4z"/>
				<g id="faces_container" transform="matrix(0.5775,0.0000,0.0000,0.5775,-231.0000,-346.50)">
					<g id="container_4">
						<g id="container_5">
							<path id="shape" d="M-568.3-279.7c-1.7-2.9-2.6-6.3-2.6-10.4c0-4,0.9-7.5,2.6-10.4c1.7-2.8,3.8-4.3,6.2-4.3
								c2.4,0,4.5,1.4,6.2,4.3c1.7,2.9,2.5,6.4,2.5,10.4c0,4.1-0.8,7.5-2.5,10.4c-1.7,2.9-3.8,4.3-6.2,4.3
								C-564.6-275.4-566.6-276.8-568.3-279.7z M-618.3-279.7c-1.7-2.9-2.5-6.3-2.5-10.4c0-4,0.8-7.5,2.5-10.4
								c1.7-2.8,3.8-4.3,6.2-4.3c2.4,0,4.4,1.4,6.1,4.3c1.7,2.9,2.6,6.4,2.6,10.4c0,4.1-0.9,7.5-2.6,10.4c-1.7,2.9-3.8,4.3-6.1,4.3
								C-614.6-275.4-616.6-276.8-618.3-279.7z"/>
						</g>
						<g id="container_6" transform="matrix(1.0000,0.0000,0.0000,1.0000,396.9000,345.10)">
						</g>
						<g id="container_7" transform="matrix(1.0000,0.0000,0.0000,1.0000,0.0000,-16.00)">
							<path id="shape_1" class="st1" d="M-619.8-235.3h66"/>
						</g>
						<g id="container_9" transform="matrix(1.0000,0.0000,0.0000,1.0000,0.0000,-20.00)">
							<path id="shape_4" d="M-582.6-252.6c-0.6-0.6-0.9-1.2-0.9-2c0-0.8,0.3-1.4,0.9-2c0.5-0.6,1.2-0.8,2.1-0.8
								c0.8,0,1.4,0.2,2,0.8c0.6,0.6,0.9,1.2,0.9,2c0,0.8-0.3,1.4-0.9,2c-0.5,0.5-1.2,0.8-2,0.8
								C-581.4-251.8-582.1-252.1-582.6-252.6z M-595-252.6c-0.6-0.6-0.8-1.2-0.8-2c0-0.8,0.2-1.4,0.8-2c0.6-0.6,1.2-0.8,2-0.8
								c0.8,0,1.5,0.2,2.1,0.8c0.5,0.6,0.8,1.2,0.8,2c0,0.8-0.3,1.4-0.8,2c-0.6,0.5-1.3,0.8-2.1,0.8
								C-593.7-251.8-594.4-252.1-595-252.6z"/>
						</g>
						<g id="container_10">
						</g>
					</g>
				</g>
				<g id="hairs_container" transform="matrix(0.6450,0.0000,0.0000,0.6450,-258.0000,-360.00)">
					<g id="container_11">
						<g id="container_12">
						</g>
						<g id="container_13">
						</g>
					</g>
				</g>
			</g>
			<g id="legLeft" transform="matrix(0.9997,0.0255,-0.0255,0.9997,-34.5000,80.00)">
				<g id="flegLeft" transform="matrix(0.6236,-0.7817,0.7817,0.6236,5.6459,41.73)">
					<path id="fleg_left" class="st2" d="M195.7-769L195.7-769c3.2,0,5.8,2.6,5.8,5.8v11.6c0,3.2-2.6,5.8-5.8,5.8l0,0
						c-3.2,0-5.8-2.6-5.8-5.8v-11.6C189.9-766.3,192.5-769,195.7-769z"/>
					<g id="shoes_01" transform="matrix(-1.0000,0.0000,0.0000,1.0000,15.0000,45.00)">
						<g id="container_19" transform="matrix(0.6000,0.0000,0.0000,0.6000,0.0000,0.00)">
							<g id="container_20">
								<g id="container_21" transform="matrix(1.0000,0.0000,0.0000,1.0000,0.1000,-3.00)">
									<path id="shape_7" class="st3" d="M-310.9-1310.6v-11.9h19.3v6.5c5.1,0.3,7.6,2.1,7.7,5.4H-310.9z"/>
								</g>
							</g>
						</g>
					</g>
				</g>
				<path id="leg_left" class="st2" d="M-468.8-604.6L-468.8-604.6c3.2,0,5.8,2.6,5.8,5.8v11.6c0,3.2-2.6,5.8-5.8,5.8l0,0
					c-3.2,0-5.8-2.6-5.8-5.8v-11.6C-474.7-602-472.1-604.6-468.8-604.6z"/>
			</g>
			<g id="legRight" transform="matrix(0.3335,-0.9428,0.9428,0.3335,34.5000,80.00)">
				<g id="flegRight" transform="matrix(0.9987,0.0506,-0.0506,0.9987,-0.0192,30.76)">
					<path id="fleg_right" class="st2" d="M367-720.8L367-720.8c3.2,0,5.8,2.6,5.8,5.8v11.6c0,3.2-2.6,5.8-5.8,5.8l0,0
						c-3.2,0-5.8-2.6-5.8-5.8V-715C361.2-718.2,363.8-720.8,367-720.8z"/>
					<g id="shoes_02" transform="matrix(1.0000,0.0000,0.0000,1.0000,-15.0000,45.00)">
						<g id="container_22" transform="matrix(0.6000,0.0000,0.0000,0.6000,0.0000,0.00)">
							<g id="container_23">
								<g id="container_24" transform="matrix(1.0000,0.0000,0.0000,1.0000,0.1000,-3.00)">
									<path id="shape_8" class="st3" d="M627-1230.4v-11.9h19.3v6.5c5.1,0.3,7.6,2.1,7.7,5.4H627z"/>
								</g>
							</g>
						</g>
					</g>
				</g>
				<path id="leg_right" class="st2" d="M402.7-682.2L402.7-682.2c3.2,0,5.8,2.6,5.8,5.8v11.6c0,3.2-2.6,5.8-5.8,5.8l0,0
					c-3.2,0-5.8-2.6-5.8-5.8v-11.6C396.9-679.6,399.5-682.2,402.7-682.2z"/>
			</g>
			<path id="gbody" class="st4" d="M-493.7-548.4c0-7.4,6-13.4,13.4-13.4l0,0c7.4,0,13.4,6,13.4,13.4v17.7l0,0h-26.8l0,0V-548.4z"/>
			
				<rect id="shape_9" x="-493.7" y="-531.1" transform="matrix(0.875 0.4842 -0.4842 0.875 -314.3885 166.8986)" class="st2" width="26.8" height="11.6"/>
			<g id="tops_container" transform="matrix(0.1725,0.0000,0.0000,0.1725,0.0000,0.00)">
				<g id="container_25">
					<g id="container_26" transform="matrix(1.0000,0.0000,0.0000,1.0000,-2.0000,0.00)">
						<g id="container_27">
							<path id="shape_10" class="st3" d="M-2799.5-3241.7c-4.1-4.1-6.3-9-6.4-14.9h43.4c-0.1,5.8-2.2,10.8-6.4,14.9
								c-4.2,4.3-9.3,6.4-15.3,6.4C-2790.2-3235.3-2795.3-3237.5-2799.5-3241.7z"/>
						</g>
					</g>
				</g>
			</g>
			<g id="armRight" transform="matrix(0.2460,-0.9693,0.9693,0.2460,34.5000,20.00)">
				<g id="farmRight" transform="matrix(0.8956,-0.4449,0.4449,0.8956,0.0000,35.00)">
					<path id="farm_right" class="st4" d="M676.4-394.1L676.4-394.1c3.2,0,5.8,2.6,5.8,5.8v13.6c0,3.2-2.6,5.8-5.8,5.8l0,0
						c-3.2,0-5.8-2.6-5.8-5.8v-13.6C670.5-391.5,673.2-394.1,676.4-394.1z"/>
					<g id="hands_02" transform="matrix(1.0000,0.0000,0.0000,1.0000,0.0000,50.00)">
						<g id="container_28" transform="matrix(0.6000,0.0000,0.0000,0.6000,0.0000,0.00)">
							<g id="container_29" transform="matrix(1.0000,0.0000,0.0000,1.0000,-0.1000,-0.80)">
								<g id="container_30">
									<path id="shape_11" class="st3" d="M1120.5-690.8c-1.9-1.9-2.8-4.2-2.8-6.8v0v-9.5h19.4v9.5v0c0,2.6-1,4.9-2.8,6.8
										c-1.9,1.9-4.2,2.8-6.9,2.8C1124.7-688,1122.4-688.9,1120.5-690.8z"/>
								</g>
							</g>
						</g>
					</g>
				</g>
				<path id="arm_right" class="st4" d="M433-633.1L433-633.1c3.2,0,5.8,2.6,5.8,5.8v13.6c0,3.2-2.6,5.8-5.8,5.8l0,0
					c-3.2,0-5.8-2.6-5.8-5.8v-13.6C427.2-630.5,429.8-633.1,433-633.1z"/>
			</g>
			<g id="armLeft" transform="matrix(-0.2615,0.9652,-0.9652,-0.2615,-34.5000,20.00)">
				<g id="farmLeft" transform="matrix(0.7843,0.6203,-0.6203,0.7843,0.0000,35.00)">
					<path id="farm_left" class="st4" d="M14.4,712L14.4,712c3.2,0,5.8,2.6,5.8,5.8v13.6c0,3.2-2.6,5.8-5.8,5.8l0,0
						c-3.2,0-5.8-2.6-5.8-5.8v-13.6C8.6,714.6,11.2,712,14.4,712z"/>
					<g id="hands_01" transform="matrix(-1.0000,0.0000,0.0000,1.0000,0.0000,50.00)">
						<g id="container_31" transform="matrix(0.6000,0.0000,0.0000,0.6000,0.0000,0.00)">
							<g id="container_32" transform="matrix(1.0000,0.0000,0.0000,1.0000,-0.1000,-0.80)">
								<g id="container_33">
									<path id="shape_12" class="st3" d="M-30.8,1152.7c-1.9-1.9-2.8-4.2-2.8-6.8v0v-9.5h19.4v9.5v0c0,2.6-1,4.9-2.8,6.8
										c-1.9,1.9-4.2,2.8-6.9,2.8C-26.6,1155.6-28.9,1154.6-30.8,1152.7z"/>
								</g>
							</g>
						</g>
					</g>
				</g>
				<path id="arm_left" class="st4" d="M-434,587.6L-434,587.6c3.2,0,5.8,2.6,5.8,5.8V607c0,3.2-2.6,5.8-5.8,5.8l0,0
					c-3.2,0-5.8-2.6-5.8-5.8v-13.6C-439.8,590.2-437.2,587.6-434,587.6z"/>
			</g>
		</g>
	</g>
</g>
</svg>
