<?xml version="1.0" encoding="utf-8"?>
<!-- Generator: Adobe Illustrator 19.2.1, SVG Export Plug-In . SVG Version: 6.00 Build 0)  -->
<svg version="1.1" id="Calque_1" xmlns="http://www.w3.org/2000/svg" xmlns:xlink="http://www.w3.org/1999/xlink" x="0px" y="0px"
	 width="200px" height="200px" viewBox="0 0 200 200" style="enable-background:new 0 0 200 200;" xml:space="preserve">
<style type="text/css">
	.st0{fill:#FFDEB8;stroke:#000000;stroke-width:0.3797;stroke-opacity:0;}
	.st1{fill:none;stroke:#000000;stroke-width:1.8983;}
	.st2{fill:#475FC4;stroke:#000000;stroke-width:0.3797;stroke-opacity:0;}
	.st3{fill:#FFDEB8;}
	.st4{fill:#622C9B;stroke:#000000;stroke-width:0.3797;stroke-opacity:0;}
</style>
<g id="container">
	<g id="container_1" transform="matrix(1.2700,0.0000,0.0000,1.2700,960.0000,500.10)">
		<g id="body" transform="matrix(1.0000,0.0073,-0.0073,1.0000,0.0000,0.00)">
			<g id="head" transform="matrix(0.9991,-0.0422,0.0422,0.9991,0.0000,0.00)">
				<g id="backhairs_container" transform="matrix(0.6450,0.0000,0.0000,0.6450,-258.0000,-360.00)">
					<g id="container_2">
						<g id="container_3">
						</g>
					</g>
				</g>
				<path id="ghead" class="st0" d="M-716.6-362c0-27,21.9-49,49-49l0,0c27,0,49,21.9,49,49l0,0c0,21.4-17.3,38.7-38.7,38.7h-20.5
					C-699.3-323.3-716.6-340.6-716.6-362z"/>
				<path id="neck" class="st0" d="M-671.5-324.4L-671.5-324.4h7.6l0,0v1.1c0,1.5-1.2,2.7-2.7,2.7h-2.3c-1.5,0-2.7-1.2-2.7-2.7
					V-324.4z"/>
				<g id="faces_container" transform="matrix(0.5775,0.0000,0.0000,0.5775,-231.0000,-346.50)">
					<g id="container_4">
						<g id="container_5">
							<path id="shape" d="M-738.8-22.1c-1.7-2.8-2.5-6.2-2.5-10.2c0-3.9,0.8-7.3,2.5-10.2c1.7-2.8,3.7-4.2,6-4.2
								c2.4,0,4.4,1.4,6.1,4.2c1.7,2.8,2.5,6.2,2.5,10.2c0,4-0.8,7.4-2.5,10.2c-1.7,2.8-3.7,4.2-6.1,4.2
								C-735.1-17.9-737.1-19.3-738.8-22.1z M-787.7-22.1c-1.6-2.8-2.5-6.2-2.5-10.2c0-3.9,0.8-7.3,2.5-10.2
								c1.7-2.8,3.7-4.2,6.1-4.2c2.3,0,4.3,1.4,6,4.2c1.7,2.8,2.5,6.2,2.5,10.2c0,4-0.8,7.4-2.5,10.2c-1.7,2.8-3.7,4.2-6,4.2
								C-784-17.9-786-19.3-787.7-22.1z"/>
						</g>
						<g id="container_6" transform="matrix(1.0000,0.0000,0.0000,1.0000,396.9000,345.10)">
						</g>
						<g id="container_7" transform="matrix(1.0000,0.0000,0.0000,1.0000,0.0000,-16.00)">
							<path id="shape_1" class="st1" d="M-789.1,21.7h64.5"/>
						</g>
						<g id="container_9" transform="matrix(1.0000,0.0000,0.0000,1.0000,0.0000,-20.00)">
							<path id="shape_4" d="M-752.7,4.8c-0.6-0.6-0.8-1.2-0.8-2c0-0.7,0.3-1.4,0.8-1.9c0.5-0.6,1.2-0.8,2-0.8
								c0.8,0,1.4,0.2,1.9,0.8c0.6,0.6,0.9,1.2,0.9,1.9c0,0.8-0.3,1.4-0.9,2c-0.5,0.5-1.2,0.8-1.9,0.8
								C-751.5,5.6-752.2,5.4-752.7,4.8z M-764.8,4.8c-0.6-0.6-0.8-1.2-0.8-2c0-0.7,0.2-1.4,0.8-1.9s1.2-0.8,2-0.8
								c0.8,0,1.5,0.2,2,0.8c0.5,0.6,0.8,1.2,0.8,1.9c0,0.8-0.3,1.4-0.8,2c-0.6,0.5-1.2,0.8-2,0.8C-763.6,5.6-764.3,5.4-764.8,4.8z"
								/>
						</g>
						<g id="container_10">
						</g>
					</g>
				</g>
				<g id="hairs_container" transform="matrix(0.6450,0.0000,0.0000,0.6450,-258.0000,-360.00)">
					<g id="container_11">
						<g id="container_12">
						</g>
						<g id="container_13">
						</g>
					</g>
				</g>
			</g>
			<g id="legLeft" transform="matrix(0.9962,-0.0872,0.0872,0.9962,-34.5000,80.00)">
				<g id="flegLeft" transform="matrix(0.9586,0.2847,-0.2847,0.9586,0.6207,25.73)">
					<path id="fleg_left" class="st2" d="M-714.1-226.5L-714.1-226.5c3.1,0,5.7,2.5,5.7,5.7v11.4c0,3.1-2.5,5.7-5.7,5.7l0,0
						c-3.1,0-5.7-2.5-5.7-5.7v-11.4C-719.8-224-717.2-226.5-714.1-226.5z"/>
					<g id="shoes_01" transform="matrix(-1.0000,0.0000,0.0000,1.0000,15.0000,45.00)">
						<g id="container_19" transform="matrix(0.6000,0.0000,0.0000,0.6000,0.0000,0.00)">
							<g id="container_20">
								<g id="container_21" transform="matrix(1.0000,0.0000,0.0000,1.0000,0.1000,-3.00)">
									<path id="shape_7" class="st3" d="M1205.7-407.4v-11.6h18.8v6.3c5,0.3,7.5,2.1,7.6,5.3H1205.7z"/>
								</g>
							</g>
						</g>
					</g>
				</g>
				<path id="leg_left" class="st2" d="M-621.1-406.3L-621.1-406.3c3.1,0,5.7,2.5,5.7,5.7v11.4c0,3.1-2.5,5.7-5.7,5.7l0,0
					c-3.1,0-5.7-2.5-5.7-5.7v-11.4C-626.7-403.8-624.2-406.3-621.1-406.3z"/>
			</g>
			<g id="legRight" transform="matrix(0.9979,0.0649,-0.0649,0.9979,34.5000,80.00)">
				<g id="flegRight" transform="matrix(0.9792,-0.2028,0.2028,0.9792,-0.3117,26.96)">
					<path id="fleg_right" class="st2" d="M-649.6-460.6L-649.6-460.6c3.1,0,5.7,2.5,5.7,5.7v11.4c0,3.1-2.5,5.7-5.7,5.7l0,0
						c-3.1,0-5.7-2.5-5.7-5.7v-11.4C-655.3-458.1-652.8-460.6-649.6-460.6z"/>
					<g id="shoes_02" transform="matrix(1.0000,0.0000,0.0000,1.0000,-15.0000,45.00)">
						<g id="container_22" transform="matrix(0.6000,0.0000,0.0000,0.6000,0.0000,0.00)">
							<g id="container_23">
								<g id="container_24" transform="matrix(1.0000,0.0000,0.0000,1.0000,0.1000,-3.00)">
									<path id="shape_8" class="st3" d="M-1067.2-797.7v-11.6h18.8v6.3c5,0.3,7.5,2.1,7.6,5.3H-1067.2z"/>
								</g>
							</g>
						</g>
					</g>
				</g>
				<path id="leg_right" class="st2" d="M-728.7-303.9L-728.7-303.9c3.1,0,5.7,2.5,5.7,5.7v11.4c0,3.1-2.5,5.7-5.7,5.7l0,0
					c-3.1,0-5.7-2.5-5.7-5.7v-11.4C-734.4-301.3-731.8-303.9-728.7-303.9z"/>
			</g>
			<path id="gbody" class="st4" d="M-693.8-281.7c0-7.2,5.9-13.1,13.1-13.1l0,0c7.2,0,13.1,5.9,13.1,13.1v17.3l0,0h-26.2l0,0V-281.7
				z"/>
			
				<rect id="shape_9" x="-686.4" y="-272.2" transform="matrix(-0.4054 0.9142 -0.9142 -0.4054 -1193.5339 258.077)" class="st2" width="11.4" height="26.2"/>
			<g id="tops_container" transform="matrix(0.1725,0.0000,0.0000,0.1725,0.0000,0.00)">
				<g id="container_25">
					<g id="container_26" transform="matrix(1.0000,0.0000,0.0000,1.0000,-2.0000,0.00)">
						<g id="container_27">
							<path id="shape_10" class="st3" d="M-3960.6-1694.5c-4-4-6.1-8.8-6.2-14.5h42.5c-0.1,5.7-2.2,10.5-6.3,14.5
								c-4.1,4.2-9.1,6.3-15,6.3C-3951.4-1688.3-3956.4-1690.3-3960.6-1694.5z"/>
						</g>
					</g>
				</g>
			</g>
			<g id="armRight" transform="matrix(0.9479,0.3186,-0.3186,0.9479,34.5000,20.00)">
				<g id="farmRight" transform="matrix(1.0000,0.0024,-0.0024,1.0000,0.0000,35.00)">
					<path id="farm_right" class="st4" d="M-763.6-93.1L-763.6-93.1c3.1,0,5.7,2.5,5.7,5.7v13.3c0,3.1-2.5,5.7-5.7,5.7l0,0
						c-3.1,0-5.7-2.5-5.7-5.7v-13.3C-769.3-90.6-766.8-93.1-763.6-93.1z"/>
					<g id="hands_02" transform="matrix(1.0000,0.0000,0.0000,1.0000,0.0000,50.00)">
						<g id="container_28" transform="matrix(0.6000,0.0000,0.0000,0.6000,0.0000,0.00)">
							<g id="container_29" transform="matrix(1.0000,0.0000,0.0000,1.0000,-0.1000,-0.80)">
								<g id="container_30">
									<path id="shape_11" class="st3" d="M-1279.3-190.2c-1.8-1.8-2.7-4.1-2.8-6.6v0v-9.3h18.9v9.3v0c0,2.6-0.9,4.8-2.8,6.6
										c-1.9,1.8-4.1,2.8-6.7,2.8C-1275.2-187.4-1277.4-188.4-1279.3-190.2z"/>
								</g>
							</g>
						</g>
					</g>
				</g>
				<path id="arm_right" class="st4" d="M-763.4-73.2L-763.4-73.2c3.1,0,5.7,2.5,5.7,5.7v13.3c0,3.1-2.5,5.7-5.7,5.7l0,0
					c-3.1,0-5.7-2.5-5.7-5.7v-13.3C-769.1-70.7-766.5-73.2-763.4-73.2z"/>
			</g>
			<g id="armLeft" transform="matrix(0.9849,-0.1733,0.1733,0.9849,-34.5000,20.00)">
				<g id="farmLeft" transform="matrix(0.9898,-0.1426,0.1426,0.9898,0.0000,35.00)">
					<path id="farm_left" class="st4" d="M-527.4-524.7L-527.4-524.7c3.1,0,5.7,2.5,5.7,5.7v13.3c0,3.1-2.5,5.7-5.7,5.7l0,0
						c-3.1,0-5.7-2.5-5.7-5.7V-519C-533.1-522.2-530.6-524.7-527.4-524.7z"/>
					<g id="hands_01" transform="matrix(-1.0000,0.0000,0.0000,1.0000,0.0000,50.00)">
						<g id="container_31" transform="matrix(0.6000,0.0000,0.0000,0.6000,0.0000,0.00)">
							<g id="container_32" transform="matrix(1.0000,0.0000,0.0000,1.0000,-0.1000,-0.80)">
								<g id="container_33">
									<path id="shape_12" class="st3" d="M872.4-909.6c-1.8-1.8-2.7-4.1-2.8-6.6v0v-9.3h18.9v9.3v0c0,2.6-0.9,4.8-2.8,6.6
										c-1.9,1.8-4.1,2.8-6.7,2.8C876.5-906.8,874.3-907.8,872.4-909.6z"/>
								</g>
							</g>
						</g>
					</g>
				</g>
				<path id="arm_left" class="st4" d="M-596.1-422.5L-596.1-422.5c3.1,0,5.7,2.5,5.7,5.7v13.3c0,3.1-2.5,5.7-5.7,5.7l0,0
					c-3.1,0-5.7-2.5-5.7-5.7v-13.3C-601.8-420-599.2-422.5-596.1-422.5z"/>
			</g>
		</g>
	</g>
</g>
</svg>
