<?xml version="1.0" encoding="utf-8"?>
<!-- Generator: Adobe Illustrator 19.2.1, SVG Export Plug-In . SVG Version: 6.00 Build 0)  -->
<svg version="1.1" id="Calque_1" xmlns="http://www.w3.org/2000/svg" xmlns:xlink="http://www.w3.org/1999/xlink" x="0px" y="0px"
	 width="200px" height="200px" viewBox="0 0 200 200" style="enable-background:new 0 0 200 200;" xml:space="preserve">
<style type="text/css">
	.st0{fill:#FFDEB8;stroke:#000000;stroke-width:0.3638;stroke-opacity:0;}
	.st1{fill:none;stroke:#000000;stroke-width:1.8189;}
	.st2{fill:#475FC4;stroke:#000000;stroke-width:0.3638;stroke-opacity:0;}
	.st3{fill:#FFDEB8;}
	.st4{fill:#622C9B;stroke:#000000;stroke-width:0.3638;stroke-opacity:0;}
</style>
<g id="container">
	<g id="container_1" transform="matrix(1.2700,0.0000,0.0000,1.2700,960.0000,500.10)">
		<g id="body" transform="matrix(1.0000,0.0073,-0.0073,1.0000,0.0000,0.00)">
			<g id="head" transform="matrix(0.9991,-0.0422,0.0422,0.9991,0.0000,0.00)">
				<g id="backhairs_container" transform="matrix(0.6450,0.0000,0.0000,0.6450,-258.0000,-360.00)">
					<g id="container_2">
						<g id="container_3">
						</g>
					</g>
				</g>
				<path id="ghead" class="st0" d="M-714.1-361.2c0-25.9,21-46.9,46.9-46.9l0,0c25.9,0,46.9,21,46.9,46.9l0,0
					c0,20.5-16.6,37.1-37.1,37.1H-677C-697.5-324.1-714.1-340.7-714.1-361.2z"/>
				<path id="neck" class="st0" d="M-670.8-325.2L-670.8-325.2h7.3l0,0v1.1c0,1.4-1.1,2.5-2.5,2.5h-2.2c-1.4,0-2.5-1.1-2.5-2.5
					V-325.2z"/>
				<g id="faces_container" transform="matrix(0.5775,0.0000,0.0000,0.5775,-231.0000,-346.50)">
					<g id="container_4">
						<g id="container_5">
							<path id="shape" d="M-738.7-20.9c-1.6-2.7-2.4-5.9-2.4-9.7c0-3.8,0.8-7,2.4-9.7c1.6-2.7,3.5-4,5.8-4c2.3,0,4.2,1.3,5.8,4
								c1.6,2.7,2.4,6,2.4,9.7c0,3.8-0.8,7.1-2.4,9.7c-1.6,2.7-3.5,4.1-5.8,4C-735.1-16.9-737.1-18.2-738.7-20.9z M-785.5-20.9
								c-1.6-2.7-2.4-5.9-2.4-9.7c0-3.8,0.8-7,2.4-9.7c1.6-2.7,3.5-4,5.8-4c2.2,0,4.1,1.3,5.7,4c1.6,2.7,2.4,6,2.4,9.7
								c0,3.8-0.8,7.1-2.4,9.7c-1.6,2.7-3.5,4.1-5.7,4C-782-16.9-783.9-18.2-785.5-20.9z"/>
						</g>
						<g id="container_6" transform="matrix(1.0000,0.0000,0.0000,1.0000,396.9000,345.10)">
						</g>
						<g id="container_7" transform="matrix(1.0000,0.0000,0.0000,1.0000,0.0000,-16.00)">
							<path id="shape_1" class="st1" d="M-786.9,21.7h61.8"/>
						</g>
						<g id="container_9" transform="matrix(1.0000,0.0000,0.0000,1.0000,0.0000,-20.00)">
							<path id="shape_4" d="M-752,5.7c-0.5-0.5-0.8-1.2-0.8-1.9c0-0.7,0.3-1.3,0.8-1.9c0.5-0.5,1.2-0.8,1.9-0.8
								c0.7,0,1.3,0.2,1.9,0.8c0.6,0.5,0.8,1.2,0.8,1.9c0,0.7-0.3,1.4-0.8,1.9c-0.5,0.5-1.1,0.8-1.9,0.8
								C-750.9,6.5-751.5,6.2-752,5.7z M-763.6,5.7c-0.5-0.5-0.8-1.2-0.8-1.9c0-0.7,0.2-1.3,0.8-1.9c0.5-0.5,1.2-0.8,1.9-0.8
								c0.8,0,1.4,0.2,1.9,0.8c0.5,0.5,0.8,1.2,0.8,1.9c0,0.7-0.3,1.4-0.8,1.9c-0.5,0.5-1.2,0.8-1.9,0.8
								C-762.5,6.5-763.1,6.2-763.6,5.7z"/>
						</g>
						<g id="container_10">
						</g>
					</g>
				</g>
				<g id="hairs_container" transform="matrix(0.6450,0.0000,0.0000,0.6450,-258.0000,-360.00)">
					<g id="container_11">
						<g id="container_12">
						</g>
						<g id="container_13">
						</g>
					</g>
				</g>
			</g>
			<g id="legLeft" transform="matrix(0.7503,0.6610,-0.6610,0.7503,-34.5000,80.00)">
				<g id="flegLeft" transform="matrix(0.7363,-0.6766,0.6766,0.7363,3.9550,40.15)">
					<path id="fleg_left" class="st2" d="M-630.1-386.3L-630.1-386.3c3,0,5.5,2.4,5.5,5.5v10.9c0,3-2.4,5.5-5.5,5.5l0,0
						c-3,0-5.5-2.4-5.5-5.5v-10.9C-635.5-383.8-633.1-386.3-630.1-386.3z"/>
					<g id="shoes_01" transform="matrix(-1.0000,0.0000,0.0000,1.0000,15.0000,45.00)">
						<g id="container_19" transform="matrix(0.6000,0.0000,0.0000,0.6000,0.0000,0.00)">
							<g id="container_20">
								<g id="container_21" transform="matrix(1.0000,0.0000,0.0000,1.0000,0.1000,-3.00)">
									<path id="shape_7" class="st3" d="M1066-675.5v-11.1h18v6.1c4.8,0.3,7.2,2,7.2,5.1H1066z"/>
								</g>
							</g>
						</g>
					</g>
				</g>
				<path id="leg_left" class="st2" d="M-717.6,169.7L-717.6,169.7c3,0,5.5,2.4,5.5,5.5V186c0,3-2.4,5.5-5.5,5.5l0,0
					c-3,0-5.5-2.4-5.5-5.5v-10.9C-723.1,172.1-720.7,169.7-717.6,169.7z"/>
			</g>
			<g id="legRight" transform="matrix(0.7520,-0.6592,0.6592,0.7520,34.5000,80.00)">
				<g id="flegRight" transform="matrix(0.7672,0.6414,-0.6414,0.7672,-3.4925,39.62)">
					<path id="fleg_right" class="st2" d="M-713.8-389.1L-713.8-389.1c3,0,5.5,2.4,5.5,5.5v10.9c0,3-2.4,5.5-5.5,5.5l0,0
						c-3,0-5.5-2.4-5.5-5.5v-10.9C-719.3-386.7-716.8-389.1-713.8-389.1z"/>
					<g id="shoes_02" transform="matrix(1.0000,0.0000,0.0000,1.0000,-15.0000,45.00)">
						<g id="container_22" transform="matrix(0.6000,0.0000,0.0000,0.6000,0.0000,0.00)">
							<g id="container_23">
								<g id="container_24" transform="matrix(1.0000,0.0000,0.0000,1.0000,0.1000,-3.00)">
									<path id="shape_8" class="st3" d="M-1173.8-680.2v-11.1h18v6.1c4.8,0.3,7.2,2,7.2,5.1H-1173.8z"/>
								</g>
							</g>
						</g>
					</g>
				</g>
				<path id="leg_right" class="st2" d="M-305-728.9L-305-728.9c3,0,5.5,2.4,5.5,5.5v10.9c0,3-2.4,5.5-5.5,5.5l0,0
					c-3,0-5.5-2.4-5.5-5.5v-10.9C-310.5-726.5-308.1-728.9-305-728.9z"/>
			</g>
			<path id="gbody" class="st4" d="M-692.8-283.1c0-6.9,5.6-12.6,12.6-12.6l0,0c6.9,0,12.6,5.6,12.6,12.6v16.6l0,0h-25.1l0,0V-283.1
				z"/>
			
				<rect id="shape_9" x="-685.7" y="-274" transform="matrix(2.732409e-02 0.9996 -0.9996 2.732409e-02 -923.0406 425.6733)" class="st2" width="10.9" height="25.1"/>
			<g id="tops_container" transform="matrix(0.1725,0.0000,0.0000,0.1725,0.0000,0.00)">
				<g id="container_25">
					<g id="container_26" transform="matrix(1.0000,0.0000,0.0000,1.0000,-2.0000,0.00)">
						<g id="container_27">
							<path id="shape_10" class="st3" d="M-3957.3-1700c-3.9-3.8-5.9-8.5-6-13.9h40.7c-0.1,5.5-2.1,10.1-6,13.9c-4,4-8.7,6-14.4,6
								C-3948.5-1694-3953.3-1696-3957.3-1700z"/>
						</g>
					</g>
				</g>
			</g>
			<g id="armRight" transform="matrix(-0.7584,-0.6518,0.6518,-0.7584,34.5000,20.00)">
				<g id="farmRight" transform="matrix(0.0000,-1.0000,1.0000,0.0000,0.0000,35.00)">
					<path id="farm_right" class="st4" d="M246.1,728.1L246.1,728.1c3,0,5.5,2.4,5.5,5.5v12.7c0,3-2.4,5.5-5.5,5.5l0,0
						c-3,0-5.5-2.4-5.5-5.5v-12.7C240.6,730.5,243.1,728.1,246.1,728.1z"/>
					<g id="hands_02" transform="matrix(1.0000,0.0000,0.0000,1.0000,0.0000,50.00)">
						<g id="container_28" transform="matrix(0.6000,0.0000,0.0000,0.6000,0.0000,0.00)">
							<g id="container_29" transform="matrix(1.0000,0.0000,0.0000,1.0000,-0.1000,-0.80)">
								<g id="container_30">
									<path id="shape_11" class="st3" d="M403.8,1176.5c-1.7-1.8-2.6-3.9-2.7-6.4v0v-8.9h18.2v8.9v0c0,2.5-0.9,4.6-2.7,6.4
										c-1.8,1.8-3.9,2.7-6.4,2.7C407.7,1179.1,405.6,1178.2,403.8,1176.5z"/>
								</g>
							</g>
						</g>
					</g>
				</g>
				<path id="arm_right" class="st4" d="M733.6-229.3L733.6-229.3c3,0,5.5,2.4,5.5,5.5v12.7c0,3-2.4,5.5-5.5,5.5l0,0
					c-3,0-5.5-2.4-5.5-5.5v-12.7C728.1-226.8,730.5-229.3,733.6-229.3z"/>
			</g>
			<g id="armLeft" transform="matrix(-0.8190,0.5739,-0.5739,-0.8190,-34.5000,20.00)">
				<g id="farmLeft" transform="matrix(0.0000,1.0000,-1.0000,0.0000,0.0000,35.00)">
					<path id="farm_left" class="st4" d="M608-367.6L608-367.6c3,0,5.5,2.4,5.5,5.5v12.7c0,3-2.4,5.5-5.5,5.5l0,0
						c-3,0-5.5-2.4-5.5-5.5v-12.7C602.6-365.1,605-367.6,608-367.6z"/>
					<g id="hands_01" transform="matrix(-1.0000,0.0000,0.0000,1.0000,0.0000,50.00)">
						<g id="container_31" transform="matrix(0.6000,0.0000,0.0000,0.6000,0.0000,0.00)">
							<g id="container_32" transform="matrix(1.0000,0.0000,0.0000,1.0000,-0.1000,-0.80)">
								<g id="container_33">
									<path id="shape_12" class="st3" d="M-1019.7-649.6c-1.7-1.8-2.6-3.9-2.7-6.4v0v-8.9h18.2v8.9v0c0,2.5-0.9,4.6-2.7,6.4
										c-1.8,1.8-3.9,2.7-6.4,2.7C-1015.8-647-1017.9-647.9-1019.7-649.6z"/>
								</g>
							</g>
						</g>
					</g>
				</g>
				<path id="arm_left" class="st4" d="M362.1,624.8L362.1,624.8c3,0,5.5,2.4,5.5,5.5V643c0,3-2.4,5.5-5.5,5.5l0,0
					c-3,0-5.5-2.4-5.5-5.5v-12.7C356.7,627.3,359.1,624.8,362.1,624.8z"/>
			</g>
		</g>
	</g>
</g>
</svg>
