<?xml version="1.0" encoding="utf-8"?>
<!-- Generator: Adobe Illustrator 19.2.1, SVG Export Plug-In . SVG Version: 6.00 Build 0)  -->
<svg version="1.1" id="Calque_1" xmlns="http://www.w3.org/2000/svg" xmlns:xlink="http://www.w3.org/1999/xlink" x="0px" y="0px"
	 width="200px" height="200px" viewBox="0 0 200 200" style="enable-background:new 0 0 200 200;" xml:space="preserve">
<style type="text/css">
	.st0{fill:#FFDEB8;stroke:#000000;stroke-width:0.3527;stroke-opacity:0;}
	.st1{fill:none;stroke:#000000;stroke-width:1.7637;}
	.st2{fill:#475FC4;stroke:#000000;stroke-width:0.3527;stroke-opacity:0;}
	.st3{fill:#FFDEB8;}
	.st4{fill:#622C9B;stroke:#000000;stroke-width:0.3527;stroke-opacity:0;}
</style>
<g id="container">
	<g id="container_1" transform="matrix(1.2700,0.0000,0.0000,1.2700,960.0000,500.10)">
		<g id="body">
			<g id="head" transform="matrix(0.9971,-0.0767,0.0767,0.9971,0.0000,0.00)">
				<g id="backhairs_container" transform="matrix(0.6450,0.0000,0.0000,0.6450,-258.0000,-360.00)">
					<g id="container_2">
						<g id="container_3">
						</g>
					</g>
				</g>
				<path id="ghead" class="st0" d="M-695.9-388.3c0-25.1,20.4-45.5,45.5-45.5l0,0c25.1,0,45.5,20.4,45.5,45.5l0,0
					c0,19.9-16.1,36-36,36h-19C-679.8-352.3-695.9-368.4-695.9-388.3z"/>
				<path id="neck" class="st0" d="M-653.9-353.4L-653.9-353.4h7.1l0,0v1.1c0,1.4-1.1,2.5-2.5,2.5h-2.1c-1.4,0-2.5-1.1-2.5-2.5
					V-353.4z"/>
				<g id="faces_container" transform="matrix(0.5775,0.0000,0.0000,0.5775,-231.0000,-346.50)">
					<g id="container_4">
						<g id="container_5">
							<path id="shape" d="M-710.1-68c-1.6-2.6-2.3-5.8-2.3-9.5c0-3.7,0.8-6.8,2.3-9.5c1.6-2.6,3.4-3.9,5.6-3.9
								c2.2,0,4.1,1.3,5.6,3.9c1.6,2.6,2.3,5.8,2.3,9.5c0,3.7-0.7,6.8-2.3,9.5c-1.6,2.6-3.4,3.9-5.6,3.9
								C-706.7-64-708.6-65.3-710.1-68z M-755.6-68c-1.5-2.6-2.3-5.8-2.3-9.5c0-3.7,0.8-6.8,2.3-9.5c1.6-2.6,3.4-3.9,5.6-3.9
								c2.2,0,4,1.3,5.6,3.9c1.6,2.6,2.4,5.8,2.4,9.5c0,3.7-0.8,6.8-2.4,9.5c-1.6,2.6-3.4,3.9-5.6,3.9C-752.1-64-754-65.3-755.6-68z
								"/>
						</g>
						<g id="container_6" transform="matrix(1.0000,0.0000,0.0000,1.0000,396.9000,345.10)">
						</g>
						<g id="container_7" transform="matrix(1.0000,0.0000,0.0000,1.0000,0.0000,-16.00)">
							<path id="shape_1" class="st1" d="M-756.9-26.2h59.9"/>
						</g>
						<g id="container_9" transform="matrix(1.0000,0.0000,0.0000,1.0000,0.0000,-20.00)">
							<path id="shape_4" d="M-723.1-41.5c-0.5-0.5-0.8-1.1-0.8-1.8c0-0.7,0.3-1.3,0.8-1.8c0.5-0.5,1.1-0.8,1.9-0.7
								c0.7,0,1.3,0.2,1.8,0.7c0.5,0.5,0.8,1.1,0.8,1.8c0,0.7-0.3,1.3-0.8,1.8c-0.5,0.5-1.1,0.7-1.8,0.7
								C-722-40.8-722.6-41-723.1-41.5z M-734.3-41.5c-0.5-0.5-0.8-1.1-0.7-1.8c0-0.7,0.2-1.3,0.7-1.8s1.1-0.8,1.8-0.7
								c0.7,0,1.4,0.2,1.9,0.7c0.5,0.5,0.7,1.1,0.7,1.8c0,0.7-0.2,1.3-0.7,1.8c-0.5,0.5-1.1,0.7-1.9,0.7
								C-733.2-40.8-733.8-41-734.3-41.5z"/>
						</g>
						<g id="container_10">
						</g>
					</g>
				</g>
				<g id="hairs_container" transform="matrix(0.6450,0.0000,0.0000,0.6450,-258.0000,-360.00)">
					<g id="container_11">
						<g id="container_12">
						</g>
						<g id="container_13">
						</g>
					</g>
				</g>
			</g>
			<g id="legLeft" transform="matrix(0.9764,0.2158,-0.2158,0.9764,-34.5000,80.00)">
				<g id="flegLeft" transform="matrix(0.6063,0.7953,-0.7953,0.6063,5.9060,18.07)">
					<path id="fleg_left" class="st2" d="M-601.4,434.9L-601.4,434.9c2.9,0,5.3,2.4,5.3,5.3v10.6c0,2.9-2.4,5.3-5.3,5.3l0,0
						c-2.9,0-5.3-2.4-5.3-5.3v-10.6C-606.7,437.2-604.3,434.9-601.4,434.9z"/>
					<g id="shoes_01" transform="matrix(-1.0000,0.0000,0.0000,1.0000,15.0000,45.00)">
						<g id="container_19" transform="matrix(0.6000,0.0000,0.0000,0.6000,0.0000,0.00)">
							<g id="container_20" transform="matrix(-1.0000,0.0000,0.0000,1.0000,0.0000,0.00)">
								<g id="container_21" transform="matrix(1.0000,0.0000,0.0000,1.0000,0.1000,-3.00)">
									<path id="shape_7" class="st3" d="M-1036.1,691.9v-10.8h17.5v5.9c4.6,0.3,6.9,1.9,7,4.9H-1036.1z"/>
								</g>
							</g>
						</g>
					</g>
				</g>
				<path id="leg_left" class="st2" d="M-708.8-209.2L-708.8-209.2c2.9,0,5.3,2.4,5.3,5.3v10.6c0,2.9-2.4,5.3-5.3,5.3l0,0
					c-2.9,0-5.3-2.4-5.3-5.3v-10.6C-714.1-206.8-711.7-209.2-708.8-209.2z"/>
			</g>
			<g id="legRight" transform="matrix(0.6720,-0.7406,0.7406,0.6720,34.5000,80.00)">
				<g id="flegRight" transform="matrix(0.9950,0.1000,-0.1000,0.9950,-0.0752,31.50)">
					<path id="fleg_right" class="st2" d="M-289-755.2L-289-755.2c2.9,0,5.3,2.4,5.3,5.3v10.6c0,2.9-2.4,5.3-5.3,5.3l0,0
						c-2.9,0-5.3-2.4-5.3-5.3v-10.6C-294.3-752.8-292-755.2-289-755.2z"/>
					<g id="shoes_02" transform="matrix(1.0000,0.0000,0.0000,1.0000,-15.0000,45.00)">
						<g id="container_22" transform="matrix(0.6000,0.0000,0.0000,0.6000,0.0000,0.00)">
							<g id="container_23">
								<g id="container_24" transform="matrix(1.0000,0.0000,0.0000,1.0000,0.1000,-3.00)">
									<path id="shape_8" class="st3" d="M-465.5-1291.6v-10.8h17.5v5.9c4.6,0.3,6.9,1.9,7,4.9H-465.5z"/>
								</g>
							</g>
						</g>
					</g>
				</g>
				<path id="leg_right" class="st2" d="M-212.7-759.4L-212.7-759.4c2.9,0,5.3,2.4,5.3,5.3v10.6c0,2.9-2.4,5.3-5.3,5.3l0,0
					c-2.9,0-5.3-2.4-5.3-5.3v-10.6C-218-757.1-215.6-759.4-212.7-759.4z"/>
			</g>
			<path id="gbody" class="st4" d="M-687.7-289.2c0-6.7,5.4-12.2,12.2-12.2l0,0c6.7,0,12.2,5.4,12.2,12.2v16l0,0h-24.3l0,0V-289.2z"
				/>
			<rect id="shape_9" x="-687.7" y="-273.6" class="st2" width="24.3" height="10.6"/>
			<g id="tops_container" transform="matrix(0.1725,0.0000,0.0000,0.1725,0.0000,0.00)">
				<g id="container_25">
					<g id="container_26" transform="matrix(1.0000,0.0000,0.0000,1.0000,-2.0000,0.00)">
						<g id="container_27">
							<path id="shape_10" class="st3" d="M-3929.5-1733.7c-3.8-3.7-5.7-8.2-5.8-13.5h39.5c-0.1,5.3-2,9.8-5.8,13.5
								c-3.8,3.9-8.5,5.8-13.9,5.8C-3921-1727.9-3925.6-1729.9-3929.5-1733.7z"/>
						</g>
					</g>
				</g>
			</g>
			<g id="armRight" transform="matrix(0.4888,-0.8724,0.8724,0.4888,34.5000,20.00)">
				<g id="farmRight" transform="matrix(0.7076,-0.7066,0.7066,0.7076,0.0000,35.00)">
					<path id="farm_right" class="st4" d="M507.5-608.1L507.5-608.1c2.9,0,5.3,2.4,5.3,5.3v12.3c0,2.9-2.4,5.3-5.3,5.3l0,0
						c-2.9,0-5.3-2.4-5.3-5.3v-12.3C502.2-605.7,504.5-608.1,507.5-608.1z"/>
					<g id="hands_02" transform="matrix(1.0000,0.0000,0.0000,1.0000,0.0000,50.00)">
						<g id="container_28" transform="matrix(0.6000,0.0000,0.0000,0.6000,0.0000,0.00)">
							<g id="container_29" transform="matrix(1.0000,0.0000,0.0000,1.0000,-0.1000,-0.80)">
								<g id="container_30">
									<path id="shape_11" class="st3" d="M839.6-1051.9c-1.7-1.7-2.6-3.8-2.6-6.2v0v-8.6h17.6v8.6v0c0,2.4-0.9,4.5-2.6,6.2
										c-1.7,1.7-3.8,2.6-6.2,2.6C843.4-1049.3,841.4-1050.2,839.6-1051.9z"/>
								</g>
							</g>
						</g>
					</g>
				</g>
				<path id="arm_right" class="st4" d="M-66.9-767.8L-66.9-767.8c2.9,0,5.3,2.4,5.3,5.3v12.3c0,2.9-2.4,5.3-5.3,5.3l0,0
					c-2.9,0-5.3-2.4-5.3-5.3v-12.3C-72.2-765.4-69.8-767.8-66.9-767.8z"/>
			</g>
			<g id="armLeft" transform="matrix(-0.0052,1.0000,-1.0000,-0.0052,-34.5000,20.00)">
				<g id="farmLeft" transform="matrix(0.5525,-0.8335,0.8335,0.5525,0.0000,35.00)">
					<path id="farm_left" class="st4" d="M-698.7,84.8L-698.7,84.8c2.9,0,5.3,2.4,5.3,5.3v12.3c0,2.9-2.4,5.3-5.3,5.3l0,0
						c-2.9,0-5.3-2.4-5.3-5.3V90.1C-704,87.2-701.7,84.8-698.7,84.8z"/>
					<g id="hands_01" transform="matrix(-1.0000,0.0000,0.0000,1.0000,0.0000,50.00)">
						<g id="container_31" transform="matrix(0.6000,0.0000,0.0000,0.6000,0.0000,0.00)">
							<g id="container_32" transform="matrix(1.0000,0.0000,0.0000,1.0000,-0.1000,-0.80)">
								<g id="container_33">
									<path id="shape_12" class="st3" d="M1158.4,102.9c-1.7-1.7-2.6-3.8-2.6-6.2v0v-8.6h17.6v8.6v0c0,2.4-0.9,4.5-2.6,6.2
										c-1.7,1.7-3.8,2.6-6.2,2.6C1162.2,105.5,1160.2,104.7,1158.4,102.9z"/>
								</g>
							</g>
						</g>
					</g>
				</g>
				<path id="arm_left" class="st4" d="M-311,649.5L-311,649.5c2.9,0,5.3,2.4,5.3,5.3v12.3c0,2.9-2.4,5.3-5.3,5.3l0,0
					c-2.9,0-5.3-2.4-5.3-5.3v-12.3C-316.2,651.9-313.9,649.5-311,649.5z"/>
			</g>
		</g>
	</g>
</g>
</svg>
