<svg xmlns:xlink="http://www.w3.org/1999/xlink" width="1920" height="716" style="border: 1px solid black; overflow: hidden;"><defs><clipPath id="barbes_container_mask" transform="matrix(1.0000,0.0000,0.0000,1.0000,-129.0000,-231.00)"><path d="M 0 129a129,129 0 0 1 129,-129h0a129,129 0 0 1 129,129v0a102,102 0 0 1 -102,102h-54a102,102 0 0 1 -102,-102 z"></path></clipPath></defs><g id="container"><g id="container_1" transform="matrix(1.2700,0.0000,0.0000,1.2700,960.0000,500.10)"><g id="body" transform="matrix(0.9994,0.0356,-0.0356,0.9994,0.0000,0.00)"><g id="head" transform="matrix(0.9999,0.0140,-0.0140,0.9999,0.0000,0.00)"><g id="backhairs_container" transform="matrix(0.6450,0.0000,0.0000,0.6450,-258.0000,-360.00)"><g id="container_2"><g id="container_3"></g></g></g><path d="M 0 129a129,129 0 0 1 129,-129h0a129,129 0 0 1 129,129v0a102,102 0 0 1 -102,102h-54a102,102 0 0 1 -102,-102 z" style="fill:#ffdeb8;stroke:#000000;stroke-opacity:0;" id="ghead" transform="matrix(1.0000,0.0000,0.0000,1.0000,-129.0000,-231.00)"></path><path d="M 0 0a0,0 0 0 1 0,0h20a0,0 0 0 1 0,0v3a7,7 0 0 1 -7,7h-6a7,7 0 0 1 -7,-7 z" style="fill:#ffdeb8;stroke:#000000;stroke-opacity:0;" id="neck" transform="matrix(1.0000,0.0000,0.0000,1.0000,-10.0000,-3.00)"></path><g id="faces_container" transform="matrix(0.5775,0.0000,0.0000,0.5775,-231.0000,-346.50)"><g id="container_4"><g id="container_5"><path d="M 48.5 26.8Q 41.9 15.700000000000001 41.9 1.7763568394002505e-15Q 41.9 -15.599999999999998 48.5 -26.799999999999997Q 55.1 -37.8 64.4 -37.8Q 73.80000000000001 -37.8 80.4 -26.799999999999997Q 87 -15.599999999999998 86.9 1.7763568394002505e-15Q 87 15.700000000000001 80.4 26.8Q 73.80000000000001 38 64.4 37.9Q 55.10000000000001 38 48.50000000000001 26.8ZM -80.3 26.8Q -86.8 15.700000000000001 -86.8 1.7763568394002505e-15Q -86.8 -15.599999999999998 -80.3 -26.799999999999997Q -73.7 -37.8 -64.3 -37.8Q -55.099999999999994 -37.8 -48.49999999999999 -26.799999999999997Q -41.79999999999999 -15.599999999999998 -41.79999999999999 1.7763568394002505e-15Q -41.79999999999999 15.700000000000001 -48.49999999999999 26.8Q -55.099999999999994 38 -64.3 37.9Q -73.7 38 -80.3 26.8Z" style="fill:#000000;stroke:none;" id="shape" transform="matrix(1.0000,0.0000,0.0000,1.0000,397.2000,409.10)"></path></g><g id="container_6" transform="matrix(1.0000,0.0000,0.0000,1.0000,396.9000,345.10)"></g><g id="container_7" transform="matrix(1.0000,0.0000,0.0000,1.0000,0.0000,-16.00)"><path d="M -84.9 0L 85 0" style="fill:none;stroke:#000000;stroke-width:5;stroke-linecap:1;stroke-linejoin:1;" id="shape_1" transform="matrix(1.0000,0.0000,0.0000,1.0000,398.1000,525.10)"></path></g><g id="container_8"><path d="M -199.9 199.9L -199.9 -199.79999999999998L 199.99999999999997 -199.79999999999998L 199.99999999999997 199.9Z" style="fill:#231f20;fill-opacity:0;stroke:none;" id="shape_2" transform="matrix(1.0000,0.0000,0.0000,1.0000,400.1000,424.20)"></path></g><g id="container_9" transform="matrix(1.0000,0.0000,0.0000,1.0000,0.0000,-20.00)"><path d="M -199.9 199.9L -199.9 -199.79999999999998L 199.99999999999997 -199.79999999999998L 199.99999999999997 199.9Z" style="fill:#231f20;fill-opacity:0;stroke:none;" id="shape_3" transform="matrix(1.0000,0.0000,0.0000,1.0000,400.1000,424.20)"></path><path d="M 10.7 5.2Q 8.5 3 8.5 0Q 8.5 -2.9 10.7 -5.1Q 12.799999999999999 -7.3 16 -7.2Q 19 -7.3 21.1 -5.1Q 23.400000000000002 -2.8999999999999995 23.400000000000002 4.440892098500626e-16Q 23.400000000000002 3.0000000000000004 21.1 5.200000000000001Q 19 7.300000000000001 16 7.300000000000001Q 12.8 7.300000000000001 10.700000000000001 5.200000000000001ZM -21.1 5.2Q -23.3 3 -23.2 0Q -23.3 -2.9 -21.1 -5.1Q -18.900000000000002 -7.3 -15.900000000000002 -7.2Q -12.800000000000002 -7.3 -10.600000000000001 -5.1Q -8.500000000000002 -2.8999999999999995 -8.500000000000002 4.440892098500626e-16Q -8.500000000000002 3.0000000000000004 -10.600000000000001 5.200000000000001Q -12.8 7.300000000000001 -15.9 7.300000000000001Q -18.9 7.300000000000001 -21.099999999999998 5.200000000000001Z" style="fill:#000000;stroke:none;" id="shape_4" transform="matrix(1.0000,0.0000,0.0000,1.0000,398.2000,469.00)"></path></g><g id="container_10"></g></g></g><g id="hairs_container" transform="matrix(0.6450,0.0000,0.0000,0.6450,-258.0000,-360.00)"><g id="container_11"><g id="container_12"></g><g id="container_13"></g></g></g><g id="accessories_container" transform="matrix(0.6450,0.0000,0.0000,0.6450,-258.0000,-360.00)"><g id="container_14"><g id="container_15"><g id="container_16" opacity="0.0000" transform="matrix(1.0000,0.0000,0.0000,1.0000,199.5000,199.50)"><path d="M 200 0Q 200 40.6 184.3 77.80000000000001Q 169.10000000000002 113.70000000000002 141.3 141.4Q 113.70000000000002 169.1 77.80000000000001 184.29999999999998Q 40.60000000000001 199.99999999999997 7.105427357601002e-15 199.99999999999997Q -40.49999999999999 199.99999999999997 -77.69999999999999 184.29999999999998Q -113.6 169.1 -141.29999999999998 141.4Q -168.99999999999997 113.7 -184.19999999999996 77.80000000000001Q -199.89999999999995 40.60000000000001 -199.89999999999995 7.105427357601002e-15Q -199.89999999999995 -40.49999999999999 -184.19999999999996 -77.69999999999999Q -168.99999999999997 -113.6 -141.29999999999998 -141.29999999999998Q -113.59999999999998 -168.99999999999997 -77.69999999999999 -184.19999999999996Q -40.499999999999986 -199.89999999999995 1.4210854715202004e-14 -199.89999999999995Q 40.600000000000016 -199.89999999999995 77.80000000000001 -184.19999999999996Q 113.70000000000002 -168.99999999999997 141.3 -141.29999999999998Q 169.10000000000002 -113.59999999999998 184.3 -77.69999999999999Q 200 -40.499999999999986 200 1.4210854715202004e-14Z" style="fill:none;stroke:#231f20;" id="shape_5" transform="matrix(1.0000,0.0000,0.0000,1.0000,200.5000,200.50)"></path></g><path d="M -119.4 35Q -168.9 -14.299999999999997 -168.9 -84.39999999999999L 168.99999999999997 -84.39999999999999Q 168.99999999999997 -14.299999999999997 119.49999999999997 35Q 69.99999999999997 84.5 -2.842170943040401e-14 84.5Q -69.90000000000003 84.5 -119.40000000000003 35Z" style="fill:#000000;fill-opacity:0.004;stroke:none;" id="shape_6" transform="matrix(1.0000,0.0000,0.0000,1.0000,393.1000,371.60)"></path></g></g></g><g id="barbes_container" clip-path="url(#barbes_container_mask)" transform="matrix(0.6450,0.0000,0.0000,0.5775,0.0000,0.00)"><g id="container_17"><g id="container_18" transform="matrix(1.0000,0.0000,0.0000,1.0000,-0.4000,30.10)"></g></g></g></g><g id="legLeft" transform="matrix(0.1329,0.9911,-0.9911,0.1329,-34.5000,80.00)"><g id="flegLeft" transform="matrix(0.5358,-0.8443,0.8443,0.5358,6.9626,42.66)"><rect x="0" y="0" width="30.0" height="60.0" rx="15" style="fill:#475fc4;stroke:#000000;stroke-opacity:0;" id="fleg_left" transform="matrix(1.0000,0.0000,0.0000,1.0000,0.0000,-15.00)"></rect><g id="shoes_01" transform="matrix(-1.0000,0.0000,0.0000,1.0000,15.0000,45.00)"><g id="container_19" transform="matrix(0.6000,0.0000,0.0000,0.6000,0.0000,0.00)"><g id="container_20"><g id="container_21" transform="matrix(1.0000,0.0000,0.0000,1.0000,0.1000,-3.00)"><path d="M -34.7 15.3L -34.7 -15.3L 14.899999999999999 -15.3L 14.899999999999999 1.3999999999999986Q 34.5 2.6999999999999984 34.8 15.299999999999997Z" style="fill:#ffdeb8;stroke:none;" id="shape_7" transform="matrix(1.0000,0.0000,0.0000,1.0000,9.9000,-1.50)"></path></g></g></g></g></g><rect x="0" y="0" width="30.0" height="60.0" rx="15" style="fill:#475fc4;stroke:#000000;stroke-opacity:0;" id="leg_left" transform="matrix(1.0000,0.0000,0.0000,1.0000,0.0000,-15.00)"></rect></g><g id="legRight" transform="matrix(0.3558,-0.9346,0.9346,0.3558,34.5000,80.00)"><g id="flegRight" transform="matrix(0.3688,0.9295,-0.9295,0.3688,-9.4684,43.94)"><rect x="0" y="0" width="30.0" height="60.0" rx="15" style="fill:#475fc4;stroke:#000000;stroke-opacity:0;" id="fleg_right" transform="matrix(1.0000,0.0000,0.0000,1.0000,-30.0000,-15.00)"></rect><g id="shoes_02" transform="matrix(1.0000,0.0000,0.0000,1.0000,-15.0000,45.00)"><g id="container_22" transform="matrix(0.6000,0.0000,0.0000,0.6000,0.0000,0.00)"><g id="container_23"><g id="container_24" transform="matrix(1.0000,0.0000,0.0000,1.0000,0.1000,-3.00)"><path d="M -34.7 15.3L -34.7 -15.3L 14.899999999999999 -15.3L 14.899999999999999 1.3999999999999986Q 34.5 2.6999999999999984 34.8 15.299999999999997Z" style="fill:#ffdeb8;stroke:none;" id="shape_8" transform="matrix(1.0000,0.0000,0.0000,1.0000,9.9000,-1.50)"></path></g></g></g></g></g><rect x="0" y="0" width="30.0" height="60.0" rx="15" style="fill:#475fc4;stroke:#000000;stroke-opacity:0;" id="leg_right" transform="matrix(1.0000,0.0000,0.0000,1.0000,-30.0000,-15.00)"></rect></g><path d="M 0 34.5a34.5,34.5 0 0 1 34.5,-34.5h0a34.5,34.5 0 0 1 34.5,34.5v45.5a0,0 0 0 1 0,0h-69a0,0 0 0 1 0,0 z" style="fill:#622c9b;stroke:#000000;stroke-opacity:0;" id="gbody" transform="matrix(1.0000,0.0000,0.0000,1.0000,-34.5000,0.00)"></path><rect x="0" y="0" width="69" height="30" style="fill:#475fc4;stroke:#000000;stroke-opacity:0;" id="shape_9" transform="matrix(1.0000,0.0000,0.0000,1.0000,-34.5000,79.00)"></rect><g id="tops_container" transform="matrix(0.1725,0.0000,0.0000,0.1725,0.0000,0.00)"><g id="container_25"><g id="container_26" transform="matrix(1.0000,0.0000,0.0000,1.0000,-2.0000,0.00)"><g id="container_27"><path d="M -39.5 11Q -55.5 -4.800000000000001 -55.9 -27.3L 56.00000000000001 -27.3Q 55.60000000000001 -4.800000000000001 39.50000000000001 11Q 23.200000000000006 27.5 7.105427357601002e-15 27.5Q -23.099999999999994 27.5 -39.49999999999999 11Z" style="fill:#ffdeb8;stroke:none;" id="shape_10" transform="matrix(1.0000,0.0000,0.0000,1.0000,-1.9000,27.60)"></path></g></g></g></g><g id="armRight" transform="matrix(-0.2287,-0.9735,0.9735,-0.2287,34.5000,20.00)"><g id="farmRight" transform="matrix(0.5824,0.8129,-0.8129,0.5824,0.0000,35.00)"><rect x="0" y="0" width="30.0" height="65.0" rx="15" style="fill:#622c9b;stroke:#000000;stroke-opacity:0;" id="farm_right" transform="matrix(1.0000,0.0000,0.0000,1.0000,-15.0000,-15.00)"></rect><g id="hands_02" transform="matrix(1.0000,0.0000,0.0000,1.0000,0.0000,50.00)"><g id="container_28" transform="matrix(0.6000,0.0000,0.0000,0.6000,0.0000,0.00)"><g id="container_29" transform="matrix(1.0000,0.0000,0.0000,1.0000,-0.1000,-0.80)"><g id="container_30"><path d="M -17.6 17.4Q -24.8 10.099999999999998 -24.900000000000002 -0.10000000000000142L -24.900000000000002 -0.20000000000000143L -24.900000000000002 -24.6L 24.999999999999996 -24.6L 24.999999999999996 -0.20000000000000284L 24.999999999999996 -0.10000000000000284Q 24.899999999999995 10.099999999999996 17.699999999999996 17.399999999999995Q 10.299999999999995 24.699999999999996 -5.329070518200751e-15 24.699999999999996Q -10.200000000000005 24.699999999999996 -17.600000000000005 17.399999999999995Z" style="fill:#ffdeb8;stroke:none;" id="shape_11" transform="matrix(1.0000,0.0000,0.0000,1.0000,0.0000,0.20)"></path></g></g></g></g></g><rect x="0" y="0" width="30.0" height="65.0" rx="15" style="fill:#622c9b;stroke:#000000;stroke-opacity:0;" id="arm_right" transform="matrix(1.0000,0.0000,0.0000,1.0000,-15.0000,-15.00)"></rect></g><g id="armLeft" transform="matrix(-0.1295,0.9916,-0.9916,-0.1295,-34.5000,20.00)"><g id="farmLeft" transform="matrix(0.5358,-0.8443,0.8443,0.5358,0.0000,35.00)"><rect x="0" y="0" width="30.0" height="65.0" rx="15" style="fill:#622c9b;stroke:#000000;stroke-opacity:0;" id="farm_left" transform="matrix(1.0000,0.0000,0.0000,1.0000,-15.0000,-15.00)"></rect><g id="hands_01" transform="matrix(-1.0000,0.0000,0.0000,1.0000,0.0000,50.00)"><g id="container_31" transform="matrix(0.6000,0.0000,0.0000,0.6000,0.0000,0.00)"><g id="container_32" transform="matrix(1.0000,0.0000,0.0000,1.0000,-0.1000,-0.80)"><g id="container_33"><path d="M -17.6 17.4Q -24.8 10.099999999999998 -24.900000000000002 -0.10000000000000142L -24.900000000000002 -0.20000000000000143L -24.900000000000002 -24.6L 24.999999999999996 -24.6L 24.999999999999996 -0.20000000000000284L 24.999999999999996 -0.10000000000000284Q 24.899999999999995 10.099999999999996 17.699999999999996 17.399999999999995Q 10.299999999999995 24.699999999999996 -5.329070518200751e-15 24.699999999999996Q -10.200000000000005 24.699999999999996 -17.600000000000005 17.399999999999995Z" style="fill:#ffdeb8;stroke:none;" id="shape_12" transform="matrix(1.0000,0.0000,0.0000,1.0000,0.0000,0.20)"></path></g></g></g></g></g><rect x="0" y="0" width="30.0" height="65.0" rx="15" style="fill:#622c9b;stroke:#000000;stroke-opacity:0;" id="arm_left" transform="matrix(1.0000,0.0000,0.0000,1.0000,-15.0000,-15.00)"></rect></g></g></g></g></svg>