<?xml version="1.0" encoding="utf-8"?>
<!-- Generator: Adobe Illustrator 19.2.1, SVG Export Plug-In . SVG Version: 6.00 Build 0)  -->
<svg version="1.1" id="Calque_1" xmlns="http://www.w3.org/2000/svg" xmlns:xlink="http://www.w3.org/1999/xlink" x="0px" y="0px"
	 width="200px" height="200px" viewBox="0 0 200 200" style="enable-background:new 0 0 200 200;" xml:space="preserve">
<style type="text/css">
	.st0{fill:#FFDEB8;stroke:#000000;stroke-width:0.3683;stroke-opacity:0;}
	.st1{fill:none;stroke:#000000;stroke-width:1.8417;}
	.st2{opacity:0;}
	.st3{fill:none;stroke:#231F20;stroke-width:0.3683;}
	.st4{fill:#475FC4;stroke:#000000;stroke-width:0.3683;stroke-opacity:0;}
	.st5{fill:#FFDEB8;}
	.st6{fill:#622C9B;stroke:#000000;stroke-width:0.3683;stroke-opacity:0;}
</style>
<g id="container">
	<g id="container_1" transform="matrix(1.2700,0.0000,0.0000,1.2700,960.0000,500.10)">
		<g id="body" transform="matrix(0.9276,-0.3736,0.3736,0.9276,0.0000,0.00)">
			<g id="head" transform="matrix(0.9912,0.1323,-0.1323,0.9912,0.0000,0.00)">
				<g id="backhairs_container" transform="matrix(0.6450,0.0000,0.0000,0.6450,-258.0000,-360.00)">
					<g id="container_2">
						<g id="container_3">
						</g>
					</g>
				</g>
				<path id="ghead" class="st0" d="M-627.1-498.7c0-26.2,21.3-47.5,47.5-47.5l0,0c26.2,0,47.5,21.3,47.5,47.5l0,0
					c0,20.7-16.8,37.6-37.6,37.6h-19.9C-610.2-461.2-627.1-478-627.1-498.7z"/>
				<path id="neck" class="st0" d="M-583.2-462.3L-583.2-462.3h7.4l0,0v1.1c0,1.4-1.2,2.6-2.6,2.6h-2.2c-1.4,0-2.6-1.2-2.6-2.6
					V-462.3z"/>
				<g id="faces_container" transform="matrix(0.5775,0.0000,0.0000,0.5775,-231.0000,-346.50)">
					<g id="container_4">
						<g id="container_5">
							<path id="shape" d="M-586.7-259c-1.6-2.7-2.4-6-2.4-9.9c0-3.8,0.8-7.1,2.4-9.9c1.6-2.7,3.6-4.1,5.9-4.1
								c2.3,0,4.3,1.4,5.9,4.1c1.6,2.8,2.4,6,2.4,9.9c0,3.9-0.8,7.1-2.4,9.9c-1.6,2.8-3.6,4.1-5.9,4.1
								C-583.1-254.9-585.1-256.3-586.7-259z M-634.1-259c-1.6-2.7-2.4-6-2.4-9.9c0-3.8,0.8-7.1,2.4-9.9c1.6-2.7,3.6-4.1,5.9-4.1
								c2.3,0,4.2,1.4,5.8,4.1c1.6,2.8,2.5,6,2.5,9.9c0,3.9-0.8,7.1-2.5,9.9c-1.6,2.8-3.6,4.1-5.8,4.1
								C-630.6-254.9-632.5-256.3-634.1-259z"/>
						</g>
						<g id="container_6" transform="matrix(1.0000,0.0000,0.0000,1.0000,396.9000,345.10)">
						</g>
						<g id="container_7" transform="matrix(1.0000,0.0000,0.0000,1.0000,0.0000,-16.00)">
							<path id="shape_1" class="st1" d="M-635.5-216.1h62.6"/>
						</g>
						<g id="container_9" transform="matrix(1.0000,0.0000,0.0000,1.0000,0.0000,-20.00)">
							<path id="shape_4" d="M-600.3-232.3c-0.5-0.5-0.8-1.2-0.8-1.9c0-0.7,0.3-1.3,0.8-1.9c0.5-0.5,1.2-0.8,2-0.8
								c0.7,0,1.4,0.2,1.9,0.8c0.6,0.5,0.8,1.2,0.8,1.9c0,0.7-0.3,1.4-0.8,1.9c-0.5,0.5-1.1,0.8-1.9,0.8
								C-599.1-231.5-599.7-231.8-600.3-232.3z M-612-232.3c-0.5-0.5-0.8-1.2-0.8-1.9c0-0.7,0.2-1.3,0.8-1.9s1.2-0.8,1.9-0.8
								c0.8,0,1.4,0.2,2,0.8c0.5,0.5,0.8,1.2,0.8,1.9c0,0.7-0.3,1.4-0.8,1.9c-0.5,0.5-1.2,0.8-2,0.8
								C-610.8-231.5-611.4-231.8-612-232.3z"/>
						</g>
						<g id="container_10">
						</g>
					</g>
				</g>
				<g id="hairs_container" transform="matrix(0.6450,0.0000,0.0000,0.6450,-258.0000,-360.00)">
					<g id="container_11">
						<g id="container_12">
						</g>
						<g id="container_13">
						</g>
					</g>
				</g>
				<g id="accessories_container" transform="matrix(0.6450,0.0000,0.0000,0.6450,-258.0000,-360.00)">
					<g id="container_14">
						<g id="container_15">
							<g id="container_16" transform="matrix(1.0000,0.0000,0.0000,1.0000,199.5000,199.50)" class="st2">
								<path id="shape_5" class="st3" d="M-624.3-414.6c0,10-1.9,19.5-5.8,28.7c-3.7,8.8-9,16.6-15.8,23.4
									c-6.8,6.8-14.6,12.1-23.4,15.8c-9.1,3.9-18.7,5.8-28.7,5.8c-9.9,0-19.5-1.9-28.6-5.8c-8.8-3.7-16.6-9-23.4-15.8
									c-6.8-6.8-12.1-14.6-15.8-23.4c-3.9-9.1-5.8-18.7-5.8-28.7c0-9.9,1.9-19.5,5.8-28.6c3.7-8.8,9-16.6,15.8-23.4
									c6.8-6.8,14.6-12.1,23.4-15.8c9.1-3.9,18.7-5.8,28.6-5.8c10,0,19.5,1.9,28.7,5.8c8.8,3.7,16.6,9,23.4,15.8
									c6.8,6.8,12.1,14.6,15.8,23.4C-626.3-434.1-624.3-424.6-624.3-414.6z"/>
							</g>
						</g>
					</g>
				</g>
			</g>
			<g id="legLeft" transform="matrix(0.3551,0.9348,-0.9348,0.3551,-34.5000,80.00)">
				<g id="flegLeft" transform="matrix(0.9299,-0.3678,0.3678,0.9299,1.0514,35.52)">
					<path id="fleg_left" class="st4" d="M-749.9-57.3L-749.9-57.3c3.1,0,5.5,2.5,5.5,5.5v11.1c0,3.1-2.5,5.5-5.5,5.5l0,0
						c-3.1,0-5.5-2.5-5.5-5.5v-11.1C-755.4-54.9-752.9-57.3-749.9-57.3z"/>
					<g id="shoes_01" transform="matrix(-1.0000,0.0000,0.0000,1.0000,15.0000,45.00)">
						<g id="container_19" transform="matrix(0.6000,0.0000,0.0000,0.6000,0.0000,0.00)">
							<g id="container_20">
								<g id="container_21" transform="matrix(1.0000,0.0000,0.0000,1.0000,0.1000,-3.00)">
									<path id="shape_7" class="st5" d="M1265.6-126.7V-138h18.3v6.2c4.8,0.3,7.3,2,7.3,5.1H1265.6z"/>
								</g>
							</g>
						</g>
					</g>
				</g>
				<path id="leg_left" class="st4" d="M-715.3,246.6L-715.3,246.6c3.1,0,5.5,2.5,5.5,5.5v11.1c0,3.1-2.5,5.5-5.5,5.5l0,0
					c-3.1,0-5.5-2.5-5.5-5.5v-11.1C-720.8,249-718.4,246.6-715.3,246.6z"/>
			</g>
			<g id="legRight" transform="matrix(0.8915,-0.4531,0.4531,0.8915,34.5000,80.00)">
				<g id="flegRight" transform="matrix(0.5816,-0.8135,0.8135,0.5816,-6.2767,17.80)">
					<path id="fleg_right" class="st4" d="M503.4-625.6L503.4-625.6c3.1,0,5.5,2.5,5.5,5.5v11c0,3.1-2.5,5.5-5.5,5.5l0,0
						c-3.1,0-5.5-2.5-5.5-5.5v-11C497.9-623.1,500.3-625.6,503.4-625.6z"/>
					<g id="shoes_02" transform="matrix(1.0000,0.0000,0.0000,1.0000,-15.0000,45.00)">
						<g id="container_22" transform="matrix(0.6000,0.0000,0.0000,0.6000,0.0000,0.00)">
							<g id="container_23" transform="matrix(-1.0000,0.0000,0.0000,1.0000,0.0000,0.00)">
								<g id="container_24" transform="matrix(1.0000,0.0000,0.0000,1.0000,0.1000,-3.00)">
									<path id="shape_8" class="st5" d="M-873.2-1073.8v-11.3h18.3v6.2c4.8,0.3,7.3,2,7.3,5.1H-873.2z"/>
								</g>
							</g>
						</g>
					</g>
				</g>
				<path id="leg_right" class="st4" d="M-217.9-768.9L-217.9-768.9c3.1,0,5.5,2.5,5.5,5.5v11.1c0,3.1-2.5,5.5-5.5,5.5l0,0
					c-3.1,0-5.5-2.5-5.5-5.5v-11.1C-223.4-766.4-221-768.9-217.9-768.9z"/>
			</g>
			<path id="gbody" class="st6" d="M-526.1-521.1c0-7,5.7-12.7,12.7-12.7l0,0c7,0,12.7,5.7,12.7,12.7v16.8l0,0h-25.4l0,0V-521.1z"/>
			
				<rect id="shape_9" x="-526.1" y="-504.7" transform="matrix(0.2079 -0.9781 0.9781 0.2079 81.5908 -897.5781)" class="st4" width="25.4" height="11.1"/>
			<g id="tops_container" transform="matrix(0.1725,0.0000,0.0000,0.1725,0.0000,0.00)">
				<g id="container_25">
					<g id="container_26" transform="matrix(1.0000,0.0000,0.0000,1.0000,-2.0000,0.00)">
						<g id="container_27">
							<path id="shape_10" class="st5" d="M-2990.4-3080.2c-3.9-3.9-5.9-8.6-6-14.1h41.2c-0.1,5.5-2.1,10.2-6.1,14.1
								c-4,4.1-8.9,6.1-14.5,6.1C-2981.5-3074.2-2986.4-3076.2-2990.4-3080.2z"/>
						</g>
					</g>
				</g>
			</g>
			<g id="armRight" transform="matrix(0.4682,-0.8836,0.8836,0.4682,34.5000,20.00)">
				<g id="farmRight" transform="matrix(0.9963,-0.0858,0.0858,0.9963,0.0000,35.00)">
					<path id="farm_right" class="st6" d="M295.8-733.7L295.8-733.7c3.1,0,5.5,2.5,5.5,5.5v12.9c0,3.1-2.5,5.5-5.5,5.5l0,0
						c-3.1,0-5.5-2.5-5.5-5.5v-12.9C290.3-731.3,292.8-733.7,295.8-733.7z"/>
					<g id="hands_02" transform="matrix(1.0000,0.0000,0.0000,1.0000,0.0000,50.00)">
						<g id="container_28" transform="matrix(0.6000,0.0000,0.0000,0.6000,0.0000,0.00)">
							<g id="container_29" transform="matrix(1.0000,0.0000,0.0000,1.0000,-0.1000,-0.80)">
								<g id="container_30">
									<path id="shape_11" class="st5" d="M486.6-1259.3c-1.8-1.8-2.7-3.9-2.7-6.4v0v-9h18.4v9v0c0,2.5-0.9,4.7-2.7,6.4
										c-1.8,1.8-4,2.7-6.5,2.7C490.6-1256.6,488.4-1257.5,486.6-1259.3z"/>
								</g>
							</g>
						</g>
					</g>
				</g>
				<path id="arm_right" class="st6" d="M232.2-734.3L232.2-734.3c3.1,0,5.5,2.5,5.5,5.5v12.9c0,3.1-2.5,5.5-5.5,5.5l0,0
					c-3.1,0-5.5-2.5-5.5-5.5v-12.9C226.7-731.8,229.2-734.3,232.2-734.3z"/>
			</g>
			<g id="armLeft" transform="matrix(-0.0976,0.9952,-0.9952,-0.0976,-34.5000,20.00)">
				<g id="farmLeft" transform="matrix(0.8438,0.5367,-0.5367,0.8438,0.0000,35.00)">
					<path id="farm_left" class="st6" d="M-139,699.8L-139,699.8c3.1,0,5.5,2.5,5.5,5.5v12.9c0,3.1-2.5,5.5-5.5,5.5l0,0
						c-3.1,0-5.5-2.5-5.5-5.5v-12.9C-144.5,702.3-142.1,699.8-139,699.8z"/>
					<g id="hands_01" transform="matrix(-1.0000,0.0000,0.0000,1.0000,0.0000,50.00)">
						<g id="container_31" transform="matrix(0.6000,0.0000,0.0000,0.6000,0.0000,0.00)">
							<g id="container_32" transform="matrix(1.0000,0.0000,0.0000,1.0000,-0.1000,-0.80)">
								<g id="container_33">
									<path id="shape_12" class="st5" d="M225.3,1129.9c-1.8-1.8-2.7-3.9-2.7-6.4v0v-9H241v9v0c0,2.5-0.9,4.7-2.7,6.4
										c-1.8,1.8-4,2.7-6.5,2.7C229.3,1132.6,227.1,1131.7,225.3,1129.9z"/>
								</g>
							</g>
						</g>
					</g>
				</g>
				<path id="arm_left" class="st6" d="M-495.8,537.1L-495.8,537.1c3.1,0,5.5,2.5,5.5,5.5v12.9c0,3.1-2.5,5.5-5.5,5.5l0,0
					c-3.1,0-5.5-2.5-5.5-5.5v-12.9C-501.4,539.6-498.9,537.1-495.8,537.1z"/>
			</g>
		</g>
	</g>
</g>
</svg>
