<?xml version="1.0" encoding="utf-8"?>
<!-- Generator: Adobe Illustrator 19.2.1, SVG Export Plug-In . SVG Version: 6.00 Build 0)  -->
<svg version="1.1" id="Calque_1" xmlns="http://www.w3.org/2000/svg" xmlns:xlink="http://www.w3.org/1999/xlink" x="0px" y="0px"
	 width="200px" height="200px" viewBox="0 0 200 200" style="enable-background:new 0 0 200 200;" xml:space="preserve">
<style type="text/css">
	.st0{fill:#FFDEB8;stroke:#000000;stroke-width:0.3938;stroke-opacity:0;}
	.st1{fill:none;stroke:#000000;stroke-width:1.969;}
	.st2{fill:#475FC4;stroke:#000000;stroke-width:0.3938;stroke-opacity:0;}
	.st3{fill:#FFDEB8;}
	.st4{fill:#622C9B;stroke:#000000;stroke-width:0.3938;stroke-opacity:0;}
</style>
<g id="container">
	<g id="container_1" transform="matrix(1.2700,0.0000,0.0000,1.2700,960.0000,500.10)">
		<g id="body" transform="matrix(0.9994,0.0356,-0.0356,0.9994,0.0000,0.00)">
			<g id="head" transform="matrix(0.9999,0.0140,-0.0140,0.9999,0.0000,0.00)">
				<g id="backhairs_container" transform="matrix(0.6450,0.0000,0.0000,0.6450,-258.0000,-360.00)">
					<g id="container_2">
						<g id="container_3">
						</g>
					</g>
				</g>
				<path id="ghead" class="st0" d="M-744-306.9c0-28.1,22.7-50.8,50.8-50.8l0,0c28.1,0,50.8,22.7,50.8,50.8l0,0
					c0,22.2-18,40.2-40.2,40.2h-21.3C-726-266.8-744-284.8-744-306.9z"/>
				<path id="neck" class="st0" d="M-697.2-268L-697.2-268h7.9l0,0v1.2c0,1.5-1.2,2.8-2.8,2.8h-2.4c-1.5,0-2.8-1.2-2.8-2.8V-268z"/>
				<g id="faces_container" transform="matrix(0.5775,0.0000,0.0000,0.5775,-231.0000,-346.50)">
					<g id="container_4">
						<g id="container_5">
							<path id="shape" d="M-782.4,73.4c-1.7-2.9-2.6-6.4-2.6-10.6c0-4.1,0.9-7.6,2.6-10.6c1.7-2.9,3.8-4.3,6.3-4.3
								c2.5,0,4.6,1.4,6.3,4.3c1.7,2.9,2.6,6.5,2.6,10.6c0,4.1-0.8,7.6-2.6,10.6c-1.7,2.9-3.8,4.4-6.3,4.4
								C-778.6,77.8-780.7,76.4-782.4,73.4z M-833.1,73.4c-1.7-2.9-2.6-6.4-2.6-10.6c0-4.1,0.9-7.6,2.6-10.6
								c1.7-2.9,3.8-4.3,6.3-4.3c2.4,0,4.5,1.4,6.2,4.3c1.8,2.9,2.6,6.5,2.6,10.6c0,4.1-0.9,7.6-2.6,10.6c-1.7,2.9-3.8,4.4-6.2,4.4
								C-829.3,77.8-831.4,76.4-833.1,73.4z"/>
						</g>
						<g id="container_6" transform="matrix(1.0000,0.0000,0.0000,1.0000,396.9000,345.10)">
						</g>
						<g id="container_7" transform="matrix(1.0000,0.0000,0.0000,1.0000,0.0000,-16.00)">
							<path id="shape_1" class="st1" d="M-834.6,118.3h66.9"/>
						</g>
						<g id="container_9" transform="matrix(1.0000,0.0000,0.0000,1.0000,0.0000,-20.00)">
							<path id="shape_4" d="M-796.9,100.6c-0.6-0.6-0.9-1.3-0.9-2c0-0.8,0.3-1.4,0.9-2c0.6-0.6,1.2-0.9,2.1-0.8
								c0.8,0,1.5,0.2,2,0.8c0.6,0.6,0.9,1.2,0.9,2c0,0.8-0.3,1.5-0.9,2c-0.6,0.6-1.2,0.8-2,0.8
								C-795.6,101.5-796.3,101.2-796.9,100.6z M-809.4,100.6c-0.6-0.6-0.9-1.3-0.8-2c0-0.8,0.2-1.4,0.8-2c0.6-0.6,1.3-0.9,2-0.8
								c0.8,0,1.5,0.2,2.1,0.8c0.6,0.6,0.8,1.2,0.8,2c0,0.8-0.3,1.5-0.8,2c-0.6,0.6-1.3,0.8-2.1,0.8
								C-808.1,101.5-808.8,101.2-809.4,100.6z"/>
						</g>
						<g id="container_10">
						</g>
					</g>
				</g>
				<g id="hairs_container" transform="matrix(0.6450,0.0000,0.0000,0.6450,-258.0000,-360.00)">
					<g id="container_11">
						<g id="container_12">
						</g>
						<g id="container_13">
						</g>
					</g>
				</g>
			</g>
			<g id="legLeft" transform="matrix(0.1329,0.9911,-0.9911,0.1329,-34.5000,80.00)">
				<g id="flegLeft" transform="matrix(0.5358,-0.8443,0.8443,0.5358,6.9626,42.66)">
					<path id="fleg_left" class="st2" d="M-717.7-38.4L-717.7-38.4c3.3,0,5.9,2.6,5.9,5.9v11.8c0,3.3-2.6,5.9-5.9,5.9l0,0
						c-3.3,0-5.9-2.6-5.9-5.9v-11.8C-723.6-35.7-721-38.4-717.7-38.4z"/>
					<g id="shoes_01" transform="matrix(-1.0000,0.0000,0.0000,1.0000,15.0000,45.00)">
						<g id="container_19" transform="matrix(0.6000,0.0000,0.0000,0.6000,0.0000,0.00)">
							<g id="container_20">
								<g id="container_21" transform="matrix(1.0000,0.0000,0.0000,1.0000,0.1000,-3.00)">
									<path id="shape_7" class="st3" d="M1211.4-92.4v-12.1h19.5v6.6c5.1,0.3,7.8,2.2,7.8,5.5H1211.4z"/>
								</g>
							</g>
						</g>
					</g>
				</g>
				<path id="leg_left" class="st2" d="M-405,613.5L-405,613.5c3.3,0,5.9,2.6,5.9,5.9v11.8c0,3.3-2.6,5.9-5.9,5.9l0,0
					c-3.3,0-5.9-2.6-5.9-5.9v-11.8C-410.9,616.1-408.3,613.5-405,613.5z"/>
			</g>
			<g id="legRight" transform="matrix(0.3558,-0.9346,0.9346,0.3558,34.5000,80.00)">
				<g id="flegRight" transform="matrix(0.3688,0.9295,-0.9295,0.3688,-9.4684,43.94)">
					<path id="fleg_right" class="st2" d="M-734.3-355.9L-734.3-355.9c3.3,0,5.9,2.6,5.9,5.9v11.8c0,3.3-2.6,5.9-5.9,5.9l0,0
						c-3.3,0-5.9-2.6-5.9-5.9V-350C-740.2-353.2-737.5-355.9-734.3-355.9z"/>
					<g id="shoes_02" transform="matrix(1.0000,0.0000,0.0000,1.0000,-15.0000,45.00)">
						<g id="container_22" transform="matrix(0.6000,0.0000,0.0000,0.6000,0.0000,0.00)">
							<g id="container_23">
								<g id="container_24" transform="matrix(1.0000,0.0000,0.0000,1.0000,0.1000,-3.00)">
									<path id="shape_8" class="st3" d="M-1208.6-621.5v-12.1h19.5v6.6c5.1,0.3,7.8,2.2,7.8,5.5H-1208.6z"/>
								</g>
							</g>
						</g>
					</g>
				</g>
				<path id="leg_right" class="st2" d="M45-785.3L45-785.3c3.3,0,5.9,2.6,5.9,5.9v11.8c0,3.3-2.6,5.9-5.9,5.9l0,0
					c-3.3,0-5.9-2.6-5.9-5.9v-11.8C39.1-782.7,41.8-785.3,45-785.3z"/>
			</g>
			<path id="gbody" class="st4" d="M-703-262.9c0-7.5,6.1-13.6,13.6-13.6l0,0c7.5,0,13.6,6.1,13.6,13.6v17.9l0,0H-703l0,0V-262.9z"
				/>
			
				<rect id="shape_9" x="-695.3" y="-253" transform="matrix(-0.8049 0.5934 -0.5934 -0.8049 -1386.4294 -23.0908)" class="st2" width="11.8" height="27.2"/>
			<g id="tops_container" transform="matrix(0.1725,0.0000,0.0000,0.1725,0.0000,0.00)">
				<g id="container_25">
					<g id="container_26" transform="matrix(1.0000,0.0000,0.0000,1.0000,-2.0000,0.00)">
						<g id="container_27">
							<path id="shape_10" class="st3" d="M-4011.7-1587.4c-4.2-4.1-6.4-9.2-6.5-15.1h44.1c-0.1,5.9-2.3,10.9-6.5,15.1
								c-4.3,4.3-9.5,6.5-15.6,6.5C-4002.2-1580.9-4007.4-1583.1-4011.7-1587.4z"/>
						</g>
					</g>
				</g>
			</g>
			<g id="armRight" transform="matrix(-0.2287,-0.9735,0.9735,-0.2287,34.5000,20.00)">
				<g id="farmRight" transform="matrix(0.5824,0.8129,-0.8129,0.5824,0.0000,35.00)">
					<path id="farm_right" class="st4" d="M-267.5-743L-267.5-743c3.3,0,5.9,2.6,5.9,5.9v13.8c0,3.3-2.6,5.9-5.9,5.9l0,0
						c-3.3,0-5.9-2.6-5.9-5.9v-13.8C-273.4-740.3-270.8-743-267.5-743z"/>
					<g id="hands_02" transform="matrix(1.0000,0.0000,0.0000,1.0000,0.0000,50.00)">
						<g id="container_28" transform="matrix(0.6000,0.0000,0.0000,0.6000,0.0000,0.00)">
							<g id="container_29" transform="matrix(1.0000,0.0000,0.0000,1.0000,-0.1000,-0.80)">
								<g id="container_30">
									<path id="shape_11" class="st3" d="M-452.7-1271.6c-1.9-1.9-2.8-4.2-2.9-6.9v0v-9.6h19.7v9.6v0c0,2.7-1,5-2.9,6.9
										c-1.9,1.9-4.3,2.9-7,2.9C-448.4-1268.7-450.8-1269.6-452.7-1271.6z"/>
								</g>
							</g>
						</g>
					</g>
				</g>
				<path id="arm_right" class="st4" d="M443.4-631.4L443.4-631.4c3.3,0,5.9,2.6,5.9,5.9v13.8c0,3.3-2.6,5.9-5.9,5.9l0,0
					c-3.3,0-5.9-2.6-5.9-5.9v-13.8C437.5-628.8,440.1-631.4,443.4-631.4z"/>
			</g>
			<g id="armLeft" transform="matrix(-0.1295,0.9916,-0.9916,-0.1295,-34.5000,20.00)">
				<g id="farmLeft" transform="matrix(0.5358,-0.8443,0.8443,0.5358,0.0000,35.00)">
					<path id="farm_left" class="st4" d="M-680.3,189.4L-680.3,189.4c3.3,0,5.9,2.6,5.9,5.9v13.8c0,3.3-2.6,5.9-5.9,5.9l0,0
						c-3.3,0-5.9-2.6-5.9-5.9v-13.8C-686.2,192.1-683.5,189.4-680.3,189.4z"/>
					<g id="hands_01" transform="matrix(-1.0000,0.0000,0.0000,1.0000,0.0000,50.00)">
						<g id="container_31" transform="matrix(0.6000,0.0000,0.0000,0.6000,0.0000,0.00)">
							<g id="container_32" transform="matrix(1.0000,0.0000,0.0000,1.0000,-0.1000,-0.80)">
								<g id="container_33">
									<path id="shape_12" class="st3" d="M1126.9,282.5c-1.9-1.9-2.8-4.2-2.9-6.9v0v-9.6h19.7v9.6v0c0,2.7-1,5-2.9,6.9
										c-1.9,1.9-4.3,2.9-7,2.9C1131.2,285.3,1128.9,284.4,1126.9,282.5z"/>
								</g>
							</g>
						</g>
					</g>
				</g>
				<path id="arm_left" class="st4" d="M-199.6,694.3L-199.6,694.3c3.3,0,5.9,2.6,5.9,5.9V714c0,3.3-2.6,5.9-5.9,5.9l0,0
					c-3.3,0-5.9-2.6-5.9-5.9v-13.8C-205.5,697-202.8,694.3-199.6,694.3z"/>
			</g>
		</g>
	</g>
</g>
</svg>
