<?xml version="1.0" encoding="utf-8"?>
<!-- Generator: Adobe Illustrator 19.2.1, SVG Export Plug-In . SVG Version: 6.00 Build 0)  -->
<svg version="1.1" id="Calque_1" xmlns="http://www.w3.org/2000/svg" xmlns:xlink="http://www.w3.org/1999/xlink" x="0px" y="0px"
	 width="200px" height="200px" viewBox="0 0 200 200" style="enable-background:new 0 0 200 200;" xml:space="preserve">
<style type="text/css">
	.st0{fill:#FFDEB8;stroke:#000000;stroke-width:0.3926;stroke-opacity:0;}
	.st1{fill:none;stroke:#000000;stroke-width:1.9632;}
	.st2{fill:#475FC4;stroke:#000000;stroke-width:0.3926;stroke-opacity:0;}
	.st3{fill:#FFDEB8;}
	.st4{fill:#622C9B;stroke:#000000;stroke-width:0.3926;stroke-opacity:0;}
</style>
<g id="container">
	<g id="container_1" transform="matrix(1.2700,0.0000,0.0000,1.2700,960.0000,500.10)">
		<g id="body" transform="matrix(-0.1771,0.9842,-0.9842,-0.1771,0.0000,0.00)">
			<g id="head" transform="matrix(0.9581,-0.2864,0.2864,0.9581,0.0000,0.00)">
				<g id="backhairs_container" transform="matrix(0.6450,0.0000,0.0000,0.6450,-258.0000,-360.00)">
					<g id="container_2">
						<g id="container_3">
						</g>
					</g>
				</g>
				<path id="ghead" class="st0" d="M-421.5,614.6c0-28,22.7-50.7,50.7-50.7l0,0c28,0,50.7,22.7,50.7,50.7l0,0c0,22.1-17.9,40-40,40
					h-21.2C-403.6,654.7-421.5,636.7-421.5,614.6z"/>
				<path id="neck" class="st0" d="M-374.8,653.5L-374.8,653.5h7.9l0,0v1.2c0,1.5-1.2,2.7-2.7,2.7h-2.4c-1.5,0-2.7-1.2-2.7-2.7
					V653.5z"/>
				<g id="faces_container" transform="matrix(0.5775,0.0000,0.0000,0.5775,-231.0000,-346.50)">
					<g id="container_4">
						<g id="container_5">
							<path id="shape" d="M-224.3,1669.2c-1.7-2.9-2.6-6.4-2.6-10.5c0-4.1,0.9-7.6,2.6-10.5c1.7-2.9,3.8-4.3,6.2-4.3
								c2.5,0,4.6,1.4,6.3,4.3c1.7,2.9,2.6,6.4,2.6,10.5c0,4.1-0.8,7.6-2.6,10.5c-1.7,2.9-3.8,4.4-6.3,4.4
								C-220.5,1673.6-222.6,1672.1-224.3,1669.2z M-274.9,1669.2c-1.7-2.9-2.6-6.4-2.6-10.5c0-4.1,0.9-7.6,2.6-10.5
								c1.7-2.9,3.8-4.3,6.3-4.3c2.4,0,4.5,1.4,6.2,4.3c1.8,2.9,2.6,6.4,2.6,10.5c0,4.1-0.9,7.6-2.6,10.5c-1.7,2.9-3.8,4.4-6.2,4.4
								C-271,1673.6-273.1,1672.1-274.9,1669.2z"/>
						</g>
						<g id="container_6" transform="matrix(1.0000,0.0000,0.0000,1.0000,396.9000,345.10)">
						</g>
						<g id="container_7" transform="matrix(1.0000,0.0000,0.0000,1.0000,0.0000,-16.00)">
							<path id="shape_1" class="st1" d="M-276.3,1713.9h66.7"/>
						</g>
						<g id="container_9" transform="matrix(1.0000,0.0000,0.0000,1.0000,0.0000,-20.00)">
							<path id="shape_4" d="M-238.7,1696.4c-0.6-0.6-0.9-1.3-0.9-2c0-0.8,0.3-1.4,0.9-2c0.5-0.6,1.2-0.9,2.1-0.8
								c0.8,0,1.5,0.2,2,0.8c0.6,0.6,0.9,1.2,0.9,2c0,0.8-0.3,1.5-0.9,2c-0.5,0.5-1.2,0.8-2,0.8
								C-237.5,1697.2-238.2,1696.9-238.7,1696.4z M-251.2,1696.4c-0.6-0.6-0.9-1.3-0.8-2c0-0.8,0.2-1.4,0.8-2
								c0.6-0.6,1.3-0.9,2-0.8c0.8,0,1.5,0.2,2.1,0.8c0.5,0.6,0.8,1.2,0.8,2c0,0.8-0.3,1.5-0.8,2c-0.6,0.5-1.3,0.8-2.1,0.8
								C-250,1697.2-250.6,1696.9-251.2,1696.4z"/>
						</g>
						<g id="container_10">
						</g>
					</g>
				</g>
				<g id="hairs_container" transform="matrix(0.6450,0.0000,0.0000,0.6450,-258.0000,-360.00)">
					<g id="container_11">
						<g id="container_12">
						</g>
						<g id="container_13">
						</g>
					</g>
				</g>
			</g>
			<g id="legLeft" transform="matrix(0.2300,0.9732,-0.9732,0.2300,-34.5000,80.00)">
				<g id="flegLeft" transform="matrix(0.6304,0.7763,-0.7763,0.6304,5.5439,18.36)">
					<path id="fleg_left" class="st2" d="M627.2-312.1L627.2-312.1c3.3,0,5.9,2.6,5.9,5.9v11.8c0,3.3-2.6,5.9-5.9,5.9l0,0
						c-3.3,0-5.9-2.6-5.9-5.9v-11.8C621.3-309.4,624-312.1,627.2-312.1z"/>
					<g id="shoes_01" transform="matrix(-1.0000,0.0000,0.0000,1.0000,15.0000,45.00)">
						<g id="container_19" transform="matrix(0.6000,0.0000,0.0000,0.6000,0.0000,0.00)">
							<g id="container_20">
								<g id="container_21" transform="matrix(1.0000,0.0000,0.0000,1.0000,0.1000,-3.00)">
									<path id="shape_7" class="st3" d="M-1030.1-548.6v-12h19.5v6.6c5.1,0.3,7.7,2.2,7.8,5.5H-1030.1z"/>
								</g>
							</g>
						</g>
					</g>
				</g>
				<path id="leg_left" class="st2" d="M638.6,294.6L638.6,294.6c3.3,0,5.9,2.6,5.9,5.9v11.8c0,3.3-2.6,5.9-5.9,5.9l0,0
					c-3.3,0-5.9-2.6-5.9-5.9v-11.8C632.7,297.2,635.4,294.6,638.6,294.6z"/>
			</g>
			<g id="legRight" transform="matrix(0.9979,0.0649,-0.0649,0.9979,34.5000,80.00)">
				<g id="flegRight" transform="matrix(0.5959,0.8030,-0.8030,0.5959,-6.0608,42.05)">
					<path id="fleg_right" class="st2" d="M448.7,506.1L448.7,506.1c3.3,0,5.9,2.6,5.9,5.9v11.8c0,3.3-2.6,5.9-5.9,5.9l0,0
						c-3.3,0-5.9-2.6-5.9-5.9V512C442.8,508.8,445.4,506.1,448.7,506.1z"/>
					<g id="shoes_02" transform="matrix(1.0000,0.0000,0.0000,1.0000,-15.0000,45.00)">
						<g id="container_22" transform="matrix(0.6000,0.0000,0.0000,0.6000,0.0000,0.00)">
							<g id="container_23">
								<g id="container_24" transform="matrix(1.0000,0.0000,0.0000,1.0000,0.1000,-3.00)">
									<path id="shape_8" class="st3" d="M763,815.1v-12h19.5v6.6c5.1,0.3,7.7,2.2,7.8,5.5H763z"/>
								</g>
							</g>
						</g>
					</g>
				</g>
				<path id="leg_right" class="st2" d="M-149.8,689.8L-149.8,689.8c3.3,0,5.9,2.6,5.9,5.9v11.8c0,3.3-2.6,5.9-5.9,5.9l0,0
					c-3.3,0-5.9-2.6-5.9-5.9v-11.8C-155.7,692.4-153.1,689.8-149.8,689.8z"/>
			</g>
			<path id="gbody" class="st4" d="M-181.4,747c0-7.5,6.1-13.5,13.5-13.5l0,0c7.5,0,13.5,6.1,13.5,13.5v17.9l0,0h-27.1l0,0V747z"/>
			
				<rect id="shape_9" x="-181.4" y="764.5" transform="matrix(-9.845906e-02 0.9951 -0.9951 -9.845906e-02 582.2549 1013.2571)" class="st2" width="27.1" height="11.8"/>
			<g id="tops_container" transform="matrix(0.1725,0.0000,0.0000,0.1725,0.0000,0.00)">
				<g id="container_25">
					<g id="container_26" transform="matrix(1.0000,0.0000,0.0000,1.0000,-2.0000,0.00)">
						<g id="container_27">
							<path id="shape_10" class="st3" d="M-988.1,4267.1c-4.2-4.1-6.3-9.1-6.4-15h43.9c-0.1,5.9-2.3,10.9-6.5,15
								c-4.3,4.3-9.4,6.5-15.5,6.5C-978.6,4273.6-983.8,4271.4-988.1,4267.1z"/>
						</g>
					</g>
				</g>
			</g>
			<g id="armRight" transform="matrix(-0.2065,-0.9784,0.9784,-0.2065,34.5000,20.00)">
				<g id="farmRight" transform="matrix(1.0000,0.0024,-0.0024,1.0000,0.0000,35.00)">
					<path id="farm_right" class="st4" d="M-667.7-359.3L-667.7-359.3c3.3,0,5.9,2.6,5.9,5.9v13.7c0,3.3-2.6,5.9-5.9,5.9l0,0
						c-3.3,0-5.9-2.6-5.9-5.9v-13.7C-673.5-356.6-670.9-359.3-667.7-359.3z"/>
					<g id="hands_02" transform="matrix(1.0000,0.0000,0.0000,1.0000,0.0000,50.00)">
						<g id="container_28" transform="matrix(0.6000,0.0000,0.0000,0.6000,0.0000,0.00)">
							<g id="container_29" transform="matrix(1.0000,0.0000,0.0000,1.0000,-0.1000,-0.80)">
								<g id="container_30">
									<path id="shape_11" class="st3" d="M-1119.6-632.2c-1.9-1.9-2.8-4.2-2.9-6.9v0v-9.6h19.6v9.6v0c0,2.7-1,5-2.9,6.9
										c-1.9,1.9-4.3,2.9-6.9,2.9C-1115.4-629.3-1117.7-630.2-1119.6-632.2z"/>
								</g>
							</g>
						</g>
					</g>
				</g>
				<path id="arm_right" class="st4" d="M-666.8-339.6L-666.8-339.6c3.3,0,5.9,2.6,5.9,5.9v13.7c0,3.3-2.6,5.9-5.9,5.9l0,0
					c-3.3,0-5.9-2.6-5.9-5.9v-13.7C-672.7-337-670.1-339.6-666.8-339.6z"/>
			</g>
			<g id="armLeft" transform="matrix(0.1052,0.9944,-0.9944,0.1052,-34.5000,20.00)">
				<g id="farmLeft" transform="matrix(0.8051,-0.5931,0.5931,0.8051,0.0000,35.00)">
					<path id="farm_left" class="st4" d="M446.1,572L446.1,572c3.3,0,5.9,2.6,5.9,5.9v13.7c0,3.3-2.6,5.9-5.9,5.9l0,0
						c-3.3,0-5.9-2.6-5.9-5.9v-13.7C440.2,574.7,442.8,572,446.1,572z"/>
					<g id="hands_01" transform="matrix(-1.0000,0.0000,0.0000,1.0000,0.0000,50.00)">
						<g id="container_31" transform="matrix(0.6000,0.0000,0.0000,0.6000,0.0000,0.00)">
							<g id="container_32" transform="matrix(1.0000,0.0000,0.0000,1.0000,-0.1000,-0.80)">
								<g id="container_33">
									<path id="shape_12" class="st3" d="M-750.3,920c-1.9-1.9-2.8-4.2-2.9-6.9v0v-9.6h19.6v9.6v0c0,2.7-1,5-2.9,6.9
										c-1.9,1.9-4.3,2.9-6.9,2.9C-746.1,922.9-748.4,921.9-750.3,920z"/>
								</g>
							</g>
						</g>
					</g>
				</g>
				<path id="arm_left" class="st4" d="M701.9,216.1L701.9,216.1c3.3,0,5.9,2.6,5.9,5.9v13.7c0,3.3-2.6,5.9-5.9,5.9l0,0
					c-3.3,0-5.9-2.6-5.9-5.9V222C696,218.7,698.6,216.1,701.9,216.1z"/>
			</g>
		</g>
	</g>
</g>
</svg>
