<?xml version="1.0" encoding="utf-8"?>
<!-- Generator: Adobe Illustrator 19.2.1, SVG Export Plug-In . SVG Version: 6.00 Build 0)  -->
<svg version="1.1" id="Calque_1" xmlns="http://www.w3.org/2000/svg" xmlns:xlink="http://www.w3.org/1999/xlink" x="0px" y="0px"
	 width="200px" height="200px" viewBox="0 0 200 200" style="enable-background:new 0 0 200 200;" xml:space="preserve">
<style type="text/css">
	.st0{fill:#FFDEB8;stroke:#000000;stroke-width:0.3786;stroke-opacity:0;}
	.st1{fill:none;stroke:#000000;stroke-width:1.8929;}
	.st2{fill:#475FC4;stroke:#000000;stroke-width:0.3786;stroke-opacity:0;}
	.st3{fill:#FFDEB8;}
	.st4{fill:#622C9B;stroke:#000000;stroke-width:0.3786;stroke-opacity:0;}
</style>
<g id="container">
	<g id="container_1" transform="matrix(1.2700,0.0000,0.0000,1.2700,960.0000,500.10)">
		<g id="body" transform="matrix(0.9996,-0.0265,0.0265,0.9996,0.0000,0.00)">
			<g id="head" transform="matrix(0.9910,-0.1336,0.1336,0.9910,0.0000,0.00)">
				<g id="backhairs_container" transform="matrix(0.6450,0.0000,0.0000,0.6450,-258.0000,-360.00)">
					<g id="container_2">
						<g id="container_3">
						</g>
					</g>
				</g>
				<path id="ghead" class="st0" d="M-665.3-442c0-27,21.9-48.8,48.8-48.8l0,0c27,0,48.8,21.9,48.8,48.8l0,0
					c0,21.3-17.3,38.6-38.6,38.6h-20.4C-648-403.3-665.3-420.6-665.3-442z"/>
				<path id="neck" class="st0" d="M-620.2-404.5L-620.2-404.5h7.6l0,0v1.1c0,1.5-1.2,2.7-2.7,2.7h-2.3c-1.5,0-2.7-1.2-2.7-2.7
					V-404.5z"/>
				<g id="faces_container" transform="matrix(0.5775,0.0000,0.0000,0.5775,-231.0000,-346.50)">
					<g id="container_4">
						<g id="container_5">
							<path id="shape" d="M-650.1-160.5c-1.7-2.8-2.5-6.2-2.5-10.1c0-3.9,0.8-7.3,2.5-10.1c1.7-2.8,3.7-4.2,6-4.2
								c2.4,0,4.4,1.4,6.1,4.2c1.7,2.8,2.5,6.2,2.5,10.1c0,4-0.8,7.3-2.5,10.1c-1.7,2.8-3.7,4.2-6.1,4.2
								C-646.4-156.3-648.4-157.7-650.1-160.5z M-698.9-160.5c-1.6-2.8-2.5-6.2-2.5-10.1c0-3.9,0.8-7.3,2.5-10.1
								c1.7-2.8,3.7-4.2,6.1-4.2c2.3,0,4.3,1.4,6,4.2c1.7,2.8,2.5,6.2,2.5,10.1c0,4-0.8,7.3-2.5,10.1c-1.7,2.8-3.7,4.2-6,4.2
								C-695.2-156.3-697.2-157.7-698.9-160.5z"/>
						</g>
						<g id="container_6" transform="matrix(1.0000,0.0000,0.0000,1.0000,396.9000,345.10)">
						</g>
						<g id="container_7" transform="matrix(1.0000,0.0000,0.0000,1.0000,0.0000,-16.00)">
							<path id="shape_1" class="st1" d="M-700.3-116.8h64.3"/>
						</g>
						<g id="container_9" transform="matrix(1.0000,0.0000,0.0000,1.0000,0.0000,-20.00)">
							<path id="shape_4" d="M-664-133.6c-0.6-0.6-0.8-1.2-0.8-2c0-0.7,0.3-1.4,0.8-1.9c0.5-0.6,1.2-0.8,2-0.8
								c0.8,0,1.4,0.2,1.9,0.8c0.6,0.6,0.9,1.2,0.9,1.9c0,0.8-0.3,1.4-0.9,2c-0.5,0.5-1.2,0.8-1.9,0.8
								C-662.8-132.8-663.5-133.1-664-133.6z M-676.1-133.6c-0.6-0.6-0.8-1.2-0.8-2c0-0.7,0.2-1.4,0.8-1.9c0.6-0.6,1.2-0.8,2-0.8
								c0.8,0,1.5,0.2,2,0.8c0.5,0.6,0.8,1.2,0.8,1.9c0,0.8-0.3,1.4-0.8,2c-0.6,0.5-1.2,0.8-2,0.8
								C-674.9-132.8-675.5-133.1-676.1-133.6z"/>
						</g>
						<g id="container_10">
						</g>
					</g>
				</g>
				<g id="hairs_container" transform="matrix(0.6450,0.0000,0.0000,0.6450,-258.0000,-360.00)">
					<g id="container_11">
						<g id="container_12">
						</g>
						<g id="container_13">
						</g>
					</g>
				</g>
			</g>
			<g id="legLeft" transform="matrix(0.4346,0.9006,-0.9006,0.4346,-34.5000,80.00)">
				<g id="flegLeft" transform="matrix(0.7385,0.6743,-0.6743,0.7385,3.9232,19.89)">
					<path id="fleg_left" class="st2" d="M-172,708.3L-172,708.3c3.1,0,5.7,2.5,5.7,5.7v11.4c0,3.1-2.5,5.7-5.7,5.7l0,0
						c-3.1,0-5.7-2.5-5.7-5.7V714C-177.6,710.9-175.1,708.3-172,708.3z"/>
					<g id="shoes_01" transform="matrix(-1.0000,0.0000,0.0000,1.0000,15.0000,45.00)">
						<g id="container_19" transform="matrix(0.6000,0.0000,0.0000,0.6000,0.0000,0.00)">
							<g id="container_20" transform="matrix(-1.0000,0.0000,0.0000,1.0000,0.0000,0.00)">
								<g id="container_21" transform="matrix(1.0000,0.0000,0.0000,1.0000,0.1000,-3.00)">
									<path id="shape_7" class="st3" d="M-321,1150.5v-11.6h18.8v6.3c4.9,0.3,7.5,2.1,7.5,5.3H-321z"/>
								</g>
							</g>
						</g>
					</g>
				</g>
				<path id="leg_left" class="st2" d="M-604.5,414.2L-604.5,414.2c3.1,0,5.7,2.5,5.7,5.7v11.4c0,3.1-2.5,5.7-5.7,5.7l0,0
					c-3.1,0-5.7-2.5-5.7-5.7v-11.4C-610.2,416.7-607.7,414.2-604.5,414.2z"/>
			</g>
			<g id="legRight" transform="matrix(1.0000,0.0028,-0.0028,1.0000,34.5000,80.00)">
				<g id="flegRight" transform="matrix(0.9999,0.0168,-0.0168,0.9999,-0.0021,30.25)">
					<path id="fleg_right" class="st2" d="M-699.2-378L-699.2-378c3.1,0,5.7,2.5,5.7,5.7v11.4c0,3.1-2.5,5.7-5.7,5.7l0,0
						c-3.1,0-5.7-2.5-5.7-5.7v-11.4C-704.9-375.5-702.4-378-699.2-378z"/>
					<g id="shoes_02" transform="matrix(1.0000,0.0000,0.0000,1.0000,-15.0000,45.00)">
						<g id="container_22" transform="matrix(0.6000,0.0000,0.0000,0.6000,0.0000,0.00)">
							<g id="container_23">
								<g id="container_24" transform="matrix(1.0000,0.0000,0.0000,1.0000,0.1000,-3.00)">
									<path id="shape_8" class="st3" d="M-1149.8-660.1v-11.6h18.8v6.3c4.9,0.3,7.5,2.1,7.5,5.3H-1149.8z"/>
								</g>
							</g>
						</g>
					</g>
				</g>
				<path id="leg_right" class="st2" d="M-692.9-370.8L-692.9-370.8c3.1,0,5.7,2.5,5.7,5.7v11.4c0,3.1-2.5,5.7-5.7,5.7l0,0
					c-3.1,0-5.7-2.5-5.7-5.7v-11.4C-698.6-368.3-696-370.8-692.9-370.8z"/>
			</g>
			<path id="gbody" class="st4" d="M-677.8-304.3c0-7.2,5.8-13.1,13.1-13.1l0,0c7.2,0,13.1,5.8,13.1,13.1v17.2l0,0h-26.1l0,0V-304.3
				z"/>
			
				<rect id="shape_9" x="-677.8" y="-287.4" transform="matrix(-1 2.535048e-06 -2.535048e-06 -1 -1329.537 -563.5221)" class="st2" width="26.1" height="11.4"/>
			<g id="tops_container" transform="matrix(0.1725,0.0000,0.0000,0.1725,0.0000,0.00)">
				<g id="container_25">
					<g id="container_26" transform="matrix(1.0000,0.0000,0.0000,1.0000,-2.0000,0.00)">
						<g id="container_27">
							<path id="shape_10" class="st3" d="M-3868.2-1825.1c-4-4-6.1-8.8-6.2-14.5h42.4c-0.1,5.7-2.2,10.5-6.2,14.5
								c-4.1,4.2-9.1,6.2-15,6.2C-3859-1818.8-3864-1820.9-3868.2-1825.1z"/>
						</g>
					</g>
				</g>
			</g>
			<g id="armRight" transform="matrix(-0.4437,-0.8962,0.8962,-0.4437,34.5000,20.00)">
				<g id="farmRight" transform="matrix(0.9556,-0.2947,0.2947,0.9556,0.0000,35.00)">
					<path id="farm_right" class="st4" d="M717.9-297.5L717.9-297.5c3.1,0,5.7,2.5,5.7,5.7v13.3c0,3.1-2.5,5.7-5.7,5.7l0,0
						c-3.1,0-5.7-2.5-5.7-5.7v-13.3C712.2-294.9,714.7-297.5,717.9-297.5z"/>
					<g id="hands_02" transform="matrix(1.0000,0.0000,0.0000,1.0000,0.0000,50.00)">
						<g id="container_28" transform="matrix(0.6000,0.0000,0.0000,0.6000,0.0000,0.00)">
							<g id="container_29" transform="matrix(1.0000,0.0000,0.0000,1.0000,-0.1000,-0.80)">
								<g id="container_30">
									<path id="shape_11" class="st3" d="M1189.8-530.9c-1.8-1.8-2.7-4.1-2.8-6.6v0v-9.2h18.9v9.2v0c0,2.6-0.9,4.8-2.8,6.6
										c-1.9,1.8-4.1,2.8-6.7,2.8C1193.9-528.2,1191.7-529.1,1189.8-530.9z"/>
								</g>
							</g>
						</g>
					</g>
				</g>
				<path id="arm_right" class="st4" d="M600-474.3L600-474.3c3.1,0,5.7,2.5,5.7,5.7v13.3c0,3.1-2.5,5.7-5.7,5.7l0,0
					c-3.1,0-5.7-2.5-5.7-5.7v-13.3C594.3-471.8,596.9-474.3,600-474.3z"/>
			</g>
			<g id="armLeft" transform="matrix(0.3574,0.9340,-0.9340,0.3574,-34.5000,20.00)">
				<g id="farmLeft" transform="matrix(0.9368,0.3499,-0.3499,0.9368,0.0000,35.00)">
					<path id="farm_left" class="st4" d="M-342.5,614.6L-342.5,614.6c3.1,0,5.7,2.5,5.7,5.7v13.3c0,3.1-2.5,5.7-5.7,5.7l0,0
						c-3.1,0-5.7-2.5-5.7-5.7v-13.3C-348.2,617.1-345.6,614.6-342.5,614.6z"/>
					<g id="hands_01" transform="matrix(-1.0000,0.0000,0.0000,1.0000,0.0000,50.00)">
						<g id="container_31" transform="matrix(0.6000,0.0000,0.0000,0.6000,0.0000,0.00)">
							<g id="container_32" transform="matrix(1.0000,0.0000,0.0000,1.0000,-0.1000,-0.80)">
								<g id="container_33">
									<path id="shape_12" class="st3" d="M564.2,989.1c-1.8-1.8-2.7-4.1-2.8-6.6v0v-9.2h18.9v9.2v0c0,2.6-0.9,4.8-2.8,6.6
										c-1.9,1.8-4.1,2.8-6.7,2.8C568.3,991.9,566.1,991,564.2,989.1z"/>
								</g>
							</g>
						</g>
					</g>
				</g>
				<path id="arm_left" class="st4" d="M-537.9,477.3L-537.9,477.3c3.1,0,5.7,2.5,5.7,5.7v13.3c0,3.1-2.5,5.7-5.7,5.7l0,0
					c-3.1,0-5.7-2.5-5.7-5.7V483C-543.6,479.8-541,477.3-537.9,477.3z"/>
			</g>
		</g>
	</g>
</g>
</svg>
