<svg id="eyes" xmlns="http://www.w3.org/2000/svg" viewBox="0 0 50 50"><defs><style>.cls-1,.cls-2{fill:none;stroke:#8d5629;stroke-miterlimit:10;}.cls-2{stroke-dasharray:1.77 1.77;}.cls-3{fill:#8d5629;}.cls-4{fill:#fedbac;}</style></defs><title>questions_icons</title><line class="cls-1" x1="1.37" y1="35.5" x2="2.23" y2="35.5"/><line class="cls-2" x1="4" y1="35.5" x2="45.63" y2="35.5"/><line class="cls-1" x1="46.51" y1="35.5" x2="47.37" y2="35.5"/><polygon class="cls-3" points="7.69 29.54 8.24 34.13 9.74 35.5 11.24 33.88 13.38 35.5 16.34 33.13 36.87 33.13 39.12 35.5 39.87 34 41.62 35.5 42.31 27.42 7.69 29.54"/><path class="cls-4" d="M40.1,21.82a15.25,15.25,0,0,0-30.21,0,4.19,4.19,0,1,0,.91,8.28C13,36.85,18.55,43.19,25,43.19S37,36.85,39.19,30.1A4.18,4.18,0,1,0,40.1,21.82Z"/><path class="cls-3" d="M9.89,21.82a3.08,3.08,0,0,1,1.55,2.67h2.5a33.84,33.84,0,0,0,0-6.52c-0.37-2.85,1-6.48,4.88-5.6a41.4,41.4,0,0,0,6.18,1V6.87S7.81,5.09,7.69,22.48A11.23,11.23,0,0,1,9.89,21.82Z"/><path class="cls-3" d="M40.11,21.82a3.08,3.08,0,0,0-1.55,2.67h-2.5a33.84,33.84,0,0,1,0-6.52c0.38-2.85-1-6.48-4.88-5.6a41.4,41.4,0,0,1-6.18,1V6.87S42.19,5.09,42.31,22.48A11.23,11.23,0,0,0,40.11,21.82Z"/><line class="cls-1" x1="1.37" y1="6.81" x2="2.23" y2="6.81"/><line class="cls-2" x1="4" y1="6.81" x2="45.63" y2="6.81"/><line class="cls-1" x1="46.51" y1="6.81" x2="47.37" y2="6.81"/></svg>