<svg id="eyes" xmlns="http://www.w3.org/2000/svg" viewBox="0 0 50 50"><defs><style>.cls-1{fill:#fedbac;}.cls-2{fill:#231f20;}</style></defs><title>questions_icons</title><path class="cls-1" d="M40.1,20.9a15.25,15.25,0,0,0-30.21,0,4.19,4.19,0,1,0,.91,8.28C13,35.93,18.55,42.27,25,42.27s12-6.33,14.19-13.08A4.18,4.18,0,1,0,40.1,20.9Z"/><path class="cls-2" d="M9.89,20.9a3.23,3.23,0,0,1,1.05,2.31h1.56v-4.5a5.19,5.19,0,0,0-.5-2.09,1.82,1.82,0,0,1,0-1.69s-3.79-.35-3.79,2.78v3.53A3.72,3.72,0,0,1,9.89,20.9Z"/><path class="cls-2" d="M40.14,20.9a3.23,3.23,0,0,0-1.05,2.31H37.52v-4.5a5.19,5.19,0,0,1,.5-2.09,1.82,1.82,0,0,0,0-1.69s3.79-.35,3.79,2.78v3.53A3.72,3.72,0,0,0,40.14,20.9Z"/></svg>