<svg id="eyes" xmlns="http://www.w3.org/2000/svg" viewBox="0 0 50 50"><defs><style>.cls-1{fill:#fedbac;}.cls-2{fill:#231f20;}</style></defs><title>questions_icons</title><path class="cls-1" d="M40.1,20.9a15.25,15.25,0,0,0-30.21,0,4.19,4.19,0,1,0,.91,8.28C13,35.93,18.55,42.27,25,42.27s12-6.33,14.19-13.08A4.18,4.18,0,1,0,40.1,20.9Z"/><path class="cls-2" d="M25,32.12a2.18,2.18,0,0,1-2.18,2.18c-1.21,0-4.18,0-4.18-1.18s3-3.18,4.18-3.18A2.18,2.18,0,0,1,25,32.12Z"/><path class="cls-2" d="M25,32.12a2.18,2.18,0,0,0,2.18,2.18c1.21,0,4.18,0,4.18-1.18s-3-3.18-4.18-3.18A2.18,2.18,0,0,0,25,32.12Z"/></svg>