<svg id="eyes" xmlns="http://www.w3.org/2000/svg" viewBox="0 0 50 50"><defs><style>.cls-1{fill:#fedbac;}</style></defs><title>questions_icons</title><path class="cls-1" d="M40.1,20.9a15.25,15.25,0,0,0-30.21,0,4.19,4.19,0,1,0,.91,8.28C13,35.93,18.55,42.26,25,42.26s12-6.33,14.19-13.08A4.18,4.18,0,1,0,40.1,20.9Z"/><path d="M10.81,29.18V23.82H13.2s0.08,6.67,3.25,9.83,5.52,5,8.55,5v3.61S15.17,43.12,10.81,29.18Z"/><path d="M39.19,29.18V23.82H36.8s-0.08,6.67-3.25,9.83-5.52,5-8.55,5v3.61S34.83,43.12,39.19,29.18Z"/></svg>