<svg id="Mode_Isolation" data-name="Mode Isolation" xmlns="http://www.w3.org/2000/svg" viewBox="0 0 50 50"><defs><style>.cls-1{fill:#fedbac;}.cls-2,.cls-5{fill:#fff;}.cls-2,.cls-4{stroke:#090909;stroke-miterlimit:10;stroke-width:2.2px;}.cls-3{fill:#090909;}.cls-4{fill:none;}</style></defs><title>questions_icons</title><path class="cls-1" d="M40.1,20.9a15.25,15.25,0,0,0-30.21,0,4.19,4.19,0,1,0,.91,8.28C13,35.93,18.55,42.27,25,42.27s12-6.33,14.19-13.08A4.18,4.18,0,1,0,40.1,20.9Z"/><circle class="cls-2" cx="18.87" cy="21.62" r="4.4"/><circle class="cls-2" cx="30.4" cy="21.62" r="4.4"/><circle class="cls-3" cx="18.87" cy="21.62" r="2.45"/><circle class="cls-3" cx="30.4" cy="21.62" r="2.45"/><line class="cls-4" x1="23.17" y1="21.62" x2="26.46" y2="21.62"/><line class="cls-4" x1="34.26" y1="19.76" x2="40.58" y2="19.76"/><line class="cls-4" x1="14.21" y1="19.76" x2="8.89" y2="19.76"/><circle class="cls-5" cx="19.61" cy="20.65" r="0.74"/><ellipse class="cls-5" cx="19.07" cy="22.09" rx="0.5" ry="0.24" transform="translate(-9.02 29.99) rotate(-64.89)"/><ellipse class="cls-5" cx="18.59" cy="21.67" rx="0.32" ry="0.17" transform="translate(-8.92 29.3) rotate(-64.89)"/><circle class="cls-5" cx="31.03" cy="20.65" r="0.74"/><ellipse class="cls-5" cx="30.49" cy="22.09" rx="0.5" ry="0.24" transform="translate(-2.45 40.33) rotate(-64.89)"/><ellipse class="cls-5" cx="30.01" cy="21.67" rx="0.32" ry="0.17" transform="translate(-2.35 39.64) rotate(-64.89)"/></svg>