<svg id="Mode_Isolation" data-name="Mode Isolation" xmlns="http://www.w3.org/2000/svg" viewBox="0 0 50 50"><defs><style>.cls-1{fill:#fff;}</style></defs><title>questions_icons</title><path class="cls-1" d="M39.88,16.65A8.45,8.45,0,0,0,25,11.11a8.45,8.45,0,0,0-14.88,5.53v2.68a8.4,8.4,0,0,0,1.31,4.47h0l0.07,0.09c0.09,0.14.19,0.28,0.29,0.42a18.3,18.3,0,0,1,2.57,7.28c0.8,5.24,3,8.55,6.16,10.26,0,0,2.05.23,2.39-1.48a2.48,2.48,0,0,0-.73-2.51s-6.09-6.59,0-10.82h0a11.33,11.33,0,0,1,5.84.07c5.94,4.23-.08,10.76-0.08,10.76a2.48,2.48,0,0,0-.73,2.51c0.34,1.71,2.39,1.48,2.39,1.48,3.19-1.71,5.36-5,6.16-10.26s2.93-7.78,2.93-7.78l-0.08,0a8.4,8.4,0,0,0,1.3-4.45V16.65Z"/></svg>