<svg id="Calque_1" data-name="Calque 1" xmlns="http://www.w3.org/2000/svg" viewBox="0 0 50 50"><defs><style>.cls-1{fill:#fff;}.cls-2{fill:#ec432e;}</style></defs><title>questions_icons</title><path class="cls-1" d="M36.31,25l9.85-9.85A8,8,0,0,0,34.85,3.83L25,13.69,15.15,3.83A8,8,0,1,0,3.83,15.15L13.69,25,3.83,34.85A8,8,0,1,0,15.15,46.17L25,36.31l9.85,9.85A8,8,0,1,0,46.17,34.85Z"/><path class="cls-2" d="M32.07,25L44,13A5,5,0,0,0,37,6l-12,12L13,6A5,5,0,0,0,6,13l12,12L6,37A5,5,0,1,0,13,44l12-12L37,44A5,5,0,1,0,44,37Z"/></svg>