<svg id="Calque_1" data-name="Calque 1" xmlns="http://www.w3.org/2000/svg" viewBox="0 0 800 800"><defs><style>.cls-1{fill:#231f20;}.cls-2{fill:#dedddd;}</style></defs><title>hairs</title><path class="cls-1" d="M577.63,527.77s-16.4,67-16.81,192.41V463.85Z"/><path class="cls-1" d="M197,350.23s27.3,258.4,16.34,362.64l8.52,7.31s4.06-151.41-8.52-271.56Z"/><path class="cls-1" d="M611.71,356.49s-35.14,307.67-34.09,355.16l-11.13,8.52s-14.16-122.37,2.72-256.32S611.71,356.49,611.71,356.49Z"/><path class="cls-1" d="M197,366.6S240.14,624,232.83,727.48c0,0,166.83,51.15,320.27,0,0,0,5.21-169.24,24.52-263.63Z"/><circle class="cls-1" cx="404.28" cy="350.23" r="207.27"/><circle class="cls-2" cx="400" cy="400" r="200"/><path class="cls-1" d="M498.37,247.23s36.17,11.93,45.82,47,40.19,63,53.86,62.3h13.67S572.33,194.17,400.3,194.17c0,0-172.83-14.19-202.57,162.32C197.73,356.49,339.21,390.72,498.37,247.23Z"/><path class="cls-1" d="M498.37,247.23S482.7,293,322.33,366.6"/><path class="cls-1" d="M465.81,262.9S380.2,366.2,216.22,371.82"/></svg>