<svg id="Calque_1" data-name="Calque 1" xmlns="http://www.w3.org/2000/svg" viewBox="0 0 800 800"><defs><style>.cls-1{fill:#231f20;}.cls-2{fill:none;stroke:#231f20;stroke-miterlimit:10;opacity:0;}</style></defs><title>hairs</title><path class="cls-1" d="M601.14,400.18c0-111.27-90.2-201.47-201.47-201.47S198.2,288.92,198.2,400.18c0,0,46.8-44.53,68.8-88.53l-8,26S327,315,363,280.32l-7.33,19.13S451,287.65,494.33,250.32c0,0,13.33,46.67,34.67,69.33,0,0-10.67-27.33-10.67-32.67C518.33,287,543.94,346,601.14,400.18Z"/><polygon class="cls-1" points="223.1 325.58 185.6 207.08 298.1 250.58 248.6 180.09 376.09 216.08 329.59 274.58 223.1 325.58"/><circle class="cls-2" cx="400" cy="400" r="200"/></svg>