<svg id="Calque_1" data-name="Calque 1" xmlns="http://www.w3.org/2000/svg" viewBox="0 0 800 800"><defs><style>.cls-1{fill:none;stroke:#231f20;stroke-miterlimit:10;opacity:0;}.cls-2{fill:#231f20;}</style></defs><title>hairs</title><circle class="cls-1" cx="400" cy="400" r="200"/><path class="cls-2" d="M190.35,359s9,64,28.72,72.63c0,0-31.33-102.59,9.85-168.88Z"/><path class="cls-2" d="M599.48,359s8.61,32.24-22.17,85.06c0,0,10.52-114.94,0-158.92Z"/><path class="cls-2" d="M560.48,262.72s-9,29.77-49.65,44.55c0,0,24.62-44.32,18.47-68.94S560.48,262.72,560.48,262.72Z"/><path class="cls-2" d="M529.71,262.72s-9,29.77-49.65,44.55c0,0,24.62-44.32,18.47-68.94S529.71,262.72,529.71,262.72Z"/><path class="cls-2" d="M498.93,262.72s-9,29.77-49.65,44.55c0,0,24.62-44.32,18.47-68.94S498.93,262.72,498.93,262.72Z"/><path class="cls-2" d="M468.16,262.72s-9,29.77-49.65,44.55c0,0,24.62-44.32,18.47-68.94S468.16,262.72,468.16,262.72Z"/><path class="cls-2" d="M437.38,262.72s-9,29.77-49.65,44.55c0,0,24.62-44.32,18.47-68.94S437.38,262.72,437.38,262.72Z"/><path class="cls-2" d="M406.61,262.72s-9,29.77-49.65,44.55c0,0,24.62-44.32,18.47-68.94S406.61,262.72,406.61,262.72Z"/><path class="cls-2" d="M375.83,262.72s-9,29.77-49.65,44.55c0,0,24.62-44.32,18.47-68.94S375.83,262.72,375.83,262.72Z"/><path class="cls-2" d="M345.05,262.72s-9,29.77-49.65,44.55c0,0,24.62-44.32,18.47-68.94S345.05,262.72,345.05,262.72Z"/><path class="cls-2" d="M314.28,262.72s-9,29.77-49.65,44.55c0,0,24.62-44.32,18.47-68.94S314.28,262.72,314.28,262.72Z"/><path class="cls-2" d="M283.5,262.72s-9,29.77-49.65,44.55c0,0,24.62-44.32,18.47-68.94S283.5,262.72,283.5,262.72Z"/><path class="cls-2" d="M267.5,262.72s-9,29.77-49.65,44.55c0,0,24.62-44.32,18.47-68.94S267.5,262.72,267.5,262.72Z"/><polygon class="cls-2" points="544.07 262.72 242.67 262.72 276.94 214.06 375.83 174.31 460.36 190.32 510.83 218.52 544.07 262.72"/></svg>