<svg id="Calque_1" data-name="Calque 1" xmlns="http://www.w3.org/2000/svg" viewBox="0 0 800 800"><defs><style>.cls-1{fill:none;stroke:#231f20;stroke-miterlimit:10;opacity:0;}.cls-2{fill:#231f20;}</style></defs><title>hairs</title><circle class="cls-1" cx="400" cy="400" r="200"/><rect class="cls-2" x="200" y="173.4" width="400" height="226.6"/><rect class="cls-2" x="200" y="162.33" width="6.33" height="11.07"/><rect class="cls-2" x="211.25" y="162.33" width="6.33" height="11.07"/><rect class="cls-2" x="222.5" y="162.33" width="6.33" height="11.07"/><rect class="cls-2" x="233.74" y="162.33" width="6.33" height="11.07"/><rect class="cls-2" x="244.99" y="162.33" width="6.33" height="11.07"/><rect class="cls-2" x="256.24" y="162.33" width="6.33" height="11.07"/><rect class="cls-2" x="267.49" y="162.33" width="6.33" height="11.07"/><rect class="cls-2" x="278.73" y="162.33" width="6.33" height="11.07"/><rect class="cls-2" x="289.98" y="162.33" width="6.33" height="11.07"/><rect class="cls-2" x="301.23" y="162.33" width="6.33" height="11.07"/><rect class="cls-2" x="312.48" y="162.33" width="6.33" height="11.07"/><rect class="cls-2" x="323.72" y="162.33" width="6.33" height="11.07"/><rect class="cls-2" x="334.97" y="162.33" width="6.33" height="11.07"/><rect class="cls-2" x="346.22" y="162.33" width="6.33" height="11.07"/><rect class="cls-2" x="357.47" y="162.33" width="6.33" height="11.07"/><rect class="cls-2" x="368.71" y="162.33" width="6.33" height="11.07"/><rect class="cls-2" x="379.96" y="162.33" width="6.33" height="11.07"/><rect class="cls-2" x="391.21" y="162.33" width="6.33" height="11.07"/><rect class="cls-2" x="402.46" y="162.33" width="6.33" height="11.07"/><rect class="cls-2" x="413.7" y="162.33" width="6.33" height="11.07"/><rect class="cls-2" x="424.95" y="162.33" width="6.33" height="11.07"/><rect class="cls-2" x="436.2" y="162.33" width="6.33" height="11.07"/><rect class="cls-2" x="447.45" y="162.33" width="6.33" height="11.07"/><rect class="cls-2" x="458.7" y="162.33" width="6.33" height="11.07"/><rect class="cls-2" x="469.94" y="162.33" width="6.33" height="11.07"/><rect class="cls-2" x="481.19" y="162.33" width="6.33" height="11.07"/><rect class="cls-2" x="492.44" y="162.33" width="6.33" height="11.07"/><rect class="cls-2" x="503.69" y="162.33" width="6.33" height="11.07"/><rect class="cls-2" x="514.93" y="162.33" width="6.33" height="11.07"/><rect class="cls-2" x="526.18" y="162.33" width="6.33" height="11.07"/><rect class="cls-2" x="537.43" y="162.33" width="6.33" height="11.07"/><rect class="cls-2" x="548.68" y="162.33" width="6.33" height="11.07"/><rect class="cls-2" x="559.92" y="162.33" width="6.33" height="11.07"/><rect class="cls-2" x="571.17" y="162.33" width="6.33" height="11.07"/><rect class="cls-2" x="582.42" y="162.33" width="6.33" height="11.07"/><rect class="cls-2" x="593.67" y="162.33" width="6.33" height="11.07"/></svg>