<svg id="Calque_1" data-name="Calque 1" xmlns="http://www.w3.org/2000/svg" viewBox="0 0 800 800"><defs><style>.cls-1{fill:none;stroke:#231f20;stroke-miterlimit:10;opacity:0;}.cls-2{fill:#231f20;}</style></defs><title>hairs</title><circle class="cls-1" cx="400" cy="400" r="200"/><path class="cls-2" d="M400.85,276.42a98.4,98.4,0,0,0-53.4-12.17c-30.42,2-34.47,12-34.47,12s-13.15,81.4-74,83.88a70.69,70.69,0,0,0-39.11,15.06s-5.52-167.36,86.74-189.32,114.23,28.73,114.23,28.73v61.85Z"/><path class="cls-2" d="M397.52,276.42a98.4,98.4,0,0,1,53.4-12.17c30.42,2,34.47,12,34.47,12s13.15,81.4,74,83.88a70.69,70.69,0,0,1,39.11,15.06S604,207.81,511.75,185.85s-114.23,28.73-114.23,28.73v61.85Z"/><path class="cls-2" d="M370.77,229.78s-23.32,40.55-26.36,75S313,356.75,289.66,361.19c0,0,20.22-16.3,21.29-48.28s-11.15-74,19.26-95.3S370.77,229.78,370.77,229.78Z"/><path class="cls-2" d="M431.39,229.78s23.32,40.55,26.36,75,31.43,51.94,54.75,56.39c0,0-20.22-16.3-21.29-48.28s11.15-74-19.26-95.3S431.39,229.78,431.39,229.78Z"/></svg>