<svg id="Calque_1" data-name="Calque 1" xmlns="http://www.w3.org/2000/svg" viewBox="0 0 800 800"><defs><style>.cls-1{fill:#231f20;}.cls-2{fill:#dedddd;}</style></defs><title>hairs</title><path class="cls-1" d="M199.82,417.34s18.88,115.58-20.66,95.3c0,0,49,56.78,53.4-50.69S199.82,417.34,199.82,417.34Z"/><path class="cls-1" d="M238.55,484.26s-29,25.35-14.79,76,43.6,50.69,32.44,82.12c0,0,30.42-25.35,8.11-79.08,0,0,24.33,52.72,25.35,96.32s17.24,56.78,32.44,63.87c0,0-2-38.53,14.19-52.72,0,0-7.34,39.54,61.22,87.19l2.66-332.45L215.65,444.72Z"/><polygon class="cls-1" points="261.33 463.35 212.78 470.06 212.78 493.19 238.55 511.63 264.32 493.19 261.33 463.35"/><path class="cls-1" d="M593.1,417.34s-18.88,115.58,20.66,95.3c0,0-49,56.78-53.4-50.69S593.1,417.34,593.1,417.34Z"/><path class="cls-1" d="M554.37,484.26s29,25.35,14.79,76-43.6,50.69-32.44,82.12c0,0-30.42-25.35-8.11-79.08,0,0-24.33,52.72-25.35,96.32S486,716.43,470.81,723.53c0,0,2-38.53-14.19-52.72,0,0,7.34,39.54-61.22,87.19l1.4-332.45,180.47,19.17Z"/><polygon class="cls-1" points="531.59 463.35 580.14 470.06 580.14 493.19 554.37 511.63 528.6 493.19 531.59 463.35"/><circle class="cls-2" cx="400" cy="400" r="200"/><path class="cls-1" d="M400.85,276.42a98.4,98.4,0,0,0-53.4-12.17c-30.42,2-34.47,12-34.47,12s-13.15,81.4-74,83.88a70.69,70.69,0,0,0-39.11,15.06s-5.52-167.36,86.74-189.32,114.23,28.73,114.23,28.73v61.85Z"/><path class="cls-1" d="M397.52,276.42a98.4,98.4,0,0,1,53.4-12.17c30.42,2,34.47,12,34.47,12s13.15,81.4,74,83.88a70.69,70.69,0,0,1,39.11,15.06S604,207.81,511.75,185.85s-114.23,28.73-114.23,28.73v61.85Z"/><path class="cls-1" d="M370.77,229.78s-23.32,40.55-26.36,75S313,356.75,289.66,361.19c0,0,20.22-16.3,21.29-48.28s-11.15-74,19.26-95.3S370.77,229.78,370.77,229.78Z"/><path class="cls-1" d="M431.39,229.78s23.32,40.55,26.36,75,31.43,51.94,54.75,56.39c0,0-20.22-16.3-21.29-48.28s11.15-74-19.26-95.3S431.39,229.78,431.39,229.78Z"/></svg>