<svg id="Calque_1" data-name="Calque 1" xmlns="http://www.w3.org/2000/svg" viewBox="0 0 800 800"><defs><style>.cls-1{fill:#dedddd;}.cls-2{fill:#231f20;}</style></defs><title>hairs</title><circle class="cls-1" cx="400" cy="400" r="200"/><path class="cls-2" d="M570.83,110.07l5.79,88.38c-11.29-44.71-31.8-99.31-69.11-148.33L517,92.3C500.38,69,478.88,46.59,451.31,29.09l13.87,46.29c-17.32-22.21-38.91-44-65-60.23-26.12,16.22-47.71,38-65,60.23L349,29.09C321.39,46.59,299.9,69,283.24,92.3l9.53-42.17c-37.31,49-57.82,103.62-69.11,148.33l5.79-88.38C193.6,195,190.31,364.38,190.31,364.38l4,0.29a288.44,288.44,0,0,0,6.39,51.69Q200,408.27,200,400c0-110.46,89.54-200,200-200s200,89.54,200,200q0,5.39-.29,10.7a289.19,289.19,0,0,0,5.22-46l5-.37S606.67,195,570.83,110.07Z"/><path class="cls-2" d="M296.86,237.5s34.55,44.93,100.78,76.15c0,0,77.72-28.66,105.7-76.15l-43.27-93.7H340.21Z"/></svg>