<svg id="Calque_1" data-name="Calque 1" xmlns="http://www.w3.org/2000/svg" viewBox="0 0 800 800"><defs><style>.cls-1{fill:#231f20;}</style></defs><title>hairs</title><circle class="cls-1" cx="400" cy="400" r="200"/><path class="cls-1" d="M199.82,417.34s18.88,115.58-20.66,95.3c0,0,49,56.78,53.4-50.69S199.82,417.34,199.82,417.34Z"/><path class="cls-1" d="M238.55,484.26s-29,25.35-14.79,76,43.6,50.69,32.44,82.12c0,0,30.42-25.35,8.11-79.08,0,0,24.33,52.72,25.35,96.32s17.24,56.78,32.44,63.87c0,0-2-38.53,14.19-52.72,0,0-7.34,39.54,61.22,87.19l2.66-332.45L215.65,444.72Z"/><polygon class="cls-1" points="261.33 463.35 212.78 470.06 212.78 493.19 238.55 511.63 264.32 493.19 261.33 463.35"/><path class="cls-1" d="M593.1,417.34s-18.88,115.58,20.66,95.3c0,0-49,56.78-53.4-50.69S593.1,417.34,593.1,417.34Z"/><path class="cls-1" d="M554.37,484.26s29,25.35,14.79,76-43.6,50.69-32.44,82.12c0,0-30.42-25.35-8.11-79.08,0,0-24.33,52.72-25.35,96.32S486,716.43,470.81,723.53c0,0,2-38.53-14.19-52.72,0,0,7.34,39.54-61.22,87.19l1.4-332.45,180.47,19.17Z"/><polygon class="cls-1" points="531.59 463.35 580.14 470.06 580.14 493.19 554.37 511.63 528.6 493.19 531.59 463.35"/></svg>