<svg id="Calque_1" data-name="Calque 1" xmlns="http://www.w3.org/2000/svg" viewBox="0 0 800 800"><defs><style>.cls-1{fill:#dedddd;}.cls-2{fill:#231f20;}</style></defs><title>hairs</title><circle class="cls-1" cx="400" cy="400" r="200"/><path d="M777.8,238L596,256.3A230.07,230.07,0,0,0,474.45,153.66c-19.95-50-54.41-106.36-70-130.73,22.49,37.93,37.93,93.18,45.26,123.4l-2.39-.55C383.6-34.22,228.11,0,228.11,0c31.33,112.06,18.32,103.77,18.32,103.77C170.14,74.09,12.76,52.34,12.76,52.34,104.12,151.8,136,239.94,136,239.94L-5.75,253.81,115,398.45,30.9,433.52,229.95,544.79l7.49-10.14a228.81,228.81,0,0,0,120.84,61C267.85,576.44,200,496.15,200,400c0-110.46,89.54-200,200-200s200,89.54,200,200A200,200,0,0,1,484.86,581.14,230.32,230.32,0,0,0,600.95,473.35l0.8,5.86,176-146-103-10.15Z"/><path d="M404.5,22.92c-2.59-4.36-5.25-8.52-8-12.36C396.47,10.56,399.53,15.13,404.5,22.92Z"/><polygon class="cls-2" points="191.2 357.68 229.95 413.74 229.95 342.84 265.02 368.75 253.48 239.94 191.2 357.68"/><path class="cls-2" d="M321.08,199.4V368.75l126.67-146.7s12.91,84.52,0,137.28c0,0,83.72-38.55,110.43-68.74l-11.67,91.82L575,359.33V424l31.7-82.79L563,238,426.6,178Z"/></svg>