
<svg xmlns="http://www.w3.org/2000/svg" version="1.1" xmlns:xlink="http://www.w3.org/1999/xlink" preserveAspectRatio="none" x="0px" y="0px" width="900px" height="400px" viewBox="0 0 900 400">
<defs>
<g id="ball_0_Layer0_0_FILL">
<path fill="#FFFFFF" stroke="none" d="
M 7.25 -7.25
Q 4.25 -10.25 0 -10.25 -4.25 -10.25 -7.25 -7.25 -10.25 -4.25 -10.25 0 -10.25 4.25 -7.25 7.25 -4.25 10.25 0 10.25 4.25 10.25 7.25 7.25 10.25 4.25 10.25 0 10.25 -4.25 7.25 -7.25 Z"/>
</g>

<path id="basket_panneau_0_Layer0_0_1_STROKES" stroke="#FFFFFF" stroke-width="7" stroke-linejoin="miter" stroke-linecap="butt" stroke-miterlimit="10" fill="none" d="
M -30.8 -30.8
L 30.8 -30.8 30.8 30.8 -30.8 30.8 -30.8 -30.8 Z"/>

<path id="okaoka_dunk_end_21_Layer4_0_1_STROKES" stroke="#FFFFFF" stroke-width="5" stroke-linejoin="miter" stroke-linecap="round" stroke-miterlimit="10" fill="none" d="
M 10.75 0.5
Q 21.1 -8.6 14.75 -20.5"/>

<path id="okaoka_dunk_end_21_Layer3_0_1_STROKES" stroke="#FFFFFF" stroke-width="5" stroke-linejoin="miter" stroke-linecap="round" stroke-miterlimit="10" fill="none" d="
M 21 -24
Q 30.8 -13.45 26 -2.55"/>

<path id="okaoka_dunk_end_21_Layer2_0_1_STROKES" stroke="#FFFFFF" stroke-width="5" stroke-linejoin="miter" stroke-linecap="round" stroke-miterlimit="10" fill="none" d="
M 0.75 -20.85
Q 8.45 -23.7 17.35 -31.95 20.65 -35.1 22.3 -40.3"/>

<path id="tete_0_Layer0_0_1_STROKES" stroke="#FFFFFF" stroke-width="5" stroke-linejoin="miter" stroke-linecap="round" stroke-miterlimit="10" fill="none" d="
M 3.6 -0.05
L -6.8 -1.25
Q -9.25 -1.55 -10.85 -3.45 -12.35 -5.4 -12.05 -7.9
L -10.25 -22.95
Q -10 -25.35 -8.05 -26.95 -6.05 -28.5 -3.6 -28.2
L 6.8 -27
Q 9.3 -26.7 10.85 -24.75 12.35 -22.75 12.1 -20.35
L 10.3 -5.3
Q 10 -2.8 8.05 -1.25 6.1 0.25 3.6 -0.05 Z"/>

<path id="Layer1_0_1_STROKES" stroke="#FFFFFF" stroke-width="6" stroke-linejoin="miter" stroke-linecap="butt" stroke-miterlimit="10" fill="none" d="
M 510.1 3
L 499.9 23.15 494.25 42.3 494.25 60 494.25 66.5
M 432.35 3
L 442.6 23.15 470.75 23.15 470.75 3
M 442.6 23.15
L 448.2 42.3 470.75 42.3 470.75 23.15 499.9 23.15
M 470.75 66.25
L 470.75 60 448.2 60 448.2 66.5
M 470.75 60
L 470.75 42.3 494.25 42.3
M 448.2 42.3
L 448.2 60
M 470.75 60
L 494.25 60"/>

<path id="Layer1_1_1_STROKES" stroke="#FF6600" stroke-width="8" stroke-linejoin="round" stroke-linecap="round" fill="none" d="
M 429.75 3.65
L 511.45 3.65"/>

<path id="Layer0_0_1_STROKES" stroke="#FF6600" stroke-width="8" stroke-linejoin="round" stroke-linecap="round" fill="none" d="
M 429.75 3.65
L 511.45 3.65"/>
</defs>

<g transform="matrix( 1, 0, 0, 1, 470.5,-45.1) ">
<g transform="matrix( 1, 0, 0, 1, 0,0) ">
<use xlink:href="#basket_panneau_0_Layer0_0_1_STROKES"/>
</g>
</g>

<g transform="matrix( 2, 0, 0, 2, 547,163.25) ">
<g transform="matrix( 1, 0, 0, 1, 0,0) ">
<use xlink:href="#okaoka_dunk_end_21_Layer4_0_1_STROKES"/>
</g>

<g transform="matrix( 1, 0, 0, 1, 0,0) ">
<use xlink:href="#okaoka_dunk_end_21_Layer3_0_1_STROKES"/>
</g>

<g transform="matrix( 1, 0, 0, 1, 0,0) ">
<use xlink:href="#okaoka_dunk_end_21_Layer2_0_1_STROKES"/>
</g>

<g transform="matrix( 0.9889984130859375, -0.1443939208984375, 0.1443939208984375, 0.9889984130859375, 4.95,-34.6) ">
<g transform="matrix( 1, 0, 0, 1, 0,0) ">
<use xlink:href="#tete_0_Layer0_0_1_STROKES"/>
</g>
</g>

<g transform="matrix( 1, 0, 0, 1, -42.1,-76.65) ">
<g transform="matrix( 1, 0, 0, 1, 0,0) ">
<use xlink:href="#ball_0_Layer0_0_FILL"/>
</g>
</g>
</g>

<g transform="matrix( 1, 0, 0, 1, 0,0) ">
<use xlink:href="#Layer1_0_1_STROKES"/>
</g>

<g transform="matrix( 1, 0, 0, 1, 0,0) ">
<use xlink:href="#Layer1_1_1_STROKES"/>
</g>

<g transform="matrix( 1, 0, 0, 1, 0,0) ">
<use xlink:href="#Layer0_0_1_STROKES"/>
</g>
</svg>
