
<svg xmlns="http://www.w3.org/2000/svg" version="1.1" xmlns:xlink="http://www.w3.org/1999/xlink" preserveAspectRatio="none" x="0px" y="0px" width="900px" height="400px" viewBox="0 0 900 400">
<defs>
<g id="running_19_Layer8_0_FILL">
<path fill="#FFFFFF" stroke="none" d="
M 16.65 -26.9
Q 17.35 -26.2 18.4 -26.2 19.4 -26.2 20.15 -26.9 20.85 -27.65 20.85 -28.65 20.85 -29.65 20.15 -30.4 19.4 -31.1 18.4 -31.1 17.35 -31.1 16.65 -30.4 15.95 -29.65 15.95 -28.65 15.95 -27.65 16.65 -26.9
M 12 -26.2
Q 11.3 -26.9 10.3 -26.9
L -11.95 -26.9
Q -12.95 -26.9 -13.65 -26.2 -14.35 -25.45 -14.35 -24.45 -14.35 -23.45 -13.65 -22.75 -12.95 -22.05 -11.95 -22.05
L -5.15 -22.05
Q -4.45 -22.05 -4 -21.55 -3.5 -21.05 -3.5 -20.35 -3.5 -20 -3.65 -19.7
L -14.05 -3.7
Q -14.35 -3.1 -14.35 -2.5 -14.35 -1.05 -13.15 -0.35 -12.3 0.15 -11.3 -0.1 -10.3 -0.45 -9.85 -1.25
L 0.35 -16.8 8.2 -1.55
Q 8.7 -0.7 9.65 -0.4 10.65 -0.15 11.5 -0.65 12.7 -1.35 12.7 -2.75 12.7 -3.4 12.4 -4
L 2.95 -22.05 10.3 -22.05
Q 11.3 -22.05 12 -22.75 12.7 -23.45 12.7 -24.45 12.7 -25.45 12 -26.2
M 10.4 -61.85
Q 8.15 -64.15 4.9 -64.15
L -6.55 -64.15
Q -9.8 -64.15 -12.05 -61.85 -14.35 -59.55 -14.35 -56.3
L -14.35 -40.2
Q -14.35 -36.95 -12.05 -34.65 -9.8 -32.35 -6.55 -32.35
L 4.9 -32.35
Q 8.15 -32.35 10.4 -34.65 12.7 -36.95 12.7 -40.2
L 12.7 -56.3
Q 12.7 -59.55 10.4 -61.85
M 6.85 -58.2
Q 7.9 -57.15 7.9 -55.7
L 7.9 -40.8
Q 7.9 -39.35 6.85 -38.3 5.8 -37.25 4.35 -37.25
L -6 -37.25
Q -7.45 -37.25 -8.5 -38.3 -9.55 -39.35 -9.55 -40.8
L -9.55 -55.7
Q -9.55 -57.15 -8.5 -58.2 -7.45 -59.25 -6 -59.25
L 4.35 -59.25
Q 5.8 -59.25 6.85 -58.2 Z"/>
</g>

<g id="dot_0_Layer0_0_FILL">
<path fill="#FFFFFF" stroke="none" d="
M 4.2 0.7
Q 3.45 0 2.45 0 1.4 0 0.7 0.7 0 1.45 0 2.45 0 3.45 0.7 4.2 1.4 4.9 2.45 4.9 3.45 4.9 4.2 4.2 4.9 3.45 4.9 2.45 4.9 1.45 4.2 0.7 Z"/>
</g>
</defs>

<g transform="matrix( 3.1725311279296875, 0, 0, 3.1725311279296875, 439.7,286.9) ">
<g transform="matrix( 1, 0, 0, 1, 0,0) ">
<use xlink:href="#running_19_Layer8_0_FILL"/>
</g>

<g transform="matrix( 1, 0, 0, 1, 15.95,-23.05) ">
<g transform="matrix( 1, 0, 0, 1, 0,0) ">
<use xlink:href="#dot_0_Layer0_0_FILL"/>
</g>
</g>
</g>
</svg>
