<?xml version="1.0" encoding="utf-8"?>
<!-- Generator: Adobe Illustrator 18.1.1, SVG Export Plug-In . SVG Version: 6.00 Build 0)  -->
<svg version="1.1" id="Calque_1" xmlns="http://www.w3.org/2000/svg" xmlns:xlink="http://www.w3.org/1999/xlink" x="0px" y="0px"
	 width="512px" height="512px" viewBox="-193 45 512 512" enable-background="new -193 45 512 512" xml:space="preserve">
<path id="paperclip-2-icon" fill="#A02A2A" d="M96,129.6L-94.8,353.1c-6.3,7.4-9.1,17.3-7.6,27l10.5,66.1
	c1.3,8.3,8.5,14.4,16.9,14.4h67c9.8,0,19.1-4.3,25.4-11.7l206-241.3c5.9-6.9,5.1-17.4-1.8-23.3l-42.8-36.6
	c-6.9-5.9-17.4-5.1-23.3,1.8L3.1,328.1c-3.3,3.9-1.9,7.6-0.8,15.6c0.6,4.4,4.4,7.6,8.8,7.5c8.2-0.1,12,0.7,15.3-3.2l104.7-122.7
	l30,25.6L52.8,377.9c-5.8,6.8-14.3,10.8-23.3,10.9h-40.6c-10.3,0.1-19.2-6.9-20.7-17.2l-5.9-40.2c-1.3-8.9,1.3-17.9,7.1-24.7
	l159.4-186.6c18.3-21.4,50.4-23.9,71.8-5.7l50.6,43.2c21.4,18.3,23.9,50.4,5.7,71.8l-214.3,251C32,492.7,16.7,499.8,0.6,499.8h-89.3
	c-19.7,0-36.4-14.4-39.5-33.8l-14.1-88.2c-2.5-15.9,2-32.1,12.5-44.3L66,104L96,129.6z"/>
</svg>
