<svg id="Mode_Isolation" data-name="Mode Isolation" xmlns="http://www.w3.org/2000/svg" viewBox="0 0 64 64"><defs><style>.cls-1{fill:#fff;}</style></defs><title>assets</title><polygon class="cls-1" points="47.07 21.48 44.45 24.09 50.48 30.11 33.85 30.11 33.85 13.49 39.87 19.51 42.49 16.89 32 6.4 21.51 16.89 24.13 19.51 30.15 13.49 30.15 30.11 13.52 30.11 19.55 24.09 16.93 21.48 6.43 31.97 16.93 42.46 19.55 39.84 13.52 33.82 30.15 33.82 30.15 50.44 24.13 44.42 21.51 47.04 32 57.53 42.49 47.04 39.87 44.42 33.85 50.44 33.85 33.82 50.48 33.82 44.45 39.84 47.07 42.46 57.57 31.97 47.07 21.48"/></svg>