<?xml version="1.0" encoding="utf-8"?>
<!-- Generator: Adobe Illustrator 19.2.1, SVG Export Plug-In . SVG Version: 6.00 Build 0)  -->
<svg version="1.1" xmlns="http://www.w3.org/2000/svg" xmlns:xlink="http://www.w3.org/1999/xlink" x="0px" y="0px" width="75px"
	 height="50px" viewBox="0 0 75 50" style="enable-background:new 0 0 75 50;" xml:space="preserve">
<style type="text/css">
	.st0{fill:#231F20;}
</style>
<g id="brush">
</g>
<g id="Mode_Isolation">
	<g>
		<path class="st0" d="M52.8,49.2c-1.7,0-3.4-0.4-5-1.2c-5.6-2.7-7.9-9.5-5.1-15.1c1-2,2.6-3.7,4.5-4.8l-36.4-18L13,5.7l44.8,22.1
			c2.7,1.3,4.7,3.6,5.7,6.5c1,2.8,0.8,5.9-0.6,8.6C61,46.9,57,49.2,52.8,49.2z M54,31.6l-1.7,0.2c-2.2,0.2-4.1,1.5-5.1,3.5
			c-1.5,3.1-0.3,6.9,2.8,8.4c3.1,1.5,6.9,0.2,8.4-2.8c0.7-1.5,0.9-3.2,0.3-4.8s-1.7-2.9-3.2-3.6L54,31.6z"/>
	</g>
	<g>
		<path class="st0" d="M10.8,39.6l-1.6-4.7l38.5-13.1c-1.7-1.3-3.1-3.2-3.8-5.3c-2-5.9,1.2-12.3,7-14.3c5.9-2,12.3,1.2,14.3,7
			c2,5.9-1.2,12.3-7,14.3L10.8,39.6z M54.6,6.6c-0.7,0-1.3,0.1-2,0.3c-3.3,1.1-5,4.7-3.9,7.9c0.7,2.1,2.4,3.6,4.6,4.1l1.7,0.4
			l1.7-0.6c3.3-1.1,5-4.7,3.9-7.9C59.6,8.2,57.2,6.6,54.6,6.6z"/>
	</g>
</g>
</svg>
