
<svg xmlns="http://www.w3.org/2000/svg" version="1.1" xmlns:xlink="http://www.w3.org/1999/xlink" preserveAspectRatio="none" x="0px" y="0px" width="900px" height="400px" viewBox="0 0 900 400">
<defs>
<filter id="Filter_1" x="-20%" y="-20%" width="140%" height="140%" color-interpolation-filters="sRGB">
<feColorMatrix in="SourceGraphic" type="matrix" values="1 0 0 0 0 0 1 0 0 0 0 0 1 0 0 0 0 0 0.1 0" result="result1"/>
</filter>

<filter id="Filter_2" x="-20%" y="-20%" width="140%" height="140%" color-interpolation-filters="sRGB">
<feColorMatrix in="SourceGraphic" type="matrix" values="0 0 0 0 1 0 0 0 0 1 0 0 0 0 1 0 0 0 1 0" result="result1"/>
</filter>

<g id="oka_corp_dots_0_Layer0_0_FILL">
<path fill="#FFFFFF" stroke="none" d="
M 40.7 -72.15
Q 42.95 -74.35 42.95 -77.5 42.95 -80.7 40.7 -83.05 38.5 -85.3 35.35 -85.3
L -35.25 -85.3
Q -38.45 -85.3 -40.65 -83.05 -42.9 -80.7 -42.9 -77.5 -42.9 -74.35 -40.65 -72.15 -38.45 -69.9 -35.25 -69.9
L -13.7 -69.9
Q -11.45 -69.9 -10.05 -68.3 -8.45 -66.75 -8.45 -64.5 -8.45 -63.4 -8.95 -62.45
L -41.9 -11.7
Q -42.9 -9.8 -42.9 -7.9 -42.9 -3.3 -39.05 -1.05 -36.35 0.55 -33.2 -0.25 -30.05 -1.4 -28.6 -3.9
L 3.75 -53.25 28.65 -4.85
Q 30.25 -2.15 33.25 -1.2 36.45 -0.45 39.15 -2 42.95 -4.25 42.95 -8.65 42.95 -10.75 42 -12.65
L 12 -69.9 35.35 -69.9
Q 38.5 -69.9 40.7 -72.15 Z"/>
</g>

<g id="oka_head_dots_0_Layer0_0_FILL">
<path fill="#FFFFFF" stroke="none" d="
M 42.95 -75.95
Q 42.95 -86.25 35.65 -93.55 28.5 -100.85 18.2 -100.85
L -18.15 -100.85
Q -28.45 -100.85 -35.6 -93.55 -42.9 -86.25 -42.9 -75.95
L -42.9 -24.9
Q -42.9 -14.6 -35.6 -7.3 -28.45 0 -18.15 0
L 18.2 0
Q 28.5 0 35.65 -7.3 42.95 -14.6 42.95 -24.9
L 42.95 -75.95
M 24.4 -82
Q 27.7 -78.65 27.7 -74.05
L 27.7 -26.8
Q 27.7 -22.2 24.4 -18.85 21.05 -15.55 16.45 -15.55
L -16.4 -15.55
Q -21 -15.55 -24.3 -18.85 -27.65 -22.2 -27.65 -26.8
L -27.65 -74.05
Q -27.65 -78.65 -24.3 -82 -21 -85.3 -16.4 -85.3
L 16.45 -85.3
Q 21.05 -85.3 24.4 -82 Z"/>
</g>

<g id="okadot_0_Layer0_0_FILL">
<path fill="#FFFFFF" stroke="none" d="
M 5.55 -13.35
Q 3.2 -15.55 0 -15.55 -3.3 -15.55 -5.55 -13.35 -7.75 -10.95 -7.75 -7.8 -7.75 -4.6 -5.55 -2.25 -3.3 0 0 0 3.2 0 5.55 -2.25 7.8 -4.6 7.8 -7.8 7.8 -10.95 5.55 -13.35 Z"/>
</g>

<g id="FlashAICB_Actifs_Mode_Isolation__Compound_Path__0_Layer0_0_FILL">
<path fill="#231F20" stroke="none" d="
M 179.75 67.1
Q 173.05 64 166.2 66.55 159.3 69.05 156.2 75.75 153.3142578125 82.0892578125 155.4 88.6
L 148.95 71.05
Q 146.4 64.2 139.7 61.1 133 58 126.15 60.55 119.3 63.05 116.2 69.75 113.1986328125 76.2369140625 115.45 82.85
L 110.25 68.75
Q 107.75 61.9 101.05 58.8 94.35 55.7 87.45 58.2 80.6 60.75 77.5 67.45 74.5453125 73.940625 76.8 80.55
L 51.4 11.6
Q 48.85 4.75 42.15 1.65 35.45 -1.45 28.6 1.1 21.75 3.6 18.65 10.3 15.55 17 18.1 23.9
L 60.35 138.65
Q 58.5 136.6 44.95 127.3 30.2 117.2 19.05 115.6 6.25 113.8 1.5 124.05 -2.7 133.2 4.75 141.85 8.5 146.15 13.05 148.65 29.85 162.35 42.2 183.65 48.4 194.35 51.2 202.25 59.6 225 79.5 252.8 90.4 268 93.8 273.3 101.15 284.8 105.15 295.35
L 101.2 296.8 116 336.95 119.95 335.5 522.55 1314.8 654.85 1266.1 252.25 286.8 259.1 284.25 244.3 244.1 237.7 246.55
Q 234.3 237 232.6 226.55 231.85 222.05 230.4 207.85 227.75 182.45 219.8 160.85
L 188.95 77.05
Q 186.45 70.2 179.75 67.1
M 93.9 127.05
L 94.1 127.6 93.4 127.85 93.9 127.05 Z"/>
</g>

<g id="handwhite_0_Layer0_0_MEMBER_0_FILL">
<path fill="#B1632F" stroke="none" d="
M 252.95 247.9
L 123 302.55 515.85 1231.3 645.85 1176.65 252.95 247.9 Z"/>
</g>

<g id="handwhite_0_Layer0_0_MEMBER_1_MEMBER_0_MEMBER_0_FILL">
<path fill="#B1632F" stroke="none" d="
M 192.65 70.55
Q 189.8 63.8 183 61 176.15 58.25 169.4 61.05 162.65 63.9 159.85 70.75 157.1 77.55 159.9 84.3
L 166.15 99.25 67.3 138.3
Q 67.2638671875 138.0611328125 66 137.05 62.55 134.35 51 127.2 35.8 117.8 24.6 116.7 11.75 115.5 7.5 125.95 3.7 135.25 11.55 143.55 15.45 147.7 20.15 150 37.55 162.9 50.85 183.65 57.5 194 60.65 201.8 66.6 216 75.4 229.4 81.25 238.35 91.5 251.4 103 266 106.85 271.45 114.7 282.75 119.15 293.3
L 249.35 238.6
Q 245.3 229 243.1 218.5 242.05 213.65 240 199.75 236.2 174.1 227.25 152.85
L 192.65 70.55 Z"/>
</g>

<g id="handwhite_0_Layer0_0_MEMBER_1_MEMBER_1_MEMBER_0_FILL">
<path fill="#B1632F" stroke="none" d="
M 52.25 11.35
Q 49.45 4.6 42.6 1.85 35.8 -0.95 29.05 1.9 22.3 4.7 19.5 11.55 16.7 18.35 19.55 25.1
L 77.25 162.45 99.95 124.8 52.25 11.35 Z"/>
</g>

<g id="handwhite_0_Layer0_0_MEMBER_1_MEMBER_2_MEMBER_0_FILL">
<path fill="#B1632F" stroke="none" d="
M 113.65 65.8
Q 110.8 59.05 104 56.25 97.15 53.45 90.4 56.3 83.65 59.15 80.85 66 78.1 72.8 80.9 79.55
L 101.75 129.1 134.5 115.35 113.65 65.8 Z"/>
</g>

<g id="handwhite_0_Layer0_0_MEMBER_1_MEMBER_3_MEMBER_0_FILL">
<path fill="#B1632F" stroke="none" d="
M 119.6 66.55
Q 116.8 73.35 119.65 80.1
L 136.9 121.15 171.95 112.9 152.4 66.35
Q 149.55 59.6 142.75 56.8 135.9 54.05 129.15 56.85 122.4 59.7 119.6 66.55 Z"/>
</g>

<g id="handwhite_0_Layer0_0_MEMBER_1_MEMBER_4_FILL">
<path fill="#FFFFFF" stroke="none" d="
M 50.15 23.15
L 46.4 14.25
Q 44.55 9.9 40.2 8.15 35.8 6.35 31.5 8.15 27.15 10 25.35 14.35 23.55 18.75 25.4 23.05
L 29.15 32 50.15 23.15 Z"/>
</g>

<g id="handwhite_0_Layer0_0_MEMBER_1_MEMBER_5_FILL">
<path fill="#FFFFFF" stroke="none" d="
M 34.45 134.45
L 26.15 129.5
Q 22.1 127.1 17.9 127.6 13.75 128.1 11.9 131.2 10.05 134.25 11.6 138.2 13.15 142.15 17.15 144.55
L 25.45 149.5 34.45 134.45 Z"/>
</g>

<g id="handwhite_0_Layer0_0_MEMBER_2_FILL">
<path fill="#231F20" stroke="none" d="
M 114.85 294
L 131.45 333.5 272.05 274.4 255.45 234.95 114.85 294 Z"/>
</g>

<g id="handwhite_0_Layer0_0_MEMBER_3_FILL">
<path fill="#FFFFFF" stroke="none" d="
M 160.9 269.1
Q 154.95 283.6 161 298 167.1 312.4 181.55 318.3 196.05 324.2 210.45 318.15 224.85 312.1 230.75 297.65 236.7 283.15 230.65 268.75 224.6 254.35 210.1 248.45 195.6 242.5 181.2 248.55 166.8 254.65 160.9 269.1 Z"/>
</g>

<path id="Layer1_0_1_STROKES" stroke="#FFFFFF" stroke-width="50" stroke-linejoin="miter" stroke-linecap="round" stroke-miterlimit="10" fill="none" d="
M 362.75 218.3
L 372.5 218.3"/>

<path id="handwhite_0_Layer0_0_MEMBER_0_1_STROKES" stroke="#FBCF31" stroke-width="1" stroke-linejoin="miter" stroke-linecap="butt" stroke-miterlimit="10" fill="none" d="
M 645.85 1176.65
L 515.85 1231.3 123 302.55 252.95 247.9 645.85 1176.65 Z"/>

<path id="handwhite_0_Layer0_0_MEMBER_1_MEMBER_0_MEMBER_1_1_STROKES" stroke="#FBCF31" stroke-width="1" stroke-linejoin="miter" stroke-linecap="butt" stroke-miterlimit="10" fill="none" d="
M 166.175 99.25
L 159.9 84.3
Q 157.1 77.55 159.85 70.75 162.65 63.9 169.4 61.05 176.15 58.25 183 61 189.8 63.8 192.65 70.55
L 227.25 152.85
Q 236.2 174.1 240 199.75 242.05 213.65 243.1 218.5 245.3 229 249.35 238.6
L 119.15 293.3
Q 114.7 282.75 106.85 271.45 103 266 91.5 251.4 81.25 238.35 75.4 229.4 66.6 216 60.65 201.8 57.5 194 50.85 183.65 37.55 162.9 20.15 150 15.45 147.7 11.55 143.55 3.7 135.25 7.5 125.95 11.75 115.5 24.6 116.7 35.8 117.8 51 127.2 62.55 134.35 66 137.05 67.2638671875 138.0611328125 67.3 138.3
L 166.175 99.25 167.4 102.15"/>

<path id="handwhite_0_Layer0_0_MEMBER_1_MEMBER_1_MEMBER_1_1_STROKES" stroke="#FBCF31" stroke-width="1" stroke-linejoin="miter" stroke-linecap="butt" stroke-miterlimit="10" fill="none" d="
M 99.95 124.8
L 52.25 11.35
Q 49.45 4.6 42.6 1.85 35.8 -0.95 29.05 1.9 22.3 4.7 19.5 11.55 16.7 18.35 19.55 25.1
L 77.25 162.45"/>

<path id="handwhite_0_Layer0_0_MEMBER_1_MEMBER_2_MEMBER_1_1_STROKES" stroke="#FBCF31" stroke-width="1" stroke-linejoin="miter" stroke-linecap="butt" stroke-miterlimit="10" fill="none" d="
M 101.75 129.1
L 80.9 79.55
Q 78.1 72.8 80.85 66 83.65 59.15 90.4 56.3 97.15 53.45 104 56.25 110.8 59.05 113.65 65.8
L 134.5 115.35"/>

<path id="handwhite_0_Layer0_0_MEMBER_1_MEMBER_3_MEMBER_1_1_STROKES" stroke="#FBCF31" stroke-width="1" stroke-linejoin="miter" stroke-linecap="butt" stroke-miterlimit="10" fill="none" d="
M 136.9 121.15
L 119.65 80.1
Q 116.8 73.35 119.6 66.55 122.4 59.7 129.15 56.85 135.9 54.05 142.75 56.8 149.55 59.6 152.4 66.35
L 171.95 112.9"/>

<path id="handwhite_0_Layer0_0_MEMBER_3_1_STROKES" stroke="#231F20" stroke-width="5" stroke-linejoin="miter" stroke-linecap="butt" stroke-miterlimit="10" fill="none" d="
M 230.65 268.75
Q 236.7 283.15 230.75 297.65 224.85 312.1 210.45 318.15 196.05 324.2 181.55 318.3 167.1 312.4 161 298 154.95 283.6 160.9 269.1 166.8 254.65 181.2 248.55 195.6 242.5 210.1 248.45 224.6 254.35 230.65 268.75 Z"/>

<path id="handwhite_0_Layer0_0_MEMBER_4_1_STROKES" stroke="#231F20" stroke-width="5" stroke-linejoin="round" stroke-linecap="round" fill="none" d="
M 189.65 268.6
L 195.85 283.35 218.2 274"/>
</defs>

<g transform="matrix( 1, 0, 0, 1, 180.65,286.85) ">
<g transform="matrix( 1, 0, 0, 1, 0,0) ">
<use xlink:href="#oka_corp_dots_0_Layer0_0_FILL"/>
</g>
</g>

<g transform="matrix( 0.9659271240234375, 0.2587890625, -0.2587890625, 0.9659271240234375, 186.6,189.5) ">
<g transform="matrix( 1, 0, 0, 1, 0,0) ">
<use xlink:href="#oka_head_dots_0_Layer0_0_FILL"/>
</g>
</g>

<g transform="matrix( 6.25, 0, 0, 6.25, 362.75,267.05) ">
<g transform="matrix( 1, 0, 0, 1, 0,0) ">
<use xlink:href="#okadot_0_Layer0_0_FILL"/>
</g>
</g>

<g transform="matrix( 6.25, 0, 0, 6.25, 534.05,267.05) ">
<g transform="matrix( 1, 0, 0, 1, 0,0) ">
<use xlink:href="#okadot_0_Layer0_0_FILL"/>
</g>
</g>

<g transform="matrix( 1, 0, 0, 1, 0,0) ">
<use xlink:href="#Layer1_0_1_STROKES"/>
</g>

<g transform="matrix( 1, 0, 0, 1, 653.95,1531.25) ">
<g transform="matrix( 1, 0, 0, 1, -327.4,-1314.8) ">
<g transform="matrix( 1, 0, 0, 1, 0,0) ">
<use filter="url(#Filter_1)" xlink:href="#FlashAICB_Actifs_Mode_Isolation__Compound_Path__0_Layer0_0_FILL"/>
</g>
</g>

<g transform="matrix( 1, 0, 0, 1, -321.15,-1322.75) ">
<g transform="matrix( 1, 0, 0, 1, -6.25,-0.45) ">
<use filter="url(#Filter_2)" xlink:href="#handwhite_0_Layer0_0_MEMBER_0_FILL"/>

<use filter="url(#Filter_2)" xlink:href="#handwhite_0_Layer0_0_MEMBER_0_1_STROKES"/>
</g>

<g transform="matrix( 1, 0, 0, 1, -6.25,-0.45) ">
<use filter="url(#Filter_2)" xlink:href="#handwhite_0_Layer0_0_MEMBER_1_MEMBER_0_MEMBER_0_FILL"/>
</g>

<g transform="matrix( 1, 0, 0, 1, -6.25,-0.45) ">
<use filter="url(#Filter_2)" xlink:href="#handwhite_0_Layer0_0_MEMBER_1_MEMBER_0_MEMBER_1_1_STROKES"/>
</g>

<g transform="matrix( 1, 0, 0, 1, -6.25,-0.45) ">
<use filter="url(#Filter_2)" xlink:href="#handwhite_0_Layer0_0_MEMBER_1_MEMBER_1_MEMBER_0_FILL"/>
</g>

<g transform="matrix( 1, 0, 0, 1, -6.25,-0.45) ">
<use filter="url(#Filter_2)" xlink:href="#handwhite_0_Layer0_0_MEMBER_1_MEMBER_1_MEMBER_1_1_STROKES"/>
</g>

<g transform="matrix( 1, 0, 0, 1, -6.25,-0.45) ">
<use filter="url(#Filter_2)" xlink:href="#handwhite_0_Layer0_0_MEMBER_1_MEMBER_2_MEMBER_0_FILL"/>
</g>

<g transform="matrix( 1, 0, 0, 1, -6.25,-0.45) ">
<use filter="url(#Filter_2)" xlink:href="#handwhite_0_Layer0_0_MEMBER_1_MEMBER_2_MEMBER_1_1_STROKES"/>
</g>

<g transform="matrix( 1, 0, 0, 1, -6.25,-0.45) ">
<use filter="url(#Filter_2)" xlink:href="#handwhite_0_Layer0_0_MEMBER_1_MEMBER_3_MEMBER_0_FILL"/>
</g>

<g transform="matrix( 1, 0, 0, 1, -6.25,-0.45) ">
<use filter="url(#Filter_2)" xlink:href="#handwhite_0_Layer0_0_MEMBER_1_MEMBER_3_MEMBER_1_1_STROKES"/>
</g>

<g transform="matrix( 1, 0, 0, 1, -6.25,-0.45) ">
<use filter="url(#Filter_2)" xlink:href="#handwhite_0_Layer0_0_MEMBER_1_MEMBER_4_FILL"/>
</g>

<g transform="matrix( 1, 0, 0, 1, -6.25,-0.45) ">
<use filter="url(#Filter_2)" xlink:href="#handwhite_0_Layer0_0_MEMBER_1_MEMBER_5_FILL"/>
</g>

<g transform="matrix( 1, 0, 0, 1, -6.25,-0.45) ">
<use filter="url(#Filter_2)" xlink:href="#handwhite_0_Layer0_0_MEMBER_2_FILL"/>
</g>

<g transform="matrix( 1, 0, 0, 1, -6.25,-0.45) ">
<use filter="url(#Filter_2)" xlink:href="#handwhite_0_Layer0_0_MEMBER_3_FILL"/>

<use filter="url(#Filter_2)" xlink:href="#handwhite_0_Layer0_0_MEMBER_3_1_STROKES"/>
</g>

<g transform="matrix( 1, 0, 0, 1, -6.25,-0.45) ">
<use filter="url(#Filter_2)" xlink:href="#handwhite_0_Layer0_0_MEMBER_4_1_STROKES"/>
</g>
</g>
</g>
</svg>
