<?xml version="1.0" encoding="utf-8"?>
<!-- Generator: Adobe Illustrator 19.2.1, SVG Export Plug-In . SVG Version: 6.00 Build 0)  -->
<svg version="1.1" xmlns="http://www.w3.org/2000/svg" xmlns:xlink="http://www.w3.org/1999/xlink" x="0px" y="0px" width="320px"
	 height="480px" viewBox="0 0 320 480" style="enable-background:new 0 0 320 480;" xml:space="preserve">
<style type="text/css">
	.st0{fill:#7F8C8D;}
	.st1{fill:#95A5A5;}
</style>
<g id="Calque_1">
</g>
<g id="Mode_Isolation">
	<g>
		<g>
			<g>
				<path class="st0" d="M162.7,56.5h-3.4C108.5,56.5,67,98,67,148.8v5.6c0,34.3,28.1,62.4,62.4,62.4h63.1
					c34.3,0,62.4-28.1,62.4-62.4v-5.6C254.9,98,213.4,56.5,162.7,56.5z"/>
			</g>
			<g>
				<g>
					<path class="st0" d="M69.5,348c0,10,8.2,18.2,18.2,18.2h0c10,0,18.2-8.2,18.2-18.2v-8.7H69.5V348z"/>
				</g>
				<g>
					<g>
						<path class="st0" d="M87.7,249.2L87.7,249.2c-10,0-18.2,8.2-18.2,18.2v71.9h36.4v-71.9C105.9,257.4,97.7,249.2,87.7,249.2z"/>
					</g>
				</g>
			</g>
			<g>
				<g>
					<path class="st0" d="M216.1,348c0,10,8.2,18.2,18.2,18.2c10,0,18.2-8.2,18.2-18.2v-8.7h-36.4V348z"/>
				</g>
				<g>
					<g>
						<path class="st0" d="M234.3,249.2c-10,0-18.2,8.2-18.2,18.2v71.9h36.4v-71.9C252.5,257.4,244.3,249.2,234.3,249.2z"/>
					</g>
				</g>
			</g>
			<g>
				<path class="st0" d="M180.8,224.7h-39.7c-16.4,0-29.8,13.4-29.8,29.8v59h99.4v-59C210.7,238.1,197.2,224.7,180.8,224.7z"/>
			</g>
			<g>
				<g>
					<g>
						<polygon class="st0" points="147.7,339.8 174.3,339.8 174.3,391.7 210.7,391.7 210.7,339.8 210.7,315 210.7,313.5 
							111.3,313.5 111.3,315 111.3,339.8 111.3,391.7 147.7,391.7 						"/>
					</g>
				</g>
				<g>
					<path class="st0" d="M174.3,406.4c0,9.2,7.5,16.7,16.7,16.7h3c9.2,0,16.7-7.5,16.7-16.7v-14.7h-36.4V406.4z"/>
				</g>
				<g>
					<path class="st0" d="M128,423.1h3c9.2,0,16.7-7.5,16.7-16.7v-14.7h-36.4v14.7C111.3,415.6,118.8,423.1,128,423.1z"/>
				</g>
			</g>
		</g>
		<g>
			<path class="st1" d="M140.5,209.4c0-11.7,1.4-21.1,4.3-28c2.8-7,8.1-13.8,15.6-20.6c7.6-6.7,12.6-12.2,15.1-16.5
				c2.5-4.2,3.8-8.7,3.8-13.4c0-14.2-6.5-21.3-19.6-21.3c-6.2,0-11.2,1.9-14.9,5.7c-3.7,3.8-5.7,9.1-5.8,15.8h-36.4
				c0.2-16,5.3-28.5,15.5-37.6c10.2-9.1,24.1-13.6,41.7-13.6c17.8,0,31.5,4.3,41.3,12.9c9.8,8.6,14.7,20.7,14.7,36.4
				c0,7.1-1.6,13.9-4.8,20.2c-3.2,6.3-8.8,13.4-16.7,21.1l-10.2,9.7c-6.4,6.1-10,13.3-10.9,21.5l-0.5,7.7H140.5z M136.9,247.9
				c0-5.6,1.9-10.2,5.7-13.8c3.8-3.6,8.7-5.4,14.6-5.4c5.9,0,10.8,1.8,14.6,5.4c3.8,3.6,5.7,8.2,5.7,13.8c0,5.5-1.9,10.1-5.6,13.6
				c-3.7,3.6-8.6,5.4-14.8,5.4c-6.1,0-11-1.8-14.8-5.4C138.8,258,136.9,253.4,136.9,247.9z"/>
		</g>
	</g>
</g>
</svg>
