<?xml version="1.0" encoding="utf-8"?>
<!-- Generator: Adobe Illustrator 21.0.0, SVG Export Plug-In . SVG Version: 6.00 Build 0)  -->
<svg version="1.1" id="Mode_Isolation" xmlns="http://www.w3.org/2000/svg" xmlns:xlink="http://www.w3.org/1999/xlink" x="0px"
	 y="0px" width="310.1px" height="421.6px" viewBox="0 0 310.1 421.6" style="enable-background:new 0 0 310.1 421.6;"
	 xml:space="preserve">
<style type="text/css">
	.st0{clip-path:url(#SVGID_2_);}
	.st1{opacity:0.8;}
	.st2{fill:#FFFFFF;}
	.st3{clip-path:url(#SVGID_4_);}
	.st4{clip-path:url(#SVGID_6_);}
	.st5{fill:none;stroke:#FFFFFF;stroke-width:2.27;stroke-miterlimit:10;}
	.st6{fill:none;stroke:#FFFFFF;stroke-width:2.48;stroke-miterlimit:10;}
	.st7{fill:none;stroke:#FFFFFF;stroke-width:2.27;stroke-miterlimit:10;stroke-dasharray:4.72,4.72;}
	.st8{fill:none;stroke:#FFFFFF;stroke-width:2.27;stroke-miterlimit:10;stroke-dasharray:4.55;}
</style>
<title>builder_button</title>
<g>
	<g>
		<defs>
			<path id="SVGID_1_" d="M185.6,351.5L185.6,351.5c7.6,0,13.8,6.2,13.8,13.8v33.3c0,7.6-6.2,13.8-13.8,13.8h0
				c-7.6,0-13.8-6.2-13.8-13.8v-33.3C171.8,357.7,178,351.5,185.6,351.5z"/>
		</defs>
		<clipPath id="SVGID_2_">
			<use xlink:href="#SVGID_1_"  style="overflow:visible;"/>
		</clipPath>
		<g class="st0">
			<g class="st1">
				<path class="st2" d="M180.3,421.5c-1.5,0-2.7-1.2-2.7-2.7c0-0.7,0.3-1.4,0.9-1.9l4.7-4.3l-7.9,5.2c-1.2,0.8-2.9,0.4-3.7-0.8
					c-0.7-1.1-0.5-2.5,0.5-3.4l5.9-5l-7.1,4.3c-1.3,0.7-2.9,0.3-3.6-0.9c-0.7-1.1-0.4-2.5,0.6-3.4l5.5-4.5c-1.3,0.6-2.9,0-3.5-1.4
					c-0.5-1.1-0.2-2.3,0.7-3.1l2-1.7c-1.4-0.4-2.3-1.8-1.9-3.2c0.1-0.5,0.4-1,0.8-1.3l8-7c-1.3,0.6-2.9,0-3.5-1.4
					c-0.5-1-0.2-2.3,0.7-3l4.8-4.2l-2.4-0.4c-1.4,0.4-2.9-0.4-3.3-1.8c-0.3-1,0-2,0.7-2.7l7.4-7.1l-4.8,0.5
					c-1.5,0.1-2.8-0.9-2.9-2.4c-0.1-0.7,0.1-1.4,0.6-1.9l5.5-6.9c0.8-1.2,2.5-1.5,3.7-0.7s1.5,2.5,0.7,3.7c-0.1,0.1-0.1,0.2-0.2,0.3
					l-1.6,2l6.2-0.6c1.5-0.1,2.8,0.9,2.9,2.4c0.1,0.8-0.2,1.6-0.8,2.2L188,369l5.4-1.7c1.4-0.4,2.9,0.4,3.3,1.8
					c0.2,0.7,0.1,1.5-0.3,2.1l0.5-0.2c1.3-0.7,2.9-0.2,3.6,1.1c0.6,1.1,0.3,2.4-0.6,3.2l-3,2.7l0.3-0.2c1.3-0.7,2.9-0.3,3.6,1
					c0.6,1.1,0.4,2.5-0.6,3.3l-1.7,1.4c1.4-0.4,2.9,0.4,3.3,1.9c0.3,1-0.1,2.1-0.9,2.7l-1.3,1.1l4-2.4c1.2-0.8,2.9-0.4,3.7,0.8
					c0.6,1,0.5,2.3-0.2,3.2l0.1-0.1c1.2-0.8,2.9-0.4,3.7,0.8c0.7,1.1,0.5,2.5-0.4,3.4l-28.4,26.1C181.6,421.3,181,421.6,180.3,421.5
					z"/>
			</g>
		</g>
	</g>
	<g>
		<defs>
			<path id="SVGID_3_" d="M174.3,244.5H141c-13.8,0-25,11.2-25,25V319h83.3v-49.5C199.2,255.7,188.1,244.5,174.3,244.5z"/>
		</defs>
		<clipPath id="SVGID_4_">
			<use xlink:href="#SVGID_3_"  style="overflow:visible;"/>
		</clipPath>
		<g class="st3">
			<g class="st1">
				<path class="st2" d="M141.8,310.7c-3.1,0-5.7-2.5-5.7-5.7c0-1.2,0.3-2.3,1-3.2l7-10.2l-18,12.3c-2.6,1.8-6.1,1.1-7.9-1.5
					c-1.4-2-1.3-4.6,0.1-6.6l7.1-9.7l-12.1,10.2c-2.4,2-6,1.7-8-0.6c-1.7-2-1.8-4.9-0.3-7l13.2-18.4l-9.9,8.1c-2.4,2-6,1.6-8-0.8
					c-2-2.4-1.6-6,0.8-8l43.2-35.2c2.4-2,6-1.7,8,0.8c1.6,2,1.7,4.9,0.2,7l-11.6,16.2L154,247c2.4-2,6-1.7,8,0.6
					c1.7,2,1.8,4.9,0.2,7.1l-15.5,21.2l15.6-10.6c2.6-1.8,6.1-1.1,7.9,1.5c1.3,1.9,1.3,4.5,0,6.4l-9.2,13.5l0.6-0.4
					c2.7-1.6,6.2-0.8,7.8,1.9c1.6,2.7,0.8,6.2-1.9,7.8l-22.9,13.8C143.8,310.4,142.8,310.6,141.8,310.7z"/>
			</g>
		</g>
	</g>
	<g>
		<defs>
			<path id="SVGID_5_" d="M236.1,151.8c-84.1,0-77.6-71-77.6-71S225.8,78.6,236.1,151.8z"/>
		</defs>
		<clipPath id="SVGID_6_">
			<use xlink:href="#SVGID_5_"  style="overflow:visible;"/>
		</clipPath>
		<g class="st4">
			<g class="st1">
				<path class="st2" d="M208.1,172c-3.8,0-6.8-3.1-6.8-6.9c0-1.1,0.3-2.2,0.8-3.1l8.8-16.6l-9.2,8.5c-2.8,2.6-7.1,2.4-9.6-0.4
					c-2.1-2.2-2.4-5.5-0.9-8.1l8.9-15l-8.7,5.6c-3.2,2-7.4,1.1-9.4-2.1c-1.2-1.8-1.4-4-0.7-6l3.8-10.4l-2.9,1.4
					c-3.4,1.6-7.5,0.2-9.1-3.2c-0.1-0.2-0.2-0.4-0.3-0.6l-5.7-15.9c-1.3-3.5,0.5-7.5,4-8.8s7.5,0.5,8.8,4c0,0,0,0.1,0.1,0.1l3.2,8.8
					l11-5.2c3.4-1.6,7.5-0.2,9.1,3.2c0.8,1.6,0.9,3.5,0.3,5.2l-2.5,7.2l16-10.3c3.2-2,7.4-1.1,9.4,2.1c1.3,2,1.4,4.5,0.4,6.6
					l4.6-4.3c2.8-2.6,7.1-2.4,9.6,0.4c2,2.1,2.4,5.3,1,7.8l-11.3,21.1l29.1-24.4c2.9-2.4,7.2-2.1,9.6,0.8c2.1,2.5,2.1,6,0.2,8.6
					L235,166.9c-2.3,3-6.6,3.5-9.6,1.2c-2-1.5-2.9-4-2.6-6.4l-10.4,8.7C211.3,171.4,209.7,172,208.1,172z"/>
			</g>
		</g>
	</g>
	<path class="st5" d="M174.3,244.5H141c-13.8,0-25,11.2-25,25V319h83.3v-49.5C199.2,255.7,188.1,244.5,174.3,244.5z"/>
	<path class="st5" d="M143.6,321.3v44c0,7.6-6.2,13.7-13.8,13.8l0,0c-7.6,0-13.8-6.1-13.8-13.7v-46.3"/>
	<path class="st6" d="M129.8,351.5L129.8,351.5c7.6,0,13.8,6.2,13.8,13.8v33.3c0,7.6-6.2,13.8-13.8,13.8h0
		c-7.6,0-13.8-6.2-13.8-13.8v-33.3C116,357.7,122.2,351.5,129.8,351.5z"/>
	<path class="st5" d="M199.4,319.1v46.3c0,7.6-6.2,13.7-13.8,13.8l0,0c-7.6,0-13.7-6.2-13.8-13.8v-44"/>
	<path class="st6" d="M185.6,351.5L185.6,351.5c7.6,0,13.8,6.2,13.8,13.8v33.3c0,7.6-6.2,13.8-13.8,13.8l0,0
		c-7.6,0-13.8-6.2-13.8-13.8v-33.3C171.8,357.7,178,351.5,185.6,351.5z"/>
	<rect x="116" y="318.9" class="st5" width="83.4" height="23.3"/>
	<path class="st5" d="M159.1,80.8h-2.8c-42.6,0.1-77.2,34.7-77.3,77.3v4.7c0.1,28.8,23.4,52.2,52.3,52.3h52.9
		c28.8-0.1,52.2-23.4,52.3-52.3v-4.7C236.2,115.5,201.7,81,159.1,80.8z"/>
	<path class="st5" d="M79.2,151.8c86.8,0,79.3-71,79.3-71s-6.5,71,77.6,71"/>
	<g class="st1">
		
			<ellipse transform="matrix(0.9999 -1.116988e-02 1.116988e-02 0.9999 -1.7674 1.5487)" class="st2" cx="137.8" cy="159" rx="6" ry="10.9"/>
		
			<ellipse transform="matrix(0.9999 -1.116988e-02 1.116988e-02 0.9999 -1.7606 1.9489)" class="st2" cx="173.6" cy="158.6" rx="6" ry="10.9"/>
		
			<ellipse transform="matrix(0.9999 -1.116988e-02 1.116988e-02 0.9999 -1.9921 1.6901)" class="st2" cx="150.3" cy="179.2" rx="2.4" ry="2.4"/>
		
			<ellipse transform="matrix(0.9999 -1.116988e-02 1.116988e-02 0.9999 -1.9899 1.8118)" class="st2" cx="161.2" cy="179.1" rx="2.4" ry="2.4"/>
		<path class="st2" d="M145.5,189.1l21.6-0.2c0,0,7-0.1,3.9,5.4c-3.9,7-14.5,6.8-14.5,6.8s-8.6-0.2-13.6-5
			C138.8,192.1,141.1,189.1,145.5,189.1z"/>
	</g>
	<path class="st5" d="M236.6,256.5L236.6,256.5c6.4-2.3,13.4,1,15.8,7.4l11.6,32.2c2.3,6.4-1,13.4-7.4,15.8l0,0
		c-6.4,2.3-13.4-1-15.8-7.4l-11.6-32.2C226.9,265.9,230.2,258.8,236.6,256.5z"/>
	<line class="st5" x1="267.2" y1="326" x2="282.4" y2="306.6"/>
	<path class="st5" d="M242.4,290.8L242.4,290.8c4.2-5.3,11.9-6.3,17.3-2.1l26.9,21.2c5.3,4.2,6.3,11.9,2.1,17.3l0,0
		c-4.2,5.3-11.9,6.3-17.3,2.1l-26.9-21.2C239.1,303.9,238.2,296.1,242.4,290.8z"/>
	<path class="st5" d="M79.3,256.9L79.3,256.9c6.1,3,8.6,10.4,5.6,16.5L69.6,304c-3,6.1-10.4,8.6-16.5,5.6h0
		c-6.1-3-8.6-10.4-5.6-16.5l15.2-30.7C65.8,256.3,73.2,253.8,79.3,256.9z"/>
	<path class="st5" d="M69,290.8L69,290.8c3.8,5.6,2.3,13.3-3.4,17.1L37.3,327c-5.6,3.8-13.3,2.3-17.1-3.4l0,0
		c-3.8-5.6-2.3-13.3,3.4-17.1l28.4-19.1C57.6,283.7,65.2,285.2,69,290.8z"/>
	<line class="st5" x1="27.9" y1="303.6" x2="41.6" y2="324.1"/>
	<line class="st5" x1="40.7" y1="267.6" x2="43" y2="267.6"/>
	<line class="st7" x1="47.7" y1="267.6" x2="111.4" y2="267.6"/>
	<line class="st5" x1="113.7" y1="267.6" x2="116" y2="267.6"/>
	<line class="st5" x1="2.3" y1="163.4" x2="4.6" y2="163.4"/>
	<line class="st7" x1="9.3" y1="163.4" x2="73" y2="163.4"/>
	<line class="st5" x1="75.4" y1="163.4" x2="77.6" y2="163.4"/>
	<line class="st5" x1="237.2" y1="163.4" x2="239.4" y2="163.4"/>
	<line class="st7" x1="244.2" y1="163.4" x2="307.8" y2="163.4"/>
	<line class="st5" x1="199.3" y1="267.6" x2="201.5" y2="267.6"/>
	<line class="st7" x1="206.2" y1="267.6" x2="269.9" y2="267.6"/>
	<line class="st5" x1="272.3" y1="267.6" x2="274.6" y2="267.6"/>
	<line class="st8" x1="157.6" y1="215.1" x2="157.6" y2="244.5"/>
	<line class="st8" x1="157.6" y1="0" x2="157.6" y2="80.8"/>
	<path class="st2" d="M214.4,20.3c0,0,0.7-3.5-2.3-3.5c-1.9,0-6.6-1.8-9.9-3.2c-4-2-8.4-2.9-12.8-2.8c-0.9,0-1.6,0-1.8,0.1
		c-1,0-9.1,0.3-15.2,3.7l-0.1-0.1c-3.2,2.2-7.1,3.4-11,3.5h-0.5c-1.9-0.1-3.8,0-5.5,0c-0.4,0-0.9-0.1-1.4-0.1
		c-3.9-0.1-7.8-1.3-11-3.5v0.1c-6.1-3.3-14.1-3.6-15.1-3.6c-0.2,0-0.9-0.1-1.8-0.1c-3.3,0-8.5,0.5-13,2.9c-3.2,1.3-7.9,3.1-9.7,3.1
		c-3,0-2.3,3.5-2.3,3.5l-0.1,2.7c0.1,0.8,0.6,1.4,1.4,1.6c1.3,0.4,1.6,1.3,2,4.2c0.5,3.7,1.7,7.2,3.4,10.5C113,51,124.3,52,128.1,52
		c0.9,0,1.5-0.1,1.8-0.1c5.6-0.5,10.8-3.1,14.5-7.2c3.7-4.3,5.6-10,5.5-17c0.4-2.2,1.9-4.1,4-4.8c2.3-0.2,4.5-0.2,6.8-0.2
		c0.5,0.1,3.9,1,4.7,5.5c0.1,6.8,1.9,12.3,5.5,16.5c3.8,4.2,9,6.7,14.5,7.3c0.2,0,0.8,0.1,1.8,0.1c3.7,0,14.6-1,20.1-11.8
		c2-3.6,3.3-7.4,3.9-11.5c0.4-2.9,0.7-3.8,2-4.2c0.7-0.2,1.3-0.8,1.4-1.6L214.4,20.3z M140.9,41.6c-2.9,3.2-7,5.2-11.3,5.7h-0.2
		c-0.1,0-0.5,0.1-1.3,0.1c-4.6,0-15.5-1.6-18-16.2c-0.8-4.6-0.1-8.2,2-10.7c3.7-4.4,10.9-4.8,13.8-4.8c0.9,0,1.4,0,1.5,0h0.2
		c0.2,0,16.8,0.5,17.5,8.9C145.7,31.9,144.3,37.6,140.9,41.6z M205.3,31.1c-2.5,14.6-13.5,16.2-18,16.2c-0.8,0-1.2,0-1.3-0.1h-0.2
		c-4.3-0.4-8.4-2.4-11.3-5.7c-3.4-4-4.8-9.7-4.2-17.1c0.8-8.3,17.4-8.8,17.7-8.9c0,0,0.6,0,1.5,0c2.9,0,10.1,0.5,13.8,4.8
		C205.4,22.9,206,26.5,205.3,31.1z"/>
	<circle class="st5" cx="40" cy="162.9" r="16.3"/>
	<circle class="st5" cx="274.8" cy="162.9" r="16.3"/>
</g>
</svg>
