<?xml version="1.0" encoding="utf-8"?>
<!-- Generator: Adobe Illustrator 21.0.0, SVG Export Plug-In . SVG Version: 6.00 Build 0)  -->
<svg version="1.1" id="Calque_1" xmlns="http://www.w3.org/2000/svg" xmlns:xlink="http://www.w3.org/1999/xlink" x="0px" y="0px"
	 width="320px" height="480px" viewBox="0 0 320 480" style="enable-background:new 0 0 320 480;" xml:space="preserve">
<style type="text/css">
	.st0{fill:#935BA2;}
	.st1{fill:#FFFFFF;}
	.st2{fill:#EF70A1;}
	.st3{fill:#633575;}
	.st4{clip-path:url(#SVGID_2_);}
</style>
<g id="Calque_1_1_">
</g>
<g id="Mode_Isolation">
	<g>
		<g>
			<circle class="st0" cx="227.9" cy="171.8" r="52.1"/>
			<circle class="st1" cx="227.9" cy="171.8" r="36.8"/>
			<circle cx="227.9" cy="171.8" r="13.9"/>
			<circle class="st1" cx="232.7" cy="163.3" r="6.3"/>
			<circle class="st0" cx="94.2" cy="171.8" r="52.1"/>
			<circle class="st1" cx="94.2" cy="171.8" r="36.8"/>
			<circle cx="94.2" cy="171.8" r="13.9"/>
			<circle class="st1" cx="99.1" cy="163.3" r="6.3"/>
		</g>
		<path class="st2" d="M239.7,362H82.4c-22.2,0-40.3-18.1-40.3-40.3l0,0c0-22.2,18.1-40.3,40.3-40.3h157.2
			c22.2,0,40.3,18.1,40.3,40.3l0,0C280,343.9,261.8,362,239.7,362z"/>
		<g>
			<circle class="st3" cx="150.5" cy="226" r="5.7"/>
			<circle class="st3" cx="171.6" cy="226" r="5.7"/>
		</g>
		<g>
			<g>
				<defs>
					<path id="SVGID_1_" d="M239.7,362H82.4c-22.2,0-40.3-18.1-40.3-40.3l0,0c0-22.2,18.1-40.3,40.3-40.3h157.2
						c22.2,0,40.3,18.1,40.3,40.3l0,0C280,343.9,261.8,362,239.7,362z"/>
				</defs>
				<clipPath id="SVGID_2_">
					<use xlink:href="#SVGID_1_"  style="overflow:visible;"/>
				</clipPath>
				<g class="st4">
					<g>
						<path class="st1" d="M22.2,281.4c0,9.6-7.8,17.4-17.4,17.4s-17.4-7.8-17.4-17.4"/>
						<path class="st1" d="M56.9,281.4c0,9.6-7.8,17.4-17.4,17.4s-17.4-7.8-17.4-17.4"/>
						<path class="st1" d="M91.6,281.4c0,9.6-7.8,17.4-17.4,17.4s-17.4-7.8-17.4-17.4"/>
						<path class="st1" d="M126.3,281.4c0,9.6-7.8,17.4-17.4,17.4s-17.4-7.8-17.4-17.4"/>
						<path class="st1" d="M161.1,281.4c0,9.6-7.8,17.4-17.4,17.4s-17.4-7.8-17.4-17.4"/>
						<path class="st1" d="M195.8,281.4c0,9.6-7.8,17.4-17.4,17.4c-9.6,0-17.4-7.8-17.4-17.4"/>
						<path class="st1" d="M230.5,281.4c0,9.6-7.8,17.4-17.4,17.4s-17.4-7.8-17.4-17.4"/>
						<path class="st1" d="M265.2,281.4c0,9.6-7.8,17.4-17.4,17.4s-17.4-7.8-17.4-17.4"/>
						<path class="st1" d="M300,281.4c0,9.6-7.8,17.4-17.4,17.4s-17.4-7.8-17.4-17.4"/>
						<path class="st1" d="M334.7,281.4c0,9.6-7.8,17.4-17.4,17.4s-17.4-7.8-17.4-17.4"/>
					</g>
					<g>
						<path class="st1" d="M300,362.4c0-9.6,7.8-17.4,17.4-17.4s17.4,7.8,17.4,17.4"/>
						<path class="st1" d="M265.2,362.4c0-9.6,7.8-17.4,17.4-17.4s17.4,7.8,17.4,17.4"/>
						<path class="st1" d="M230.5,362.4c0-9.6,7.8-17.4,17.4-17.4c9.6,0,17.4,7.8,17.4,17.4"/>
						<path class="st1" d="M195.8,362.4c0-9.6,7.8-17.4,17.4-17.4s17.4,7.8,17.4,17.4"/>
						<path class="st1" d="M161.1,362.4c0-9.6,7.8-17.4,17.4-17.4s17.4,7.8,17.4,17.4"/>
						<path class="st1" d="M126.3,362.4c0-9.6,7.8-17.4,17.4-17.4s17.4,7.8,17.4,17.4"/>
						<path class="st1" d="M91.6,362.4c0-9.6,7.8-17.4,17.4-17.4s17.4,7.8,17.4,17.4"/>
						<path class="st1" d="M56.9,362.4c0-9.6,7.8-17.4,17.4-17.4s17.4,7.8,17.4,17.4"/>
						<path class="st1" d="M22.2,362.4c0-9.6,7.8-17.4,17.4-17.4S57,352.8,57,362.4"/>
						<path class="st1" d="M-12.6,362.4c0-9.6,7.8-17.4,17.4-17.4s17.4,7.8,17.4,17.4"/>
					</g>
				</g>
			</g>
		</g>
	</g>
</g>
</svg>
