<svg id="Calque_1" data-name="Calque 1" xmlns="http://www.w3.org/2000/svg" viewBox="0 0 80 80"><defs><style>.cls-1{fill:#231f20;}</style></defs><title>nav_buttons</title><path class="cls-1" d="M40,14S20.75,33.65,20.75,44.28a19.25,19.25,0,0,0,38.5,0C59.25,33.65,40,14,40,14Zm4.58,44.64q-0.65.2-1.32,0.34a1.57,1.57,0,0,1-.31,0,1.5,1.5,0,0,1-.31-3c0.36-.08.72-0.17,1.07-0.28A1.5,1.5,0,0,1,44.58,58.67ZM51,54.79a1.5,1.5,0,0,1-2.12-2.12,12.47,12.47,0,0,0,3.67-8.87c0-1.75-.94-4.26-2.72-7.25A1.5,1.5,0,1,1,52.42,35c2.11,3.55,3.14,6.43,3.14,8.78A15.45,15.45,0,0,1,51,54.79Z"/></svg>