<svg id="Calque_1" data-name="Calque 1" xmlns="http://www.w3.org/2000/svg" viewBox="0 0 80 80"><defs><style>.cls-1{fill:#231f20;}</style></defs><title>nav_buttons</title><path class="cls-1" d="M38.74,6.18A23.36,23.36,0,1,0,62.1,29.55,23.36,23.36,0,0,0,38.74,6.18Zm0,39.88A16.52,16.52,0,1,1,55.26,29.55,16.52,16.52,0,0,1,38.74,46.06Z"/><polygon class="cls-1" points="38.42 35.44 31.07 39.3 32.48 31.12 26.53 25.33 34.75 24.13 38.42 16.69 42.1 24.13 50.31 25.33 44.37 31.12 45.77 39.3 38.42 35.44"/><path class="cls-1" d="M25.51,52V73.82l13.23-8,13.23,8V52A26.08,26.08,0,0,1,25.51,52Z"/></svg>