<svg id="Calque_1" data-name="Calque 1" xmlns="http://www.w3.org/2000/svg" viewBox="0 0 80 80"><defs><style>.cls-1{fill:#231f20;}</style></defs><title>nav_buttons</title><path class="cls-1" d="M29.56,63.62a7.05,7.05,0,0,1-3.24-.76c-2.74-1.4-4.32-4.5-4.32-8.51V25.66c0-4,1.57-7.11,4.32-8.51s6.18-.86,9.43,1.49L53.17,31.25A10.9,10.9,0,0,1,58,40a10.9,10.9,0,0,1-4.82,8.75L35.75,61.36A10.72,10.72,0,0,1,29.56,63.62Zm0-40.17H29.51a4,4,0,0,0-.44,2.21V54.34a3.54,3.54,0,0,0,.49,2.23,4,4,0,0,0,2-.94L49,43a3.93,3.93,0,0,0,1.89-3A3.93,3.93,0,0,0,49,37L31.61,24.37A4,4,0,0,0,29.59,23.45Z"/></svg>