<svg id="Mode_Isolation" data-name="Mode Isolation" xmlns="http://www.w3.org/2000/svg" viewBox="0 0 80 80"><defs><style>.cls-1{fill:#231f20;}</style></defs><title>nav_buttons</title><path class="cls-1" d="M21.06,49.49l5.4-1.27,0.14,2.26-8.86,2.11-0.1-1.68,4.87-9.5-5.41,1.27L17,40.41l8.83-2.1,0.1,1.63Z"/><path class="cls-1" d="M33.61,40.32l8.17-1.92L42,41.83,28.58,45l-0.15-2.54,7.37-14.39L27.6,30l-0.2-3.44,13.38-3.18,0.15,2.47Z"/><path class="cls-1" d="M52,50.41l10.8-2.53L63,52.39,45.32,56.61l-0.2-3.35,9.73-19L44,36.78l-0.26-4.54L61.43,28l0.2,3.27Z"/></svg>