<svg id="Mode_Isolation" data-name="Mode Isolation" xmlns="http://www.w3.org/2000/svg" viewBox="0 0 80 80"><defs><style>.cls-1{fill:#8d5629;}.cls-2,.cls-9{fill:#fedeb9;}.cls-14,.cls-2,.cls-8{stroke:#010101;stroke-opacity:0;stroke-width:0.17px;}.cls-3{fill:#fff;}.cls-4{fill:#0c0d0d;}.cls-5{fill:#231f20;}.cls-13,.cls-6{fill:none;}.cls-6{stroke:#231f20;stroke-width:0.94px;}.cls-7{fill:#010101;}.cls-8{fill:#46ae4e;}.cls-10,.cls-14{fill:#da233b;}.cls-11{fill:#cdcccc;}.cls-12{fill:#eb2630;}.cls-13{stroke:#fff;stroke-miterlimit:10;stroke-width:0.6px;}</style></defs><title>nav_buttons</title><g id="container"><g id="container_1" data-name="container 1"><g id="body"><g id="head"><g id="backhairs_container" data-name="backhairs container"><g id="container_2" data-name="container 2"><g id="container_3" data-name="container 3"><g id="container_4" data-name="container 4"><path id="shape" class="cls-1" d="M32.95,31.81l-5.16,2.7L24.64,31l-2.69,1.57a20.11,20.11,0,0,1-.34-6.18,18.73,18.73,0,0,1,7-13.13A18.74,18.74,0,0,1,42.83,8.88a18.75,18.75,0,0,1,13.15,7A18.73,18.73,0,0,1,60.34,30.1a19.72,19.72,0,0,1-1.51,6l-4.28-2.52-6.2,3L43.4,32.81l-5.85,3Z"/></g></g></g></g><path id="ghead" class="cls-2" d="M21.8,27.24A19.16,19.16,0,0,1,42.71,10h0A19.16,19.16,0,0,1,60,30.92l-0.74,7.66A10.92,10.92,0,0,1,47.3,48.4L30.88,46.82a10.92,10.92,0,0,1-9.82-11.92Z"/><path id="neck" class="cls-2" d="M38,47.18h0l2.17,0.21h0l0,0.33a0.76,0.76,0,0,1-.83.69l-0.65-.06A0.76,0.76,0,0,1,38,47.51Z"/><g id="faces_container" data-name="faces container"><g id="container_5" data-name="container 5"><g id="container_6" data-name="container 6"><path id="shape_2" data-name="shape 2" class="cls-3" d="M30.53,31.51a5.2,5.2,0,0,1,8-6.61A5.2,5.2,0,1,1,30.53,31.51Z"/><path id="shape_3" data-name="shape 3" class="cls-3" d="M43.39,32.75a5.17,5.17,0,1,1,3.5,1.87A5,5,0,0,1,43.39,32.75Z"/><g id="container_7" data-name="container 7"><path id="shape_4" data-name="shape 4" class="cls-1" d="M31.61,30.7a3.79,3.79,0,0,1,3.28-6.18,3.77,3.77,0,0,1,2,6.69A3.75,3.75,0,0,1,31.61,30.7Z"/></g><path id="shape_5" data-name="shape 5" class="cls-4" d="M33,29.49A2,2,0,0,1,32.52,28a2,2,0,0,1,4,.39A2,2,0,0,1,33,29.49Z"/><path id="shape_6" data-name="shape 6" class="cls-3" d="M34.73,27.68A0.84,0.84,0,0,1,34.53,27a0.87,0.87,0,0,1,.94-0.77,0.84,0.84,0,0,1,.59.31,0.83,0.83,0,0,1,.2.63,0.87,0.87,0,0,1-.95.78A0.83,0.83,0,0,1,34.73,27.68Z"/><path id="shape_7" data-name="shape 7" class="cls-3" d="M34.31,29.28A0.25,0.25,0,0,1,34.22,29a0.85,0.85,0,0,1,.14-0.38,1,1,0,0,1,.28-0.32,0.21,0.21,0,0,1,.25,0,0.23,0.23,0,0,1,.09.26,0.93,0.93,0,0,1-.14.38,1,1,0,0,1-.29.31,0.24,0.24,0,0,1-.18.07Z"/><g id="container_8" data-name="container 8"><path id="shape_8" data-name="shape 8" class="cls-1" d="M44.44,31.93a3.79,3.79,0,0,1,3.28-6.18,3.77,3.77,0,0,1,2,6.69A3.75,3.75,0,0,1,44.44,31.93Z"/></g><path id="shape_9" data-name="shape 9" class="cls-4" d="M45.83,30.73a2,2,0,0,1-.45-1.48,2,2,0,0,1,4,.39A2,2,0,0,1,45.83,30.73Z"/><path id="shape_10" data-name="shape 10" class="cls-3" d="M47.58,28.92a0.84,0.84,0,0,1-.19-0.64,0.87,0.87,0,0,1,.94-0.77,0.84,0.84,0,0,1,.59.31,0.83,0.83,0,0,1,.2.63,0.87,0.87,0,0,1-.95.78A0.83,0.83,0,0,1,47.58,28.92Z"/><path id="shape_11" data-name="shape 11" class="cls-3" d="M47.14,30.52a0.26,0.26,0,0,1-.08-0.25,0.72,0.72,0,0,1,.14-0.38,0.87,0.87,0,0,1,.28-0.32,0.21,0.21,0,0,1,.25,0,0.26,0.26,0,0,1,.09.26,0.75,0.75,0,0,1-.14.38,1,1,0,0,1-.29.31,0.24,0.24,0,0,1-.18.07Z"/></g><g id="container_10" data-name="container 10"><path id="shape_12" data-name="shape 12" class="cls-5" d="M35.65,41.3a2.2,2.2,0,0,1-.47-1.47A0.73,0.73,0,0,1,36,39.15l7.8,0.75a0.72,0.72,0,0,1,.51.27,0.7,0.7,0,0,1,.16.56,2.27,2.27,0,0,1-.74,1.35q-1.32,1.32-4.18,1T35.65,41.3Z"/></g><g id="container_12" data-name="container 12"><path id="shape_15" data-name="shape 15" class="cls-6" d="M39.25,32.13l2.34,0.23a1.43,1.43,0,0,1,1,.53,1.41,1.41,0,0,1,.33,1.06,1.47,1.47,0,0,1-1.61,1.33L39,35"/></g><g id="container_13" data-name="container 13"><g id="container_14" data-name="container 14"><path id="shape_16" data-name="shape 16" class="cls-7" d="M43.85,34.5A5.74,5.74,0,0,1,42,31.83h0v0a8.05,8.05,0,0,1-.45-1.68,13,13,0,0,0-.29-1.27A0.47,0.47,0,0,0,41,28.64h0l-0.23-.07-0.17,0h0a0.52,0.52,0,0,0-.32.16q-0.06.11-.5,1.19A8.93,8.93,0,0,1,39,31.53v0h0a5.83,5.83,0,0,1-2.35,2.26,5.86,5.86,0,0,1-6-.34,5.7,5.7,0,0,1-1.87-2.08h0a4.24,4.24,0,0,1-.37-0.87,5.48,5.48,0,0,1-.25-1h0l-0.21-1.28h0a2.78,2.78,0,0,0-.17-0.63,0.79,0.79,0,0,0-.47-0.22,2.19,2.19,0,0,0-.39-0.06l-0.1,0a0.17,0.17,0,0,1-.06-0.07,0.16,0.16,0,0,1,0-.11l0.14-1.45a0.25,0.25,0,0,1,.07-0.13,0.18,0.18,0,0,1,.14,0,3.42,3.42,0,0,0,.71,0h0A2.2,2.2,0,0,0,28.88,25a11.82,11.82,0,0,1,1.83-1.29h0l0.36-.22h0a5.41,5.41,0,0,1,1.58-.59,6,6,0,0,1,4,.59,5.81,5.81,0,0,1,1.73,1.44h0q0.3,0.34.64,0.79l0.6,0.82a0.83,0.83,0,0,0,.55.39h0a3.81,3.81,0,0,0,.68,0h0a4.68,4.68,0,0,1,.73.15,0.88,0.88,0,0,0,.61-0.27L43,26.09h0q0.43-.39.77-0.66h0a5.8,5.8,0,0,1,4.29-1.32,5.73,5.73,0,0,1,1.7.43,6,6,0,0,1,1.42.84l0.07,0.05,0.33,0.3h0a11.78,11.78,0,0,1,1.53,1.62h0a2,2,0,0,0,1,.68,3.4,3.4,0,0,0,.68.17,0.19,0.19,0,0,1,.17.21l-0.14,1.45a0.2,0.2,0,0,1,0,.1L54.75,30H54.64a2,2,0,0,0-.38,0,0.82,0.82,0,0,0-.51.12,3,3,0,0,0-.26.59l-0.45,1.21h0a6.63,6.63,0,0,1-.43.91,3.81,3.81,0,0,1-.54.79h0A5.85,5.85,0,0,1,43.85,34.5Zm0.67-8.19a4.49,4.49,0,0,0-1.71,3.17,4.55,4.55,0,0,0,1.06,3.45h0a4.71,4.71,0,0,0,6.63.64,4.71,4.71,0,0,0,.64-6.63h0A4.69,4.69,0,0,0,44.53,26.31ZM29.21,28.17a4.72,4.72,0,1,0,9.39.9,4.55,4.55,0,0,0-1.05-3.44h0A4.7,4.7,0,0,0,30.91,25h0A4.54,4.54,0,0,0,29.21,28.17Z"/></g></g></g></g><g id="hairs_container" data-name="hairs container"><g id="container_15" data-name="container 15"><g id="container_16" data-name="container 16"><g id="container_17" data-name="container 17"><path id="shape_17" data-name="shape 17" class="cls-1" d="M54.73,22.25q-0.68-1.36-1.19-2.64l-0.38-1a8.79,8.79,0,0,0,.34,1.78q0.19,0.73.38,1.41a13.76,13.76,0,0,1-2-4.33q-0.27-.9-0.49-1.83l-0.09-.4a0.24,0.24,0,0,0-.36-0.15,21.55,21.55,0,0,1-8.23,2.69q-1.77.27-3.63,0.42l-1.1.06a0.24,0.24,0,0,1-.23-0.35L38,17.45a0.24,0.24,0,0,0-.35-0.31,25.93,25.93,0,0,1-5.83,2.78q-1.85.65-3.36,1a0.24,0.24,0,0,1-.28-0.32h0a0.24,0.24,0,0,0-.41-0.24,34.72,34.72,0,0,1-3.4,3.67q-1.25,1.2-2.29,2a0.24,0.24,0,0,1-.39-0.22,19.07,19.07,0,0,1,2.16-6.75q0.23-.43.48-0.84a0.24,0.24,0,0,0,0-.17L22.29,8.44a0.24,0.24,0,0,1,.34-0.26L30.29,12a0.24,0.24,0,0,0,.23,0l0.79-.47a0.24,0.24,0,0,0,.09-0.33L28.76,6.54a0.24,0.24,0,0,1,.3-0.34l8.09,3.15a0.23,0.23,0,0,0,.13,0A19.31,19.31,0,0,1,55.7,16a19.22,19.22,0,0,1,3.52,6.49,19,19,0,0,1,.84,7,0.24,0.24,0,0,1-.42.14A37.71,37.71,0,0,1,54.73,22.25Z"/></g></g></g></g></g><g id="legLeft"><g id="flegLeft"><path id="fleg_left" data-name="fleg left" class="cls-8" d="M29.15,62.47h0a1.64,1.64,0,0,1,1.26,1.94l-1,4.7a1.64,1.64,0,0,1-1.94,1.26h0a1.64,1.64,0,0,1-1.26-1.94l1-4.7A1.64,1.64,0,0,1,29.15,62.47Z"/><g id="shoes_01" data-name="shoes 01"><g id="container_25" data-name="container 25"><g id="container_26" data-name="container 26"><g id="container_27" data-name="container 27"><path id="shape_21" data-name="shape 21" class="cls-9" d="M28.89,71.4l0.42-2-3.18-.68-0.23,1.07q-1.27-.19-1.47.62Z"/></g><g id="container_28" data-name="container 28"><path id="shape_22" data-name="shape 22" class="cls-10" d="M29.08,71.37a1.37,1.37,0,0,0,.25-0.52h0V70.76q0.08-.37.13-0.78a9.56,9.56,0,0,0,.11-1q0-.43-0.38-0.34a1.29,1.29,0,0,0-.39.18,1.81,1.81,0,0,1-1.51.05,3,3,0,0,1-.77-0.36,0.47,0.47,0,0,0-.09-0.23l-0.08-.09A0.28,0.28,0,0,0,26.1,68a0.14,0.14,0,0,0-.09.06,3.53,3.53,0,0,1-.29.75l-0.19.07a0.68,0.68,0,0,0-.21,0L24.75,69a1.93,1.93,0,0,0-1,.51,1.8,1.8,0,0,0-.31.42,0.91,0.91,0,0,0-.06.17Z"/></g><path id="shape_23" data-name="shape 23" class="cls-11" d="M29,72l0.13-.6L23.4,70.16l-0.13.6Z"/><path id="shape_24" data-name="shape 24" class="cls-12" d="M29,71.75l0-.15-5.68-1.21,0,0.15Z"/><path id="shape_25" data-name="shape 25" class="cls-13" d="M25.82,69.44l-0.33-.55"/><path id="shape_26" data-name="shape 26" class="cls-13" d="M25.38,69.51L25,69"/><path id="shape_27" data-name="shape 27" class="cls-13" d="M24.94,69.59L24.61,69"/><path id="shape_28" data-name="shape 28" class="cls-3" d="M28.58,70.06a0.3,0.3,0,0,0,.13-0.19,0.31,0.31,0,0,0-.23-0.36,0.28,0.28,0,0,0-.23,0,0.29,0.29,0,0,0-.13.19,0.3,0.3,0,0,0,0,.23,0.28,0.28,0,0,0,.19.13A0.29,0.29,0,0,0,28.58,70.06Z"/></g></g></g></g><path id="leg_left" data-name="leg left" class="cls-8" d="M32.46,58.77h0A1.64,1.64,0,0,1,32.88,61l-2.73,4a1.64,1.64,0,0,1-2.28.42h0a1.64,1.64,0,0,1-.42-2.28l2.73-4A1.64,1.64,0,0,1,32.46,58.77Z"/></g><g id="legRight"><g id="flegRight"><path id="fleg_right" data-name="fleg right" class="cls-8" d="M41.83,65.6h0a1.64,1.64,0,0,1,2.14.89l1.83,4.44a1.64,1.64,0,0,1-.89,2.14h0a1.64,1.64,0,0,1-2.14-.89l-1.83-4.44A1.64,1.64,0,0,1,41.83,65.6Z"/><g id="shoes_02" data-name="shoes 02"><g id="container_29" data-name="container 29"><g id="container_30" data-name="container 30"><g id="container_31" data-name="container 31"><path id="shape_29" data-name="shape 29" class="cls-9" d="M43.69,74.34l-0.77-1.85,3-1.24,0.42,1q1.22-.41,1.55.34Z"/></g><g id="container_32" data-name="container 32"><path id="shape_30" data-name="shape 30" class="cls-10" d="M43.5,74.33a1.37,1.37,0,0,1-.34-0.47h0l0-.08Q43,73.43,42.85,73a9.56,9.56,0,0,1-.29-1q-0.09-.42.31-0.41a1.29,1.29,0,0,1,.42.1,1.81,1.81,0,0,0,1.5-.22,3,3,0,0,0,.7-0.49,0.47,0.47,0,0,1,0-.25l0.06-.1a0.28,0.28,0,0,1,.23-0.17,0.14,0.14,0,0,1,.09,0,3.53,3.53,0,0,0,.42.69l0.2,0a0.68,0.68,0,0,1,.21,0l0.59,0a1.93,1.93,0,0,1,1,.33,1.8,1.8,0,0,1,.38.36,0.91,0.91,0,0,1,.09.16Z"/></g><path id="shape_31" data-name="shape 31" class="cls-11" d="M43.73,74.91l-0.23-.56,5.37-2.22,0.23,0.56Z"/><path id="shape_32" data-name="shape 32" class="cls-12" d="M43.65,74.69l-0.06-.14L49,72.34,49,72.48Z"/><path id="shape_33" data-name="shape 33" class="cls-13" d="M46.36,71.85l0.23-.6"/><path id="shape_34" data-name="shape 34" class="cls-13" d="M46.81,71.84l0.23-.6"/><path id="shape_35" data-name="shape 35" class="cls-13" d="M47.25,71.84l0.23-.6"/><path id="shape_36" data-name="shape 36" class="cls-3" d="M43.76,73a0.3,0.3,0,0,1-.17-0.16,0.31,0.31,0,0,1,.16-0.39,0.28,0.28,0,0,1,.23,0,0.29,0.29,0,0,1,.16.16,0.3,0.3,0,0,1,0,.23A0.28,0.28,0,0,1,44,73,0.29,0.29,0,0,1,43.76,73Z"/></g></g></g></g><path id="leg_right" data-name="leg right" class="cls-8" d="M40.32,61h0a1.64,1.64,0,0,1,2.09,1L44,66.58a1.64,1.64,0,0,1-1,2.09h0a1.64,1.64,0,0,1-2.09-1l-1.58-4.54A1.64,1.64,0,0,1,40.32,61Z"/></g><path id="gbody" class="cls-14" d="M32.08,50.55a4.37,4.37,0,0,1,5.2-3.33L40.9,48a4.37,4.37,0,0,1,3.33,5.2l-1.89,8.64h0L30.19,59.19h0Z"/><rect id="shape_37" data-name="shape 37" class="cls-8" x="34.3" y="55.79" width="3.28" height="12.45" transform="translate(-32.32 83.87) rotate(-77.66)"/><g id="tops_container" data-name="tops container"><g id="container_33" data-name="container 33"><g id="container_34" data-name="container 34"><g id="container_35" data-name="container 35"><path id="shape_38" data-name="shape 38" class="cls-9" d="M37.51,48.5a1.74,1.74,0,1,1,2.93-1.88,1.73,1.73,0,0,1-.53,2.4A1.73,1.73,0,0,1,37.51,48.5Z"/></g></g></g></g><g id="armRight"><g id="farmRight"><path id="farm_right" data-name="farm right" class="cls-14" d="M49.06,54.25h0A1.64,1.64,0,0,1,49.38,52l4.8-3.61a1.64,1.64,0,0,1,2.29.32h0A1.64,1.64,0,0,1,56.15,51l-4.8,3.61A1.64,1.64,0,0,1,49.06,54.25Z"/><g id="hands_02" data-name="hands 02"><g id="container_36" data-name="container 36"><g id="container_37" data-name="container 37"><g id="container_38" data-name="container 38"><path id="shape_48" data-name="shape 48" class="cls-9" d="M58.05,48.94A1.6,1.6,0,0,1,57.43,50h0l-1.28,1-2-2.61,1.28-1h0A1.64,1.64,0,0,1,58.05,48.94Z"/></g></g></g></g></g><path id="arm_right" data-name="arm right" class="cls-14" d="M42.85,51.87h0a1.64,1.64,0,0,1,1.91-1.31l5.9,1.1A1.64,1.64,0,0,1,52,53.57h0a1.64,1.64,0,0,1-1.91,1.31l-5.9-1.1A1.64,1.64,0,0,1,42.85,51.87Z"/></g><g id="armLeft"><g id="farmLeft"><path id="farm_left" data-name="farm left" class="cls-14" d="M28.06,47.62h0a1.64,1.64,0,0,1-1.16,2l-5.8,1.55a1.64,1.64,0,0,1-2-1.16h0a1.64,1.64,0,0,1,1.16-2l5.8-1.55A1.64,1.64,0,0,1,28.06,47.62Z"/><g id="hands_01" data-name="hands 01"><g id="container_39" data-name="container 39"><g id="container_40" data-name="container 40"><g id="container_41" data-name="container 41"><path id="shape_49" data-name="shape 49" class="cls-9" d="M18.33,51.42a1.6,1.6,0,0,0,1.23.17h0l1.54-.41L20.27,48l-1.54.41h0A1.64,1.64,0,0,0,18.33,51.42Z"/></g></g></g></g></g><path id="arm_left" data-name="arm left" class="cls-14" d="M33.89,49.91h0a1.64,1.64,0,0,1-2,1.19l-5.82-1.47a1.64,1.64,0,0,1-1.19-2h0a1.64,1.64,0,0,1,2-1.19l5.82,1.47A1.64,1.64,0,0,1,33.89,49.91Z"/></g></g></g><circle class="cls-3" cx="38.21" cy="52.06" r="0.81" transform="translate(-20.39 79.19) rotate(-78.56)"/><path class="cls-3" d="M41.51,52.8l0-.11-1.32-.27,0,0.11h0a2,2,0,1,1-4-.8h0l0-.11-1.32-.27,0,0.11a3.38,3.38,0,1,0,6.62,1.34"/></g><circle class="cls-1" cx="25.36" cy="34.59" r="0.36" transform="translate(-13.59 52.54) rotate(-78.49)"/><circle class="cls-1" cx="53.91" cy="36.35" r="0.36" transform="translate(7.53 81.93) rotate(-78.49)"/><circle class="cls-1" cx="54.04" cy="37.47" r="0.36" transform="translate(6.54 82.95) rotate(-78.49)"/><circle class="cls-1" cx="52.55" cy="37.6" r="0.36" transform="translate(5.22 81.59) rotate(-78.49)"/><circle class="cls-1" cx="53.42" cy="35.13" r="0.36" transform="translate(8.34 80.46) rotate(-78.49)"/><circle class="cls-1" cx="54.86" cy="35.18" r="0.36" transform="translate(9.44 81.92) rotate(-78.49)"/><circle class="cls-1" cx="52.82" cy="36.25" r="0.36" transform="translate(6.76 80.78) rotate(-78.49)"/><circle class="cls-1" cx="26.72" cy="33.92" r="0.36" transform="translate(-11.85 53.33) rotate(-78.49)"/><circle class="cls-1" cx="28.31" cy="34.25" r="0.36" transform="translate(-10.89 55.15) rotate(-78.49)"/><circle class="cls-1" cx="27.47" cy="35.39" r="0.36" transform="translate(-12.68 55.24) rotate(-78.49)"/><circle class="cls-1" cx="25.74" cy="32.72" r="0.36" transform="translate(-11.46 51.42) rotate(-78.49)"/><circle class="cls-1" cx="26.3" cy="35.97" r="0.36" transform="translate(-14.19 54.56) rotate(-78.49)"/><polygon class="cls-7" points="26.7 27.23 21.61 26.46 21.75 25.04 27.01 25.51 26.7 27.23"/><polygon class="cls-7" points="54.74 30 60.34 30.1 60.41 28.72 54.84 28.19 54.74 30"/><g id="container_18" data-name="container 18"><g id="container_19" data-name="container 19"><path id="shape_18" data-name="shape 18" class="cls-9" d="M57.48,38.21a2.41,2.41,0,0,1-.58-1.42V36.73h0v0a40,40,0,0,1-.1-4.09,3.69,3.69,0,0,1,7.34.71,3.51,3.51,0,0,1-1.33,2.47,3,3,0,0,0-1,1.63A1.7,1.7,0,0,1,61,38.6a2.48,2.48,0,0,1-1.84.53A2.44,2.44,0,0,1,57.48,38.21ZM57,35.77l0-.06,0-.31ZM18.51,34.5A1.7,1.7,0,0,1,18,33.18a3,3,0,0,0-.67-1.79,3.51,3.51,0,0,1-.83-2.68,3.69,3.69,0,0,1,6.52-2,3.55,3.55,0,0,1,.83,2.7,40,40,0,0,1-.88,4v0h0v0.06a2.41,2.41,0,0,1-.85,1.29,2.44,2.44,0,0,1-1.86.57A2.48,2.48,0,0,1,18.51,34.5ZM23,32.43V32.12Z"/></g></g></svg>