<svg id="eyes" xmlns="http://www.w3.org/2000/svg" viewBox="0 0 80 80"><defs><style>.cls-1{fill:#231f20;}</style></defs><title>nav_buttons</title><polygon class="cls-1" points="39.44 10.83 39.44 47.33 40.56 47.33 40.56 10.84 50.31 20.59 51.1 19.8 39.99 8.7 28.89 19.8 29.69 20.59 39.44 10.83"/><path class="cls-1" d="M51,26.19H45.5v1.12H51a6.45,6.45,0,0,1,6.44,6.44v22A6.45,6.45,0,0,1,51,62.19H29a6.45,6.45,0,0,1-6.44-6.44v-22A6.45,6.45,0,0,1,29,27.31h5.5V26.19H29a7.57,7.57,0,0,0-7.56,7.56v22A7.57,7.57,0,0,0,29,63.31H51a7.57,7.57,0,0,0,7.56-7.56v-22A7.57,7.57,0,0,0,51,26.19Z"/></svg>