<svg id="Calque_1" data-name="Calque 1" xmlns="http://www.w3.org/2000/svg" xmlns:xlink="http://www.w3.org/1999/xlink" viewBox="0 0 80 80"><defs><style>.cls-1{fill:none;}.cls-2{fill:#2a80b9;}.cls-3{clip-path:url(#clip-path);}.cls-4{fill:#fff;}.cls-5{fill:#e74c3c;}</style><clipPath id="clip-path"><rect class="cls-1" x="11.98" y="18.18" width="56.04" height="43.63" rx="3" ry="3"/></clipPath></defs><title>nav_buttons</title><rect class="cls-2" x="11.98" y="18.18" width="56.04" height="43.63" rx="3" ry="3"/><g class="cls-3"><rect class="cls-4" x="7.86" y="23.53" width="29.58" height="5.23" transform="translate(18.23 -8.17) rotate(33.57)"/><rect class="cls-5" x="8.11" y="24.37" width="29.58" height="2.81" transform="translate(18.07 -8.37) rotate(33.57)"/><rect class="cls-4" x="41.61" y="50.03" width="29.58" height="5.23" transform="translate(74.3 127.7) rotate(-146.43)"/><rect class="cls-5" x="41.36" y="51.62" width="29.58" height="2.81" transform="translate(73.63 128.25) rotate(-146.43)"/><rect class="cls-4" x="7.42" y="49.44" width="29.58" height="5.23" transform="translate(-28.59 27.1) rotate(-40.73)"/><rect class="cls-5" x="7.12" y="50.31" width="29.58" height="2.81" transform="translate(-28.44 26.83) rotate(-40.73)"/><rect class="cls-4" x="42.06" y="24.12" width="29.58" height="5.23" transform="translate(117.38 9.9) rotate(139.27)"/><rect class="cls-5" x="42.35" y="25.67" width="29.58" height="2.81" transform="translate(118.12 10.31) rotate(139.27)"/><rect class="cls-4" x="34.01" y="18.18" width="10.97" height="43.63"/><rect class="cls-4" x="34.52" y="11.98" width="10.97" height="56.04" transform="translate(80 0) rotate(90)"/><polygon class="cls-5" points="68.02 36.26 43.23 36.26 43.23 18.18 35.75 18.18 35.75 36.26 11.98 36.26 11.98 43.74 35.75 43.74 35.75 61.82 43.23 61.82 43.23 43.74 68.02 43.74 68.02 36.26"/></g></svg>