<svg id="Calque_1" data-name="Calque 1" xmlns="http://www.w3.org/2000/svg" viewBox="0 0 80 80"><defs><style>.cls-1{fill:#fff;}</style></defs><title>nav_buttons</title><path class="cls-1" d="M25.6,43.09h0A3.56,3.56,0,0,0,22,46.65V62.38a3.56,3.56,0,0,0,3.55,3.55h0a3.56,3.56,0,0,0,3.55-3.55V46.65A3.56,3.56,0,0,0,25.6,43.09Z"/><path class="cls-1" d="M54.22,43.09a3.56,3.56,0,0,0-3.55,3.55V62.38a3.55,3.55,0,1,0,7.1,0V46.65A3.56,3.56,0,0,0,54.22,43.09Z"/><path class="cls-1" d="M40.24,5.48H39.58a18.06,18.06,0,0,0-18,18v1.1A12.22,12.22,0,0,0,33.75,36.77H46.06A12.22,12.22,0,0,0,58.25,24.59v-1.1A18.06,18.06,0,0,0,40.24,5.48Zm9.44,18.14a16.24,16.24,0,0,1-3.26,4.11l-2,1.89a6.73,6.73,0,0,0-2.13,4.2l-0.1,1.5H35.92a14.75,14.75,0,0,1,.83-5.47,11.23,11.23,0,0,1,3.05-4,15.64,15.64,0,0,0,3-3.22A5.05,5.05,0,0,0,43.5,20q0-4.15-3.83-4.15A3.88,3.88,0,0,0,36.77,17,4.39,4.39,0,0,0,35.63,20H28.51a9.46,9.46,0,0,1,3-7.34q3-2.65,8.13-2.65t8.07,2.52a9,9,0,0,1,2.87,7.11A8.65,8.65,0,0,1,49.68,23.62Z"/><path class="cls-1" d="M49.61,44.13a5.84,5.84,0,0,0-5.83-5.83H36a5.84,5.84,0,0,0-5.83,5.83V55.65h0V73.78A3.27,3.27,0,0,0,33.47,77h0.59a3.27,3.27,0,0,0,3.26-3.26v-13h5.19v13A3.27,3.27,0,0,0,45.77,77h0.59a3.27,3.27,0,0,0,3.26-3.26V55.65h0V44.13Zm-13.28-4a4.37,4.37,0,0,1,5.71,0,3.81,3.81,0,0,1,0,5.37,4.48,4.48,0,0,1-5.76,0A3.81,3.81,0,0,1,36.33,40.14Z"/></svg>