<svg id="eyes" xmlns="http://www.w3.org/2000/svg" viewBox="0 0 80 80"><defs><style>.cls-1{fill:none;stroke:#231f20;stroke-miterlimit:10;stroke-width:1.12px;}</style></defs><title>nav_buttons</title><path class="cls-1" d="M55.07,41.79c-6.5-2.5-4-4.75,3.49-9.25,5.72-3.44,2.7-7.26,1-8.88q-0.47-.4-1-0.79h0a31.2,31.2,0,0,0-19.24-6.33C24,16.54,11.57,26.67,11.57,39.17S24,61.79,39.32,61.79c8.87,0,16.76-3.39,21.84-8.67h0l0.45-.47a22.84,22.84,0,0,0,1.72-2.14C66.69,45.31,60.72,44,55.07,41.79ZM20.69,44.42a4.88,4.88,0,1,1,4.88-4.87A4.88,4.88,0,0,1,20.69,44.42Zm9.25-11.87a4.88,4.88,0,1,1,4.88-4.87A4.88,4.88,0,0,1,29.94,32.54Zm15.5-1.25a4.88,4.88,0,1,1,4.88-4.87A4.88,4.88,0,0,1,45.44,31.29Z"/></svg>