<svg id="eyes" xmlns="http://www.w3.org/2000/svg" viewBox="0 0 80 80"><defs><style>.cls-1{fill:none;stroke:#fff;stroke-miterlimit:10;stroke-width:2px;}</style></defs><title>nav_buttons</title><polygon class="cls-1" points="50.67 11.97 29.17 11.97 29.17 30.47 36.86 37.62 37.86 44.6 41.98 44.6 42.98 37.62 50.67 30.47 50.67 11.97"/><polyline class="cls-1" points="5.52 21.72 29.17 21.72 29.17 18.34 5.52 18.34"/><polyline class="cls-1" points="74.48 18.34 50.83 18.34 50.83 21.72 74.48 21.72"/><line class="cls-1" x1="39.92" y1="46.72" x2="39.92" y2="57.97"/><circle class="cls-1" cx="39.92" cy="60.47" r="1.06"/><line class="cls-1" x1="36.54" y1="60.47" x2="31.79" y2="60.47"/><line class="cls-1" x1="48.04" y1="60.47" x2="43.29" y2="60.47"/><line class="cls-1" x1="37.53" y1="58.08" x2="34.17" y2="54.72"/><line class="cls-1" x1="45.67" y1="66.21" x2="42.31" y2="62.85"/><line class="cls-1" x1="39.92" y1="57.09" x2="39.92" y2="52.34"/><line class="cls-1" x1="39.92" y1="68.59" x2="39.92" y2="63.84"/><line class="cls-1" x1="42.31" y1="58.08" x2="45.67" y2="54.72"/><line class="cls-1" x1="34.17" y1="66.21" x2="37.53" y2="62.85"/></svg>