<svg id="eyes" xmlns="http://www.w3.org/2000/svg" viewBox="0 0 80 80"><defs><style>.cls-1{fill:none;stroke:#fff;stroke-miterlimit:10;stroke-width:2px;}</style></defs><title>nav_buttons</title><path class="cls-1" d="M40.42,43.39c0,6.62-5.36,9-12,9-3.31,0-18.47-.51-18.47-0.51s2.64-.6,6.49-8.47c2.91-5.94,5.36-12,12-12A12,12,0,0,1,40.42,43.39Z"/><path class="cls-1" d="M38.31,36.6s-7.95-1-14.81,7.09S10,51.86,10,51.86C37.17,52.7,39.58,39,39.58,39"/><path class="cls-1" d="M41.64,43.39c0,6.62,5.36,9,12,9,3.31,0,18.47-.51,18.47-0.51s-2.64-.6-6.49-8.47c-2.91-5.94-5.36-12-12-12A12,12,0,0,0,41.64,43.39Z"/><path class="cls-1" d="M43.75,36.6s7.95-1,14.81,7.09,13.53,8.17,13.53,8.17C44.89,52.7,42.47,39,42.47,39"/></svg>