<svg id="Mode_Isolation" data-name="Mode Isolation" xmlns="http://www.w3.org/2000/svg" viewBox="0 0 80 80"><defs><style>.cls-1{fill:#874c9b;}.cls-2{fill:#935ba2;}.cls-3{fill:none;stroke:#fff;stroke-miterlimit:10;stroke-width:4.55px;}</style></defs><title>nav_buttons</title><circle class="cls-1" cx="40.28" cy="43.17" r="32.31"/><circle class="cls-2" cx="40.28" cy="36.73" r="32.31"/><path class="cls-3" d="M41.5,55.28a2.67,2.67,0,0,0,2.9-2V49.42a3.19,3.19,0,0,1,1.74-2.76,10.59,10.59,0,1,0-11.29,0,3.19,3.19,0,0,1,1.74,2.76v3.87s0.19,2,2.9,2"/><line class="cls-3" x1="22.96" y1="37.85" x2="16.44" y2="37.85"/><line class="cls-3" x1="64.12" y1="37.85" x2="57.6" y2="37.85"/><line class="cls-3" x1="28.03" y1="25.6" x2="23.42" y2="20.99"/><line class="cls-3" x1="40.28" y1="20.53" x2="40.28" y2="14"/><line class="cls-3" x1="52.52" y1="25.6" x2="57.14" y2="20.98"/></svg>