<svg id="Mode_Isolation" data-name="Mode Isolation" xmlns="http://www.w3.org/2000/svg" viewBox="0 0 80 80"><defs><style>.cls-1{fill:#231f20;}</style></defs><title>nav_buttons</title><path class="cls-1" d="M45.11,41.79a8.76,8.76,0,0,0-6.64,3A8.79,8.79,0,0,0,23,50.58c0,4.86,5.63,14.28,15.43,17,10-2.73,15.43-12.16,15.43-17A8.79,8.79,0,0,0,45.11,41.79Z"/><path class="cls-1" d="M32.95,19.76a6,6,0,0,0-2.82,4.13,6,6,0,0,0-7,8.84c1.72,2.85,8.36,6.39,15.08,4.52,4.92-5.16,4.75-12.6,3-15.45A6,6,0,0,0,32.95,19.76Z"/><path class="cls-1" d="M55.33,15a3.91,3.91,0,0,0-3.25.12,3.92,3.92,0,0,0-7.34-.25c-0.83,2-.11,6.84,3.47,9.64,4.6,0.58,8.43-2.39,9.25-4.39A3.92,3.92,0,0,0,55.33,15Z"/></svg>