<svg id="Calque_1" data-name="Calque 1" xmlns="http://www.w3.org/2000/svg" viewBox="0 0 80 80"><defs><style>.cls-1{fill:#fff;}</style></defs><title>nav_buttons</title><path class="cls-1" d="M49.19,25.26a12,12,0,1,0-23.92,0V30H11.47V51.5A14.64,14.64,0,0,0,26.09,66.12H47.31A14.64,14.64,0,0,0,61.93,51.5V30H49.19V25.26Zm0,9.7a1.17,1.17,0,0,1,.62,1,1.18,1.18,0,0,1-2.37,0,1.17,1.17,0,0,1,.62-1v1h1.12V35Zm-22.8-9.7a10.84,10.84,0,1,1,21.68,0V30H26.39V25.26Zm0,10.73V35A1.17,1.17,0,0,1,27,36a1.18,1.18,0,0,1-2.37,0,1.17,1.17,0,0,1,.62-1v1h1.12ZM60.81,31.1V51.5A13.52,13.52,0,0,1,47.31,65H26.09a13.52,13.52,0,0,1-13.5-13.5V31.1H25.27v2.67a2.3,2.3,0,1,0,1.12,0V31.1H48.07v2.67a2.3,2.3,0,1,0,1.12,0V31.1H60.81Z"/><polygon class="cls-1" points="67.88 22.35 67.88 17.04 65.56 17.04 65.56 22.35 60.49 22.35 60.49 24.53 65.56 24.53 65.56 30.27 67.88 30.27 67.88 24.53 72.95 24.53 72.95 22.35 67.88 22.35"/></svg>