<?xml version="1.0" encoding="utf-8"?>
<!-- Generator: Adobe Illustrator 19.2.1, SVG Export Plug-In . SVG Version: 6.00 Build 0)  -->
<svg version="1.1" xmlns="http://www.w3.org/2000/svg" xmlns:xlink="http://www.w3.org/1999/xlink" x="0px" y="0px" width="80px"
	 height="80px" viewBox="0 0 80 80" style="enable-background:new 0 0 80 80;" xml:space="preserve">
<g id="Mode_Isolation">
	<title>nav_buttons</title>
</g>
<g id="Calque_1">
	<g>
		<circle cx="31" cy="48.1" r="2.5"/>
		<circle cx="47.7" cy="48.1" r="2.5"/>
		<path d="M40.8,25.7v-8.9c0.5-0.4,0.9-1.1,0.9-1.8c0-1.3-1.1-2.4-2.4-2.4S37,13.6,37,14.9c0,0.7,0.3,1.4,0.9,1.8v8.9
			c-10.1,0.8-18,9.2-18,19.5v23.4h5.8v-2c0-2.7,2.2-4.8,4.8-4.8h18.7c2.7,0,4.8,2.2,4.8,4.8v2h4.9V45.1
			C58.9,34.9,50.9,26.4,40.8,25.7z M31,53.4c-3,0-5.4-2.4-5.4-5.4s2.4-5.4,5.4-5.4c3,0,5.4,2.4,5.4,5.4S33.9,53.4,31,53.4z
			 M47.7,53.4c-3,0-5.4-2.4-5.4-5.4s2.4-5.4,5.4-5.4c3,0,5.4,2.4,5.4,5.4S50.7,53.4,47.7,53.4z"/>
	</g>
</g>
</svg>
