<svg id="Calque_1" data-name="Calque 1" xmlns="http://www.w3.org/2000/svg" viewBox="0 0 80 80"><defs><style>.cls-1{fill:#2a80b9;}.cls-2{fill:#3e97d0;}.cls-3{fill:#fff;}</style></defs><title>nav_buttons</title><circle class="cls-1" cx="40" cy="43.24" r="32.5"/><circle class="cls-2" cx="40" cy="36.76" r="32.5"/><path class="cls-3" d="M35,46.64a18.4,18.4,0,0,1,1-6.83,14,14,0,0,1,3.81-5,19.48,19.48,0,0,0,3.69-4,6.3,6.3,0,0,0,.92-3.26q0-5.18-4.77-5.18a4.83,4.83,0,0,0-3.62,1.39,5.48,5.48,0,0,0-1.42,3.85H25.8q0.06-5.85,3.78-9.15t10.14-3.31q6.48,0,10.06,3.14t3.58,8.86a10.79,10.79,0,0,1-1.16,4.91,20.24,20.24,0,0,1-4.07,5.13l-2.48,2.36A8.39,8.39,0,0,0,43,44.77l-0.12,1.87H35ZM34.14,56a4.45,4.45,0,0,1,1.39-3.37,5.45,5.45,0,0,1,7.13,0,4.75,4.75,0,0,1,0,6.69,5,5,0,0,1-3.59,1.31,5,5,0,0,1-3.59-1.31A4.42,4.42,0,0,1,34.14,56Z"/></svg>