<svg id="Calque_1" data-name="Calque 1" xmlns="http://www.w3.org/2000/svg" viewBox="0 0 80 80"><defs><style>.cls-1{fill:#231f20;}</style></defs><title>nav_buttons</title><path class="cls-1" d="M40,66.81A26.81,26.81,0,1,1,66.81,40,26.84,26.84,0,0,1,40,66.81Zm0-49.22A22.41,22.41,0,1,0,62.41,40,22.44,22.44,0,0,0,40,17.59Z"/><path class="cls-1" d="M37,26.76a2.8,2.8,0,0,1,.76-2A2.87,2.87,0,0,1,40,24a2.91,2.91,0,0,1,2.19.8,2.78,2.78,0,0,1,.77,2,2.71,2.71,0,0,1-.77,2,2.92,2.92,0,0,1-2.19.79,2.89,2.89,0,0,1-2.18-.79A2.73,2.73,0,0,1,37,26.76ZM42.59,56H37.37V32.82h5.22V56Z"/></svg>