<svg id="Mode_Isolation" data-name="Mode Isolation" xmlns="http://www.w3.org/2000/svg" viewBox="0 0 80 80"><defs><style>.cls-1{fill:#231f20;}</style></defs><title>nav_buttons</title><path class="cls-1" d="M40,13.76c-14.31,0-25.91,10.74-25.91,24a23.44,23.44,0,0,0,10.5,19.29c-0.76,3-2.25,7.13-5,9.13,0,0,8.65.91,14.67-5a28,28,0,0,0,5.78.61c14.31,0,25.91-10.74,25.91-24S54.31,13.76,40,13.76Zm-0.05,32H37.2v-7H30.1v7H27.34V29.88H30.1v6.61h7.1V29.88h2.75V45.75ZM52.32,29.88L52.06,41.08H49.78L49.53,29.88h2.79Zm-6.2,15.87H43.37V29.88h2.75V45.75Zm6-.25a1.74,1.74,0,0,1-2.22,0,1.37,1.37,0,0,1-.39-1,1.4,1.4,0,0,1,.4-1,1.69,1.69,0,0,1,2.2,0,1.4,1.4,0,0,1,.4,1A1.37,1.37,0,0,1,52.07,45.5Z"/></svg>