<svg id="Calque_1" data-name="Calque 1" xmlns="http://www.w3.org/2000/svg" viewBox="0 0 80 80"><defs><style>.cls-1{fill:#231f20;}</style></defs><title>nav_buttons</title><path class="cls-1" d="M27.74,40.68h0a3.27,3.27,0,0,0-3.91,2.43L20.54,57.17A3.27,3.27,0,0,0,23,61.09h0a3.27,3.27,0,0,0,3.91-2.43L30.17,44.6A3.27,3.27,0,0,0,27.74,40.68Z"/><path class="cls-1" d="M56.41,43.07a3.26,3.26,0,0,0-6.3,1.67l3.71,14A3.26,3.26,0,0,0,60.12,57Z"/><path class="cls-1" d="M49,43.3A5.36,5.36,0,0,0,43.69,38H36.58a5.36,5.36,0,0,0-5.34,5.34L28.12,63.43h3.11V70.5a3,3,0,0,0,3,3h0.54a3,3,0,0,0,3-3V63.43h4.76V70.5a3,3,0,0,0,3,3H46a3,3,0,0,0,3-3V63.43h3.26Z"/><path class="cls-1" d="M65.2,13.15c0-4.45-3-6.64-6.07-6.64S53.62,9.1,53.62,9.1l-2.68,2.54a16.43,16.43,0,0,0-10.51-3.8H39.82a16.43,16.43,0,0,0-10.64,3.92L26.38,9.1s-2.43-2.59-5.51-2.59S14.8,8.7,14.8,13.15s1.78,21.13-3.32,21.13c0,0,9,1,9-7.13,0-7.93-1-20.12,6.49-13.1a16.42,16.42,0,0,0-3.64,10.31v1A11.21,11.21,0,0,0,34.48,36.55h11.3A11.21,11.21,0,0,0,56.95,25.37v-1A16.43,16.43,0,0,0,53.2,13.92c7.32-6.72,6.34,5.36,6.34,13.24,0,8.1,9,7.13,9,7.13C63.42,34.28,65.2,17.6,65.2,13.15ZM34.76,25.94c-1,0-1.83-1.3-1.83-2.9s0.82-2.9,1.83-2.9,1.83,1.3,1.83,2.9S35.77,25.94,34.76,25.94Zm9.87,0c-1,0-1.83-1.3-1.83-2.9s0.82-2.9,1.83-2.9,1.83,1.3,1.83,2.9S45.65,25.94,44.63,25.94Z"/></svg>