<svg id="Calque_1" data-name="Calque 1" xmlns="http://www.w3.org/2000/svg" viewBox="0 0 80 80"><defs><style>.cls-1{fill:#231f20;}</style></defs><title>nav_buttons</title><rect class="cls-1" x="15.86" y="21.66" width="3.2" height="10.29" rx="1.6" ry="1.6"/><path class="cls-1" d="M30.35,21.66a1.61,1.61,0,0,0-1.6,1.6v7.09a1.6,1.6,0,1,0,3.2,0V23.26A1.61,1.61,0,0,0,30.35,21.66Z"/><path class="cls-1" d="M24.05,4.71h-0.3a8.14,8.14,0,0,0-8.11,8.11v0.5a5.5,5.5,0,0,0,5.49,5.49h5.55a5.5,5.5,0,0,0,5.49-5.49v-0.5A8.14,8.14,0,0,0,24.05,4.71Z"/><path class="cls-1" d="M25.65,19.5H22.16a2.63,2.63,0,0,0-2.62,2.62V35.48A1.47,1.47,0,0,0,21,36.95h0.26a1.47,1.47,0,0,0,1.47-1.47V29.62h2.34v5.86a1.47,1.47,0,0,0,1.47,1.47h0.26a1.47,1.47,0,0,0,1.47-1.47V22.12A2.63,2.63,0,0,0,25.65,19.5Z"/><rect class="cls-1" x="46.46" y="21.66" width="3.2" height="10.29" rx="1.6" ry="1.6"/><path class="cls-1" d="M61,21.66a1.61,1.61,0,0,0-1.6,1.6v7.09a1.6,1.6,0,1,0,3.2,0V23.26A1.61,1.61,0,0,0,61,21.66Z"/><path class="cls-1" d="M54.66,4.71h-0.3a8.14,8.14,0,0,0-8.11,8.11v0.5a5.5,5.5,0,0,0,5.49,5.49h5.55a5.5,5.5,0,0,0,5.49-5.49v-0.5A8.14,8.14,0,0,0,54.66,4.71Z"/><path class="cls-1" d="M56.26,19.5H52.76a2.63,2.63,0,0,0-2.62,2.62V35.48a1.47,1.47,0,0,0,1.47,1.47h0.26a1.47,1.47,0,0,0,1.47-1.47V29.62h2.34v5.86a1.47,1.47,0,0,0,1.47,1.47h0.26a1.47,1.47,0,0,0,1.47-1.47V22.12A2.63,2.63,0,0,0,56.26,19.5Z"/><rect class="cls-1" x="15.86" y="60.34" width="3.2" height="10.29" rx="1.6" ry="1.6"/><path class="cls-1" d="M30.35,60.34a1.61,1.61,0,0,0-1.6,1.6V69A1.6,1.6,0,1,0,32,69V61.94A1.61,1.61,0,0,0,30.35,60.34Z"/><path class="cls-1" d="M24.05,43.39h-0.3a8.14,8.14,0,0,0-8.11,8.11V52a5.5,5.5,0,0,0,5.49,5.49h5.55A5.5,5.5,0,0,0,32.17,52v-0.5A8.14,8.14,0,0,0,24.05,43.39Z"/><path class="cls-1" d="M25.65,58.18H22.16a2.63,2.63,0,0,0-2.62,2.62V74.17A1.47,1.47,0,0,0,21,75.63h0.26a1.47,1.47,0,0,0,1.47-1.47V68.31h2.34v5.86a1.47,1.47,0,0,0,1.47,1.47h0.26a1.47,1.47,0,0,0,1.47-1.47V60.81A2.63,2.63,0,0,0,25.65,58.18Z"/><rect class="cls-1" x="46.46" y="60.34" width="3.2" height="10.29" rx="1.6" ry="1.6"/><path class="cls-1" d="M61,60.34a1.61,1.61,0,0,0-1.6,1.6V69a1.6,1.6,0,1,0,3.2,0V61.94A1.61,1.61,0,0,0,61,60.34Z"/><path class="cls-1" d="M54.66,43.39h-0.3a8.14,8.14,0,0,0-8.11,8.11V52a5.5,5.5,0,0,0,5.49,5.49h5.55A5.5,5.5,0,0,0,62.77,52v-0.5A8.14,8.14,0,0,0,54.66,43.39Z"/><path class="cls-1" d="M56.26,58.18H52.76a2.63,2.63,0,0,0-2.62,2.62V74.17a1.47,1.47,0,0,0,1.47,1.47h0.26a1.47,1.47,0,0,0,1.47-1.47V68.31h2.34v5.86a1.47,1.47,0,0,0,1.47,1.47h0.26a1.47,1.47,0,0,0,1.47-1.47V60.81A2.63,2.63,0,0,0,56.26,58.18Z"/></svg>