<svg id="Calque_1" data-name="Calque 1" xmlns="http://www.w3.org/2000/svg" viewBox="0 0 80 80"><defs><style>.cls-1{fill:#fff;}</style></defs><title>nav_buttons</title><path class="cls-1" d="M67.41,34.54l-3.12-.69a3.43,3.43,0,0,1-2.25-2l-0.69-1.67a3.45,3.45,0,0,1,.18-3l1.72-2.69A2.25,2.25,0,0,0,63,21.82L58.19,17a2.25,2.25,0,0,0-2.67-.29l-2.69,1.72a3.45,3.45,0,0,1-3,.18L48.17,18a3.44,3.44,0,0,1-2-2.25l-0.69-3.14a2.25,2.25,0,0,0-2.09-1.68H36.63a2.25,2.25,0,0,0-2.09,1.68l-0.69,3.14a3.4,3.4,0,0,1-2,2.24c-0.89.3-3.75,1-4.56,0.46l-2.81-1.7a2.32,2.32,0,0,0-2.69.33L17,21.82a2.36,2.36,0,0,0-.35,2.71l1.7,2.91a3.53,3.53,0,0,1,.2,2.91c-0.37.78-1.87,3.13-2.8,3.36l-3.21.79a2.32,2.32,0,0,0-1.67,2.13v6.75a2.36,2.36,0,0,0,1.67,2.16l3.26,0.86A3.54,3.54,0,0,1,18,48.34c0.29,0.82.88,3.54,0.39,4.35L16.72,55.5A2.32,2.32,0,0,0,17,58.19L21.82,63a2.36,2.36,0,0,0,2.71.35l2.91-1.7a3.53,3.53,0,0,1,2.91-.2c0.78,0.37,3.14,1.88,3.37,2.8l0.78,3.2a2.32,2.32,0,0,0,2.13,1.67h6.75a2.36,2.36,0,0,0,2.16-1.67l0.85-3.25a3.61,3.61,0,0,1,2-2.23c0.85-.31,3.63-0.93,4.43-0.42l2.69,1.72A2.25,2.25,0,0,0,58.18,63L63,58.19a2.25,2.25,0,0,0,.29-2.67l-1.72-2.69a3.45,3.45,0,0,1-.18-3L62,48.16a3.44,3.44,0,0,1,2.25-2l3.13-.69a2.25,2.25,0,0,0,1.68-2.09V36.63A2.25,2.25,0,0,0,67.41,34.54ZM40,53.24A13.24,13.24,0,1,1,53.26,40,13.24,13.24,0,0,1,40,53.24Z"/><circle class="cls-1" cx="40.01" cy="40" r="6.38"/></svg>