<svg id="Calque_1" data-name="Calque 1" xmlns="http://www.w3.org/2000/svg" viewBox="0 0 80 80"><defs><style>.cls-1{fill:#eec434;}.cls-2{fill:#e74c3c;}</style></defs><title>nav_buttons</title><rect class="cls-1" x="11.98" y="29.35" width="56.04" height="21.3"/><path class="cls-2" d="M68,21.18a3,3,0,0,0-3-3H15a3,3,0,0,0-3,3v8.17H68V21.18Z"/><path class="cls-2" d="M12,58.82a3,3,0,0,0,3,3H65a3,3,0,0,0,3-3V50.65H12v8.17Z"/><path class="cls-2" d="M26.29,44a4.85,4.85,0,0,1-3.64,2A5.41,5.41,0,0,1,19,44V36.76h7.28V44Z"/><polygon class="cls-2" points="24.56 35.78 24.56 33.53 23.62 34.53 22.47 33.53 21.44 34.53 20.38 33.53 20.38 35.78 24.56 35.78"/><polygon class="cls-2" points="18.11 36.31 18.11 35.25 17.66 35.72 17.12 35.25 16.63 35.72 16.13 35.25 16.13 36.31 18.11 36.31"/><polygon class="cls-2" points="29.23 36.31 29.23 35.25 28.78 35.72 28.24 35.25 27.75 35.72 27.25 35.25 27.25 36.31 29.23 36.31"/><rect class="cls-2" x="15.53" y="45.29" width="3.19" height="0.75"/><rect class="cls-2" x="26.64" y="45.29" width="3.19" height="0.75"/><rect class="cls-2" x="16.38" y="36.76" width="1.47" height="8.11"/><rect class="cls-2" x="27.5" y="36.76" width="1.47" height="8.11"/></svg>