<svg id="eyes" xmlns="http://www.w3.org/2000/svg" viewBox="0 0 80 80"><defs><style>.cls-1{fill:none;stroke:#fff;stroke-miterlimit:10;stroke-width:2px;}</style></defs><title>nav_buttons</title><path class="cls-1" d="M63.65,43.76a4.43,4.43,0,0,0-1.22-6.13h0a4.43,4.43,0,0,0-6.13,1.22l-2.37,3.54a6.92,6.92,0,0,0-.35-1.16V24.5a3.17,3.17,0,1,0-6.33,0V36.81H45.47V18.5a3.17,3.17,0,1,0-6.33,0V36.81H37.36V20.5a3.17,3.17,0,1,0-6.33,0V36.81H29.92c-0.22,0-.45,0-0.67,0v-10a3.17,3.17,0,1,0-6.33,0v16a3.07,3.07,0,0,0,0,.31c0,0.2,0,.41,0,0.62V55.67a7,7,0,0,0,7,7H47.08a7,7,0,0,0,5.62-2.86h0q0.16-.22.3-0.45Z"/></svg>