<svg id="eyes" xmlns="http://www.w3.org/2000/svg" viewBox="0 0 80 80"><defs><style>.cls-1{fill:none;stroke:#fff;stroke-miterlimit:10;stroke-width:2px;}</style></defs><title>nav_buttons</title><path class="cls-1" d="M13.31,25.87l7.36-7.36h0a11.91,11.91,0,0,1,16.79,0L61.19,42.23a11.91,11.91,0,0,1,0,16.79h0l-7.36,7.36"/><line class="cls-1" x1="22.08" y1="20.29" x2="14.9" y2="27.46"/><line class="cls-1" x1="24.05" y1="22.25" x2="16.87" y2="29.43"/><line class="cls-1" x1="26.02" y1="24.22" x2="18.84" y2="31.4"/><line class="cls-1" x1="27.99" y1="26.19" x2="20.81" y2="33.37"/><line class="cls-1" x1="29.96" y1="28.16" x2="22.78" y2="35.34"/><line class="cls-1" x1="31.93" y1="30.13" x2="24.75" y2="37.31"/><line class="cls-1" x1="33.9" y1="32.1" x2="26.72" y2="39.28"/><line class="cls-1" x1="35.87" y1="34.07" x2="28.69" y2="41.25"/><line class="cls-1" x1="37.84" y1="36.04" x2="30.66" y2="43.22"/><line class="cls-1" x1="39.81" y1="38.01" x2="32.63" y2="45.19"/><line class="cls-1" x1="41.78" y1="39.98" x2="34.6" y2="47.16"/><line class="cls-1" x1="43.75" y1="41.95" x2="36.57" y2="49.13"/><line class="cls-1" x1="45.72" y1="43.92" x2="38.54" y2="51.1"/><line class="cls-1" x1="47.69" y1="45.89" x2="40.51" y2="53.07"/><line class="cls-1" x1="49.66" y1="47.86" x2="42.48" y2="55.04"/><line class="cls-1" x1="51.63" y1="49.83" x2="44.45" y2="57.01"/><line class="cls-1" x1="53.6" y1="51.8" x2="46.42" y2="58.98"/><line class="cls-1" x1="55.56" y1="53.77" x2="48.39" y2="60.95"/><line class="cls-1" x1="57.53" y1="55.74" x2="50.36" y2="62.91"/><line class="cls-1" x1="59.5" y1="57.71" x2="52.33" y2="64.88"/></svg>