<svg id="Mode_Isolation" data-name="Mode Isolation" xmlns="http://www.w3.org/2000/svg" viewBox="0 0 80 80"><defs><style>.cls-1{fill:#8d5629;}.cls-2,.cls-9{fill:#fedeb9;}.cls-14,.cls-2,.cls-8{stroke:#010101;stroke-opacity:0;stroke-width:0.16px;}.cls-3{fill:#fff;}.cls-4{fill:#0c0d0d;}.cls-5{fill:#231f20;}.cls-13,.cls-17,.cls-6{fill:none;}.cls-6{stroke:#231f20;stroke-width:0.92px;}.cls-7{fill:#010101;}.cls-8{fill:#46ae4e;}.cls-10,.cls-14{fill:#da233b;}.cls-11{fill:#cdcccc;}.cls-12{fill:#eb2630;}.cls-13,.cls-17{stroke:#fff;}.cls-13{stroke-miterlimit:10;stroke-width:0.59px;}.cls-15{fill:#27ae5f;}.cls-16{fill:#50b86e;}.cls-17{stroke-linejoin:round;stroke-width:4px;}</style></defs><title>nav_buttons</title><g id="container"><g id="container_1" data-name="container 1"><g id="body"><g id="head"><g id="backhairs_container" data-name="backhairs container"><g id="container_2" data-name="container 2"><g id="container_3" data-name="container 3"><g id="container_4" data-name="container 4"><path id="shape" class="cls-1" d="M22.16,35.7l-5.06,2.65L14,34.89l-2.64,1.54A19.74,19.74,0,0,1,11,30.36a18.38,18.38,0,0,1,6.86-12.89,18.39,18.39,0,0,1,14-4.28,18.4,18.4,0,0,1,12.91,6.86A18.38,18.38,0,0,1,49,34a19.36,19.36,0,0,1-1.48,5.89l-4.2-2.47-6.09,3-4.85-3.74L26.68,39.6Z"/></g></g></g></g><path id="ghead" class="cls-2" d="M11.21,31.22A18.81,18.81,0,0,1,31.74,14.3h0A18.81,18.81,0,0,1,48.66,34.82l-0.72,7.52A10.72,10.72,0,0,1,36.24,52L20.13,50.44a10.72,10.72,0,0,1-9.64-11.7Z"/><path id="neck" class="cls-2" d="M27.15,50.79h0L29.28,51h0l0,0.32a0.75,0.75,0,0,1-.82.67l-0.64-.06a0.75,0.75,0,0,1-.67-0.82Z"/><g id="faces_container" data-name="faces container"><g id="container_5" data-name="container 5"><g id="container_6" data-name="container 6"><path id="shape_2" data-name="shape 2" class="cls-3" d="M19.78,35.41a5.1,5.1,0,0,1,4.42-8.32,5.1,5.1,0,0,1,2.76,9A5.09,5.09,0,0,1,19.78,35.41Z"/><path id="shape_3" data-name="shape 3" class="cls-3" d="M32.4,36.62a5.1,5.1,0,1,1,7.86-6.49A5.1,5.1,0,1,1,32.4,36.62Z"/><g id="container_7" data-name="container 7"><path id="shape_4" data-name="shape 4" class="cls-1" d="M20.85,34.61a3.72,3.72,0,0,1,3.22-6.07,3.7,3.7,0,0,1,2,6.57A3.68,3.68,0,0,1,20.85,34.61Z"/></g><path id="shape_5" data-name="shape 5" class="cls-4" d="M22.19,33.43A2,2,0,0,1,21.74,32a2,2,0,0,1,4,.38A2,2,0,0,1,22.19,33.43Z"/><path id="shape_6" data-name="shape 6" class="cls-3" d="M23.9,31.65A0.82,0.82,0,0,1,23.71,31a0.85,0.85,0,0,1,.92-0.76,0.82,0.82,0,0,1,.58.31,0.81,0.81,0,0,1,.19.61,0.85,0.85,0,0,1-.93.77A0.81,0.81,0,0,1,23.9,31.65Z"/><path id="shape_7" data-name="shape 7" class="cls-3" d="M23.49,33.22A0.24,0.24,0,0,1,23.4,33a0.83,0.83,0,0,1,.14-0.38,1,1,0,0,1,.27-0.32,0.21,0.21,0,0,1,.25,0,0.22,0.22,0,0,1,.09.25,0.91,0.91,0,0,1-.14.38,1,1,0,0,1-.28.31,0.24,0.24,0,0,1-.17.07Z"/><g id="container_8" data-name="container 8"><path id="shape_8" data-name="shape 8" class="cls-1" d="M33.43,35.82a3.72,3.72,0,0,1,3.22-6.07,3.7,3.7,0,0,1,2,6.57A3.68,3.68,0,0,1,33.43,35.82Z"/></g><path id="shape_9" data-name="shape 9" class="cls-4" d="M34.8,34.64a1.94,1.94,0,0,1-.44-1.46,2,2,0,0,1,3.94.38A2,2,0,0,1,34.8,34.64Z"/><path id="shape_10" data-name="shape 10" class="cls-3" d="M36.52,32.86a0.82,0.82,0,0,1-.19-0.62,0.85,0.85,0,0,1,.92-0.76,0.82,0.82,0,0,1,.58.31,0.81,0.81,0,0,1,.19.61,0.85,0.85,0,0,1-.93.77A0.81,0.81,0,0,1,36.52,32.86Z"/><path id="shape_11" data-name="shape 11" class="cls-3" d="M36.09,34.43A0.25,0.25,0,0,1,36,34.18a0.71,0.71,0,0,1,.14-0.38,0.85,0.85,0,0,1,.27-0.32,0.21,0.21,0,0,1,.25,0,0.25,0.25,0,0,1,.09.25,0.74,0.74,0,0,1-.14.38,1,1,0,0,1-.28.31,0.24,0.24,0,0,1-.17.07Z"/></g><g id="container_10" data-name="container 10"><path id="shape_12" data-name="shape 12" class="cls-5" d="M24.81,45a2.16,2.16,0,0,1-.46-1.44,0.71,0.71,0,0,1,.79-0.67l7.66,0.74a0.71,0.71,0,0,1,.5.26,0.69,0.69,0,0,1,.16.55,2.23,2.23,0,0,1-.72,1.33q-1.3,1.3-4.1,1T24.81,45Z"/></g><g id="container_12" data-name="container 12"><path id="shape_15" data-name="shape 15" class="cls-6" d="M28.34,36l2.3,0.22a1.4,1.4,0,0,1,1,.52,1.39,1.39,0,0,1,.32,1,1.44,1.44,0,0,1-1.58,1.3l-2.3-.22"/></g><g id="container_13" data-name="container 13"><g id="container_14" data-name="container 14"><path id="shape_16" data-name="shape 16" class="cls-7" d="M32.86,38.34A5.64,5.64,0,0,1,31,35.72h0v0a7.91,7.91,0,0,1-.44-1.65,12.72,12.72,0,0,0-.28-1.25A0.47,0.47,0,0,0,30,32.59h0l-0.23-.07-0.17,0h0a0.51,0.51,0,0,0-.31.16q-0.06.11-.49,1.17a8.76,8.76,0,0,1-.74,1.54v0h0a5.72,5.72,0,0,1-2.31,2.22,5.75,5.75,0,0,1-5.93-.34,5.6,5.6,0,0,1-1.83-2h0a4.17,4.17,0,0,1-.36-0.85,5.38,5.38,0,0,1-.24-1h0l-0.2-1.26h0A2.73,2.73,0,0,0,17,31.57a0.77,0.77,0,0,0-.46-0.21,2.15,2.15,0,0,0-.39-0.06l-0.1,0A0.16,0.16,0,0,1,16,31.21a0.16,0.16,0,0,1,0-.11l0.14-1.42a0.25,0.25,0,0,1,.07-0.12,0.18,0.18,0,0,1,.13,0,3.35,3.35,0,0,0,.69,0h0A2.16,2.16,0,0,0,18.16,29,11.6,11.6,0,0,1,20,27.75h0l0.36-.22h0a5.31,5.31,0,0,1,1.56-.58,5.86,5.86,0,0,1,3.95.58,5.7,5.7,0,0,1,1.7,1.41h0q0.29,0.34.62,0.78l0.58,0.8a0.82,0.82,0,0,0,.54.38h0a3.74,3.74,0,0,0,.67,0h0a4.6,4.6,0,0,1,.71.14,0.86,0.86,0,0,0,.59-0.27L32,30.08h0q0.42-.38.76-0.64h0A5.69,5.69,0,0,1,37,28.13a5.62,5.62,0,0,1,1.66.42,5.87,5.87,0,0,1,1.39.82l0.07,0.05,0.33,0.29h0A11.57,11.57,0,0,1,42,31.31h0A2,2,0,0,0,43,32a3.34,3.34,0,0,0,.66.17,0.19,0.19,0,0,1,.17.2l-0.14,1.42a0.19,0.19,0,0,1,0,.1l-0.08.06h-0.1a2,2,0,0,0-.37,0,0.81,0.81,0,0,0-.5.12,3,3,0,0,0-.25.58L41.89,35.8h0a6.5,6.5,0,0,1-.42.89,3.74,3.74,0,0,1-.53.78h0A5.75,5.75,0,0,1,32.86,38.34Zm0.66-8a4.41,4.41,0,0,0-1.68,3.11,4.46,4.46,0,0,0,1,3.39h0a4.62,4.62,0,0,0,6.51.63A4.62,4.62,0,0,0,40,30.92h0A4.6,4.6,0,0,0,33.52,30.3Zm-15,1.82a4.64,4.64,0,0,0,4.17,5,4.62,4.62,0,0,0,4-7.54h0A4.61,4.61,0,0,0,20.15,29h0A4.45,4.45,0,0,0,18.48,32.12Z"/></g></g></g></g><g id="hairs_container" data-name="hairs container"><g id="container_15" data-name="container 15"><g id="container_16" data-name="container 16"><g id="container_17" data-name="container 17"><path id="shape_17" data-name="shape 17" class="cls-1" d="M43.54,26.32Q42.87,25,42.37,23.73l-0.37-1a8.63,8.63,0,0,0,.33,1.75q0.19,0.72.38,1.39a13.5,13.5,0,0,1-2-4.25q-0.26-.89-0.48-1.79l-0.08-.39a0.23,0.23,0,0,0-.35-0.15,21.16,21.16,0,0,1-8.08,2.64q-1.74.27-3.56,0.41l-1.08.05a0.23,0.23,0,0,1-.22-0.34l0.24-.47a0.23,0.23,0,0,0-.34-0.3A25.45,25.45,0,0,1,21,24q-1.82.64-3.29,1a0.24,0.24,0,0,1-.27-0.32h0a0.23,0.23,0,0,0-.4-0.24,34.08,34.08,0,0,1-3.34,3.6q-1.23,1.17-2.25,2a0.24,0.24,0,0,1-.38-0.22,18.71,18.71,0,0,1,2.12-6.63q0.23-.42.47-0.83a0.23,0.23,0,0,0,0-.17l-2-9.5A0.23,0.23,0,0,1,12,12.5l7.52,3.77a0.23,0.23,0,0,0,.23,0l0.77-.46a0.23,0.23,0,0,0,.09-0.32L18,10.9a0.23,0.23,0,0,1,.29-0.33l7.94,3.09a0.23,0.23,0,0,0,.13,0,19,19,0,0,1,18.09,6.57,18.87,18.87,0,0,1,3.46,6.37,18.62,18.62,0,0,1,.83,6.91,0.24,0.24,0,0,1-.41.14A37,37,0,0,1,43.54,26.32Z"/></g></g></g></g></g><g id="legLeft"><g id="flegLeft"><path id="fleg_left" data-name="fleg left" class="cls-8" d="M18.43,65.8h0a1.61,1.61,0,0,1,1.24,1.91l-1,4.61a1.61,1.61,0,0,1-1.91,1.24h0a1.61,1.61,0,0,1-1.24-1.91l1-4.61A1.61,1.61,0,0,1,18.43,65.8Z"/><g id="shoes_01" data-name="shoes 01"><g id="container_25" data-name="container 25"><g id="container_26" data-name="container 26"><g id="container_27" data-name="container 27"><path id="shape_21" data-name="shape 21" class="cls-9" d="M18.18,74.56l0.41-1.92L15.47,72,15.25,73q-1.25-.18-1.44.61Z"/></g><g id="container_28" data-name="container 28"><path id="shape_22" data-name="shape 22" class="cls-10" d="M18.36,74.52A1.35,1.35,0,0,0,18.61,74h0V73.93q0.08-.36.13-0.76a9.38,9.38,0,0,0,.11-1q0-.42-0.38-0.34a1.26,1.26,0,0,0-.39.17,1.78,1.78,0,0,1-1.48.05,3,3,0,0,1-.76-0.35,0.46,0.46,0,0,0-.09-0.23l-0.08-.09a0.28,0.28,0,0,0-.26-0.13,0.14,0.14,0,0,0-.08.05,3.47,3.47,0,0,1-.28.74l-0.19.07a0.67,0.67,0,0,0-.21,0l-0.57.08a1.9,1.9,0,0,0-1,.5,1.76,1.76,0,0,0-.3.42,0.89,0.89,0,0,0-.06.17Z"/></g><path id="shape_23" data-name="shape 23" class="cls-11" d="M18.24,75.12l0.13-.58-5.57-1.19-0.13.58Z"/><path id="shape_24" data-name="shape 24" class="cls-12" d="M18.28,74.9l0-.14-5.57-1.19,0,0.14Z"/><path id="shape_25" data-name="shape 25" class="cls-13" d="M15.16,72.64l-0.33-.54"/><path id="shape_26" data-name="shape 26" class="cls-13" d="M14.73,72.7l-0.33-.54"/><path id="shape_27" data-name="shape 27" class="cls-13" d="M14.3,72.79L14,72.25"/><path id="shape_28" data-name="shape 28" class="cls-3" d="M17.87,73.25A0.29,0.29,0,0,0,18,73.06a0.31,0.31,0,0,0-.23-0.35,0.28,0.28,0,0,0-.23,0,0.28,0.28,0,0,0-.13.18,0.29,0.29,0,0,0,0,.23,0.28,0.28,0,0,0,.19.13A0.28,0.28,0,0,0,17.87,73.25Z"/></g></g></g></g><path id="leg_left" data-name="leg left" class="cls-8" d="M21.68,62.16h0a1.61,1.61,0,0,1,.41,2.24l-2.68,3.88a1.61,1.61,0,0,1-2.24.41h0a1.61,1.61,0,0,1-.41-2.24l2.68-3.88A1.61,1.61,0,0,1,21.68,62.16Z"/></g><g id="legRight"><g id="flegRight"><path id="fleg_right" data-name="fleg right" class="cls-8" d="M30.88,68.86h0a1.61,1.61,0,0,1,2.1.87l1.8,4.36a1.61,1.61,0,0,1-.87,2.1h0a1.61,1.61,0,0,1-2.1-.87L30,71A1.61,1.61,0,0,1,30.88,68.86Z"/><g id="shoes_02" data-name="shoes 02"><g id="container_29" data-name="container 29"><g id="container_30" data-name="container 30"><g id="container_31" data-name="container 31"><path id="shape_29" data-name="shape 29" class="cls-9" d="M32.7,77.44l-0.75-1.82L34.9,74.4l0.41,1q1.2-.4,1.52.34Z"/></g><g id="container_32" data-name="container 32"><path id="shape_30" data-name="shape 30" class="cls-10" d="M32.51,77.44A1.35,1.35,0,0,1,32.17,77h0l0-.08q-0.14-.34-0.26-0.73a9.38,9.38,0,0,1-.29-1q-0.09-.42.31-0.4a1.26,1.26,0,0,1,.41.1,1.78,1.78,0,0,0,1.47-.22,3,3,0,0,0,.68-0.48,0.46,0.46,0,0,1,0-.24l0.06-.1a0.28,0.28,0,0,1,.23-0.17,0.14,0.14,0,0,1,.09,0,3.47,3.47,0,0,0,.41.67l0.2,0a0.67,0.67,0,0,1,.21,0l0.58,0a1.9,1.9,0,0,1,1,.32,1.76,1.76,0,0,1,.37.36,0.89,0.89,0,0,1,.09.16Z"/></g><path id="shape_31" data-name="shape 31" class="cls-11" d="M32.74,78l-0.23-.55,5.27-2.17L38,75.83Z"/><path id="shape_32" data-name="shape 32" class="cls-12" d="M32.66,77.79l-0.06-.14,5.27-2.17,0.06,0.14Z"/><path id="shape_33" data-name="shape 33" class="cls-13" d="M35.32,75l0.22-.59"/><path id="shape_34" data-name="shape 34" class="cls-13" d="M35.76,75L36,74.4"/><path id="shape_35" data-name="shape 35" class="cls-13" d="M36.2,75l0.22-.59"/><path id="shape_36" data-name="shape 36" class="cls-3" d="M32.77,76.09a0.29,0.29,0,0,1-.16-0.16,0.31,0.31,0,0,1,.16-0.39,0.28,0.28,0,0,1,.23,0,0.28,0.28,0,0,1,.16.16,0.29,0.29,0,0,1,0,.23,0.28,0.28,0,0,1-.16.16A0.28,0.28,0,0,1,32.77,76.09Z"/></g></g></g></g><path id="leg_right" data-name="leg right" class="cls-8" d="M29.39,64.38h0a1.61,1.61,0,0,1,2,1L33,69.83a1.61,1.61,0,0,1-1,2h0a1.61,1.61,0,0,1-2-1L28.4,66.43A1.61,1.61,0,0,1,29.39,64.38Z"/></g><path id="gbody" class="cls-14" d="M21.3,54.09a4.29,4.29,0,0,1,5.1-3.27L30,51.6a4.29,4.29,0,0,1,3.27,5.1l-1.86,8.48h0L19.45,62.57h0Z"/><rect id="shape_37" data-name="shape 37" class="cls-8" x="23.49" y="59.24" width="3.22" height="12.22" transform="translate(-44.11 75.89) rotate(-77.66)"/><g id="tops_container" data-name="tops container"><g id="container_33" data-name="container 33"><g id="container_34" data-name="container 34"><g id="container_35" data-name="container 35"><path id="shape_38" data-name="shape 38" class="cls-9" d="M26.64,52.08a1.71,1.71,0,1,1,2.87-1.84A1.7,1.7,0,0,1,29,52.6,1.7,1.7,0,0,1,26.64,52.08Z"/></g></g></g></g><g id="armRight"><g id="farmRight"><path id="farm_right" data-name="farm right" class="cls-14" d="M38,57.73h0a1.61,1.61,0,0,1,.32-2.25L43,51.94a1.61,1.61,0,0,1,2.25.32h0a1.61,1.61,0,0,1-.32,2.25L40.22,58A1.61,1.61,0,0,1,38,57.73Z"/><g id="hands_02" data-name="hands 02"><g id="container_36" data-name="container 36"><g id="container_37" data-name="container 37"><g id="container_38" data-name="container 38"><path id="shape_48" data-name="shape 48" class="cls-9" d="M46.8,52.52a1.57,1.57,0,0,1-.62,1.05h0l-1.25.94L43,51.95,44.25,51h0A1.61,1.61,0,0,1,46.8,52.52Z"/></g></g></g></g></g><path id="arm_right" data-name="arm right" class="cls-14" d="M31.88,55.39h0a1.61,1.61,0,0,1,1.87-1.29l5.79,1.08a1.61,1.61,0,0,1,1.29,1.87h0A1.61,1.61,0,0,1,39,58.34l-5.79-1.08A1.61,1.61,0,0,1,31.88,55.39Z"/></g><g id="armLeft"><g id="farmLeft"><path id="farm_left" data-name="farm left" class="cls-14" d="M17.36,51.22h0a1.61,1.61,0,0,1-1.14,2L10.53,54.7a1.61,1.61,0,0,1-2-1.14h0a1.61,1.61,0,0,1,1.14-2l5.69-1.52A1.61,1.61,0,0,1,17.36,51.22Z"/><g id="hands_01" data-name="hands 01"><g id="container_39" data-name="container 39"><g id="container_40" data-name="container 40"><g id="container_41" data-name="container 41"><path id="shape_49" data-name="shape 49" class="cls-9" d="M7.81,54.94A1.57,1.57,0,0,0,9,55.11H9l1.52-.4L9.71,51.6,8.2,52h0A1.61,1.61,0,0,0,7.81,54.94Z"/></g></g></g></g></g><path id="arm_left" data-name="arm left" class="cls-14" d="M23.08,53.47h0a1.61,1.61,0,0,1-2,1.17l-5.72-1.44a1.61,1.61,0,0,1-1.17-2h0a1.61,1.61,0,0,1,2-1.17l5.72,1.44A1.61,1.61,0,0,1,23.08,53.47Z"/></g></g></g><circle class="cls-3" cx="27.33" cy="55.57" r="0.79" transform="translate(-32.56 71.34) rotate(-78.56)"/><path class="cls-3" d="M30.56,56.31l0-.11-1.3-.26,0,0.11h0a2,2,0,1,1-3.9-.79h0l0-.11-1.3-.26,0,0.11a3.32,3.32,0,1,0,6.5,1.32"/></g><circle class="cls-1" cx="14.71" cy="38.43" r="0.36" transform="translate(-25.88 45.18) rotate(-78.49)"/><circle class="cls-1" cx="42.73" cy="40.16" r="0.36" transform="matrix(0.2, -0.98, 0.98, 0.2, -5.14, 74.02)"/><circle class="cls-1" cx="42.86" cy="41.26" r="0.36" transform="translate(-6.12 75.03) rotate(-78.49)"/><circle class="cls-1" cx="41.39" cy="41.38" r="0.36" transform="translate(-7.42 73.68) rotate(-78.49)"/><circle class="cls-1" cx="42.25" cy="38.96" r="0.36" transform="translate(-4.35 72.58) rotate(-78.49)"/><circle class="cls-1" cx="43.67" cy="39.01" r="0.36" transform="translate(-3.27 74.01) rotate(-78.49)"/><circle class="cls-1" cx="41.66" cy="40.06" r="0.36" transform="translate(-5.9 72.89) rotate(-78.49)"/><circle class="cls-1" cx="16.04" cy="37.77" r="0.36" transform="translate(-24.17 45.95) rotate(-78.49)"/><circle class="cls-1" cx="17.6" cy="38.09" r="0.36" transform="translate(-23.23 47.74) rotate(-78.49)"/><circle class="cls-1" cx="16.78" cy="39.21" r="0.36" transform="translate(-24.99 47.83) rotate(-78.49)"/><circle class="cls-1" cx="15.09" cy="36.6" r="0.36" transform="translate(-23.79 44.08) rotate(-78.49)"/><circle class="cls-1" cx="15.63" cy="39.78" r="0.36" transform="translate(-26.47 47.16) rotate(-78.49)"/><polygon class="cls-7" points="16.02 31.21 11.03 30.45 11.17 29.06 16.33 29.51 16.02 31.21"/><polygon class="cls-7" points="43.55 33.92 49.04 34.02 49.12 32.67 43.64 32.14 43.55 33.92"/><g id="container_18" data-name="container 18"><g id="container_19" data-name="container 19"><path id="shape_18" data-name="shape 18" class="cls-9" d="M46.24,42a2.36,2.36,0,0,1-.57-1.4V40.53h0v0a39.21,39.21,0,0,1-.1-4,3.62,3.62,0,0,1,7.21.69,3.45,3.45,0,0,1-1.3,2.43,3,3,0,0,0-1,1.6,1.67,1.67,0,0,1-.77,1.17,2.43,2.43,0,0,1-1.81.52A2.4,2.4,0,0,1,46.24,42Zm-0.45-2.4,0-.05,0-.31ZM8,38.35A1.67,1.67,0,0,1,7.45,37a3,3,0,0,0-.65-1.75A3.45,3.45,0,0,1,6,32.66a3.63,3.63,0,0,1,4-3.26,3.63,3.63,0,0,1,3.26,4,39.21,39.21,0,0,1-.86,3.92v0h0v0.06a2.36,2.36,0,0,1-.83,1.26,2.4,2.4,0,0,1-1.82.56A2.43,2.43,0,0,1,8,38.35Zm4.38-2V36Z"/></g></g><circle class="cls-15" cx="60.09" cy="18.14" r="13.72"/><circle class="cls-16" cx="60.09" cy="15.4" r="13.72"/><polyline class="cls-17" points="67.07 11.58 58.86 19.79 53.03 13.96"/></svg>