<svg id="Calque_1" data-name="Calque 1" xmlns="http://www.w3.org/2000/svg" viewBox="0 0 80 80"><defs><style>.cls-1{fill:#231f20;}</style></defs><title>nav_buttons</title><rect class="cls-1" x="23.59" y="42.85" width="6.52" height="20.95" rx="3.26" ry="3.26"/><path class="cls-1" d="M53.1,42.85a3.27,3.27,0,0,0-3.26,3.26V60.55a3.26,3.26,0,1,0,6.52,0V46.11A3.27,3.27,0,0,0,53.1,42.85Z"/><path class="cls-1" d="M43.53,38.46H36.42a5.36,5.36,0,0,0-5.34,5.34V71a3,3,0,0,0,3,3H34.6a3,3,0,0,0,3-3V59.07h4.76V71a3,3,0,0,0,3,3h0.54a3,3,0,0,0,3-3V43.8A5.36,5.36,0,0,0,43.53,38.46Z"/><path class="cls-1" d="M56.85,24.87S56.67,12.43,55,17.24c0,0-.64-7.55-3-4,0,0-2.14-6.78-4.34-3.12,0,0-2.9-5.61-5.31-1.59,0,0-2.69-5.47-4.74-.12-2.39-3.77-5.23,1.71-5.23,1.71C30.16,6.41,28,13.19,28,13.19c-2.34-3.5-3,4-3,4-1.7-4.8-1.88,7.63-1.88,7.63v1A11.21,11.21,0,0,0,34.32,37h11.3A11.21,11.21,0,0,0,56.79,25.88V24.82ZM35.11,26.8c-1,0-1.83-1.3-1.83-2.9S34.1,21,35.11,21s1.83,1.3,1.83,2.9S36.12,26.8,35.11,26.8Zm9.87,0c-1,0-1.83-1.3-1.83-2.9S44,21,45,21s1.83,1.3,1.83,2.9S46,26.8,45,26.8Z"/></svg>