<svg id="Calque_1" data-name="Calque 1" xmlns="http://www.w3.org/2000/svg" viewBox="0 0 80 80"><defs><style>.cls-1{fill:#fff;}</style></defs><title>nav_buttons</title><path class="cls-1" d="M31.15,60a6,6,0,0,1-2.74-.65c-2.32-1.19-3.66-3.82-3.66-7.21V27.85c0-3.4,1.33-6,3.66-7.21s5.24-.73,8,1.26L51.16,32.58A9.24,9.24,0,0,1,55.25,40a9.24,9.24,0,0,1-4.08,7.42L36.4,58.1A9.09,9.09,0,0,1,31.15,60Zm0-34H31.11a3.42,3.42,0,0,0-.37,1.87v24.3A3,3,0,0,0,31.15,54a3.36,3.36,0,0,0,1.73-.8L47.65,42.56A3.33,3.33,0,0,0,49.26,40a3.33,3.33,0,0,0-1.61-2.56L32.89,26.75A3.39,3.39,0,0,0,31.17,26Z"/></svg>