<?xml version="1.0" encoding="utf-8"?>
<!-- Generator: Adobe Illustrator 19.2.1, SVG Export Plug-In . SVG Version: 6.00 Build 0)  -->
<svg version="1.1" xmlns="http://www.w3.org/2000/svg" xmlns:xlink="http://www.w3.org/1999/xlink" x="0px" y="0px" width="320px"
	 height="480px" viewBox="0 0 320 480" style="enable-background:new 0 0 320 480;" xml:space="preserve">
<style type="text/css">
	.st0{fill:#8D5629;}
	.st1{fill:#FEDEB9;stroke:#010101;stroke-width:0.9279;stroke-opacity:0;}
	.st2{fill:#FFFFFF;}
	.st3{fill:#0C0D0D;}
	.st4{fill:#231F20;}
	.st5{fill:none;stroke:#231F20;stroke-width:5.1963;}
	.st6{fill:#010101;}
	.st7{fill:#46AE4E;stroke:#010101;stroke-width:0.9279;stroke-opacity:0;}
	.st8{fill:#FEDEB9;}
	.st9{fill:#DA233B;}
	.st10{fill:#CDCCCC;}
	.st11{fill:#EB2630;}
	.st12{fill:none;stroke:#FFFFFF;stroke-width:3.3405;stroke-miterlimit:10;}
	.st13{fill:#DA233B;stroke:#010101;stroke-width:0.9279;stroke-opacity:0;}
</style>
<g id="Calque_1">
</g>
<g id="Mode_Isolation">
	<g>
		<g>
			<g id="container_4_">
				<g id="container_1_4_" transform="matrix(0.6500,0.0000,0.0000,0.6500,696.5000,361.65)">
					<g id="body_4_" transform="matrix(0.9982,0.0607,-0.0607,0.9982,0.0000,0.00)">
						<g id="head_5_" transform="matrix(0.9929,-0.1191,0.1191,0.9929,0.0000,0.00)">
							<g id="backhairs_container_4_" transform="matrix(0.8775,0.0000,0.0000,0.8775,-351.0000,-521.50)">
								<g id="container_2_4_">
									<g id="container_3_4_">
										<g id="container_4_4_" transform="matrix(1.0000,0.0000,0.0000,1.0000,400.1000,391.10)">
											<path id="shape_4_" class="st0" d="M-984.2-151.2l-51.4,23.2l-28.5-35.9l-26.9,13.6c-3-19.2-2.9-39.2,0.2-60
												c8-51.3,33-92.3,75-123c42-30.7,88.7-42,140.1-34c51.4,8,92.5,33,123.2,75.1s42.1,88.7,34.1,140
												c-3.2,20.8-9.2,39.8-18,57.2l-40-26.8l-61.7,25.8l-45.6-39.6l-58.2,25.4L-984.2-151.2z"/>
										</g>
									</g>
								</g>
							</g>
							<path id="ghead_4_" class="st1" d="M-955.9-355.3c13.9-88.9,97.1-149.7,186-135.8l0,0c88.9,13.9,149.7,97.1,135.8,186
								l-10.1,64.6c-7.9,50.6-55.3,85.3-106,77.4l-138.4-21.6c-50.6-7.9-85.3-55.3-77.4-106L-955.9-355.3z"/>
							<path id="neck_4_" class="st1" d="M-828.1-178.1L-828.1-178.1l18.3,2.9l0,0l-0.4,2.8c-0.6,3.5-3.9,6-7.4,5.4l-5.5-0.9
								c-3.5-0.6-6-3.9-5.4-7.4L-828.1-178.1z"/>
							<g id="faces_container_4_" transform="matrix(0.8650,0.0000,0.0000,0.8650,-346.0000,-519.00)">
								<g id="container_5_4_">
									<g id="container_6_4_">
										<path id="shape_2_4_" class="st2" d="M-621.9,236.1c-8.3-11.4-11.4-24-9.2-38c2.2-13.9,8.9-25,20.3-33.4
											c11.4-8.3,24.1-11.4,38-9.2c13.9,2.2,25.1,9,33.5,20.3c8.3,11.4,11.4,24.1,9.2,38c-2.2,13.9-8.9,25.1-20.3,33.4
											c-11.4,8.4-24.1,11.5-38.1,9.3C-602.5,254.3-613.6,247.5-621.9,236.1z"/>
										<path id="shape_3_4_" class="st2" d="M-496.5,255.6c-8.4-11.4-11.5-24-9.3-38c2.2-13.9,9-25,20.4-33.3
											c11.4-8.3,24-11.4,37.9-9.2c13.9,2.2,25.1,8.9,33.4,20.3c8.4,11.4,11.5,24.1,9.3,38c-2.2,13.9-9,25.1-20.4,33.3
											c-11.4,8.4-24,11.5-38,9.3C-477.1,273.9-488.2,267.1-496.5,255.6z"/>
										<g id="container_7_4_" transform="matrix(1.7330,0.0000,0.0000,1.7330,332.1000,400.75)">
											<path id="shape_4_4_" class="st0" d="M-544.1-99.2c-3.5-4.8-4.8-10.1-3.9-16c0.9-5.8,3.8-10.5,8.6-14
												c4.8-3.5,10.1-4.8,15.9-3.9c5.9,0.9,10.5,3.8,14,8.6c3.6,4.8,4.9,10.1,4,15.9c-0.9,5.9-3.8,10.6-8.7,14
												c-4.7,3.5-10,4.8-15.9,3.9C-535.9-91.6-540.6-94.4-544.1-99.2z"/>
										</g>
										<path id="shape_5_4_" class="st3" d="M-596.7,217.7c-3.2-4.5-4.4-9.4-3.6-14.8c0.9-5.4,3.5-9.7,7.9-12.9
											c4.5-3.2,9.4-4.4,14.7-3.6c5.4,0.8,9.8,3.5,13,7.9c3.2,4.4,4.4,9.3,3.6,14.7c-0.9,5.4-3.5,9.7-7.9,13
											c-4.4,3.2-9.4,4.4-14.8,3.6C-589.1,224.8-593.4,222.1-596.7,217.7z"/>
										<path id="shape_6_4_" class="st2" d="M-578.5,201c-1.4-1.9-1.9-4-1.5-6.3c0.4-2.3,1.5-4.1,3.4-5.5c1.9-1.4,4-1.9,6.3-1.6
											c2.3,0.4,4.2,1.5,5.6,3.4c1.4,1.9,1.9,4,1.6,6.3c-0.4,2.3-1.5,4.2-3.4,5.6c-1.9,1.4-4,1.9-6.3,1.5
											C-575.3,204-577.1,202.9-578.5,201z"/>
										<path id="shape_7_4_" class="st2" d="M-583.6,216.4c-0.7-0.5-0.9-1.3-0.7-2.6c0.2-1.3,0.7-2.5,1.6-3.7
											c0.9-1.4,1.9-2.4,2.9-3s1.9-0.7,2.5-0.3c0.7,0.4,0.9,1.2,0.7,2.6c-0.2,1.2-0.7,2.4-1.6,3.7c-0.9,1.3-1.9,2.3-3,2.9
											c-0.6,0.5-1.2,0.7-1.8,0.6C-583.2,216.6-583.4,216.5-583.6,216.4z"/>
										<g id="container_8_4_" transform="matrix(1.7330,0.0000,0.0000,1.7330,468.5000,400.75)">
											<path id="shape_8_10_" class="st0" d="M-550.6-88c-3.5-4.8-4.8-10.1-3.9-16c0.9-5.8,3.8-10.5,8.6-14
												c4.8-3.5,10.1-4.8,15.9-3.9c5.9,0.9,10.5,3.8,14,8.6c3.6,4.8,4.9,10.1,4,15.9c-0.9,5.9-3.8,10.6-8.7,14
												c-4.7,3.5-10,4.8-15.9,3.9C-542.5-80.3-547.1-83.2-550.6-88z"/>
										</g>
										<path id="shape_9_5_" class="st3" d="M-471.4,237.3c-3.2-4.5-4.4-9.4-3.5-14.8s3.5-9.7,7.9-12.9c4.4-3.2,9.4-4.4,14.7-3.6
											c5.4,0.8,9.8,3.5,13,7.9c3.2,4.4,4.4,9.3,3.6,14.7s-3.5,9.7-7.9,13c-4.4,3.2-9.4,4.4-14.8,3.6
											C-463.8,244.3-468.1,241.7-471.4,237.3z"/>
										<path id="shape_10_4_" class="st2" d="M-453.2,220.5c-1.4-1.9-1.9-4-1.5-6.3c0.4-2.3,1.5-4.1,3.4-5.5
											c1.9-1.4,4-1.9,6.3-1.6c2.3,0.4,4.2,1.5,5.6,3.4c1.4,1.9,1.9,4,1.6,6.3c-0.4,2.3-1.5,4.2-3.4,5.6c-1.9,1.4-4,1.9-6.3,1.5
											C-450,223.5-451.8,222.4-453.2,220.5z"/>
										<path id="shape_11_4_" class="st2" d="M-458.4,235.9c-0.6-0.5-0.8-1.3-0.6-2.5c0.1-1.3,0.7-2.5,1.6-3.7
											c0.8-1.4,1.8-2.4,2.9-3c1-0.7,1.9-0.7,2.5-0.3c0.6,0.4,0.9,1.3,0.7,2.6c-0.1,1.2-0.7,2.5-1.6,3.7c-0.9,1.3-1.9,2.3-3,2.9
											c-0.6,0.5-1.2,0.7-1.8,0.6C-457.9,236.1-458.2,236-458.4,235.9z"/>
									</g>
									<g id="container_9_6_" transform="matrix(1.0000,0.0000,0.0000,1.0000,396.9000,345.10)">
									</g>
									<g id="container_10_10_" transform="matrix(1.0000,0.0000,0.0000,1.0000,0.0000,-16.00)">
										<path id="shape_12_4_" class="st4" d="M-577.4,351.1c-3.2-5.1-4.4-10-3.7-14.7c0.3-2,1.2-3.7,2.8-4.9
											c1.6-1.2,3.4-1.6,5.5-1.3l76.1,11.9c2,0.3,3.6,1.3,4.8,2.9c1.2,1.7,1.7,3.5,1.3,5.6c-0.9,4.7-3.5,9-8,12.8
											c-9.2,8.2-23,10.8-41.6,7.9C-558.8,368.3-571.2,361.6-577.4,351.1z"/>
									</g>
									<g id="container_12_4_" transform="matrix(1.0000,0.0000,0.0000,1.0000,0.0000,-20.00)">
										<path id="shape_15_4_" class="st5" d="M-536.7,267.2l22.8,3.6c4,0.6,7.1,2.6,9.5,5.8c2.3,3.2,3.2,6.8,2.6,10.5
											c-0.6,3.9-2.5,7.1-5.7,9.4c-3.2,2.4-6.9,3.3-10.8,2.6l-22.8-3.6"/>
									</g>
									<g id="container_13_4_">
										<g id="container_14_4_" transform="matrix(1.0000,0.0000,0.0000,1.0000,398.2000,405.10)">
											<path id="shape_16_4_" class="st6" d="M-891.1-132c-8.3-7.5-13.9-16.6-16.9-27.2l-0.1,0l0-0.2c-1.2-2.9-2.3-8.5-3.4-16.8
												c-1.1-7.6-1.8-11.8-2.1-12.6c-0.4-0.9-1.2-1.7-2.5-2.3l0.2,0l-2.2-0.8c-0.4,0-1,0.1-1.7,0.2l0,0
												c-1.4,0.2-2.5,0.6-3.2,1.4c-0.4,0.7-2.3,4.5-5.6,11.4c-3.6,7.6-6.4,12.6-8.3,14.9l-0.1,0.2l0,0
												c-6.1,9.2-14.3,16.2-24.4,20.8c-10.5,4.7-21.4,6.2-32.7,4.5c-9.8-1.5-18.6-5.3-26.3-11.3c-7.5-5.7-13.2-12.9-17.1-21.5
												l-0.2-0.1c-1.2-2.4-2.3-5.4-3.1-8.8c-0.9-3.3-1.5-6.6-1.8-9.9l0,0.1l-1.3-12.7l0,0c-0.5-3.5-0.9-5.6-1.3-6.3
												c-0.7-1-2.2-1.8-4.5-2.4c-1.4-0.4-2.7-0.7-3.8-0.8c-0.4-0.1-0.7-0.2-1-0.3c-0.3-0.2-0.5-0.5-0.5-0.7
												c-0.2-0.3-0.3-0.7-0.2-1.1l2.2-14.1c0.1-0.5,0.4-0.9,0.8-1.2c0.4-0.3,0.9-0.4,1.4-0.3c2,0.3,4.3,0.3,6.9,0l0.1,0
												c5-0.5,8.8-1.8,11.5-3.9c3.3-2.8,9.5-6.7,18.7-11.6l0,0c1.5-0.9,2.7-1.5,3.7-2l0.1-0.1l0.1-0.1c4.8-2.4,10.1-4,15.9-4.9
												c5.8-0.8,11.6-0.8,17.5,0.1c7.8,1.2,15,3.9,21.7,8c6.4,4,11.8,9,16.1,15.1l0.1,0c1.8,2.4,3.8,5.1,5.8,8.1l5.4,8.3
												c1.5,2.4,3.2,3.7,5.2,4.1l0.1,0c1.3,0.3,3.6,0.4,6.7,0.4l0.2-0.1c1.8,0.3,4.2,0.9,7,1.8c1.9,0.2,3.9-0.6,6.1-2.3l7.6-6.2
												l0-0.1c2.9-2.4,5.6-4.4,8-6l0.1,0c6-4.4,12.7-7.6,20-9.5c7.6-1.9,15.2-2.2,22.9-1c5.7,0.9,11.2,2.6,16.4,5.2
												c4.9,2.4,9.4,5.4,13.4,9c0.2,0.2,0.4,0.4,0.7,0.6c1,1,2.1,2,3.1,3.1l-0.1,0c7,7.2,11.7,12.8,14.1,16.8l0.1,0
												c1.8,2.9,5,5.3,9.7,7.2c2.4,1,4.6,1.7,6.5,2.1c0.5,0.1,0.9,0.3,1.2,0.8c0.3,0.4,0.4,0.9,0.4,1.4l-2.2,14.1
												c-0.1,0.4-0.2,0.7-0.4,1c-0.2,0.2-0.5,0.4-0.8,0.5c-0.3,0.1-0.7,0.1-1,0c-1.1-0.2-2.3-0.4-3.7-0.4c-2.4-0.1-4,0.2-5,0.9
												c-0.5,0.6-1.5,2.5-2.9,5.7l-5.1,11.6l0,0.1c-1.3,2.8-2.8,5.7-4.7,8.7c-1.9,3.1-3.9,5.6-5.8,7.5l-0.1,0.1
												c-6.3,7-14,12-22.8,15.2c-9.2,3.4-18.7,4.3-28.5,2.8C-872.8-119.6-882.7-124.3-891.1-132z M-879.8-211.9
												c-10.4,7.5-16.6,17.5-18.6,30.1c-2,12.6,0.8,24.1,8.4,34.5l0.1,0c7.5,10.3,17.5,16.4,30.2,18.4c12.7,2,24.1-0.8,34.5-8.3
												c10.3-7.6,16.5-17.7,18.4-30.3c2-12.5-0.8-24-8.4-34.4l0,0.1c-7.5-10.4-17.6-16.6-30.3-18.5
												C-858.1-222.4-869.5-219.5-879.8-211.9z M-1031.1-202.6c-2,12.6,0.8,24.1,8.4,34.5c7.5,10.3,17.6,16.5,30.3,18.4
												c12.7,2,24.1-0.8,34.5-8.3c10.3-7.6,16.5-17.7,18.4-30.3c2-12.5-0.8-24-8.4-34.4l0,0.1c-7.5-10.4-17.6-16.6-30.3-18.5
												c-12.7-2-24.1,0.8-34.5,8.4l0-0.1C-1023-225.2-1029.2-215.1-1031.1-202.6z"/>
										</g>
									</g>
								</g>
							</g>
							<g id="hairs_container_4_" transform="matrix(0.8775,0.0000,0.0000,0.8775,-351.0000,-521.50)">
								<g id="container_15_4_">
									<g id="container_16_4_">
										<g id="container_17_4_" transform="matrix(1.0000,0.0000,0.0000,1.0000,392.3000,282.10)">
											<path id="shape_17_4_" class="st0" d="M-760.4-122.3c-3.8-9.1-7.2-17.8-10-26.2l-3.1-9.8c-0.3,1.9,0.5,7.7,2.3,17.4
												c0.9,4.8,1.9,9.4,2.9,13.9c-6.8-10-12.6-24.3-17.1-43.1c-1.4-5.9-2.6-11.9-3.7-17.9l-0.6-3.9c-0.2-1.6-2-2.5-3.4-1.7
												c-18.7,10.7-45.8,17.8-81.1,21.3c-11.5,1.1-23.3,1.8-35.3,2l-10.6-0.1c-1.8,0-2.9-1.9-2-3.5l2.6-4.5
												c1.2-2.1-1.1-4.4-3.2-3.2c-14.9,8.9-34.3,16.7-58,23.6c-12.2,3.5-23.2,6.2-33,8.1c-1.9,0.4-3.4-1.6-2.5-3.3v0
												c1.2-2.4-2-4.6-3.8-2.5c-9.5,10.7-21.2,21.9-35,33.5c-8.5,7.2-16.3,13.4-23.3,18.5c-1.7,1.2-4-0.3-3.6-2.3
												c4.3-22.9,12.5-44.3,24.7-64c1.7-2.7,3.4-5.3,5.2-7.9c0.3-0.5,0.5-1.1,0.4-1.6l-14.5-94.8c-0.3-1.9,1.8-3.3,3.5-2.4
												l71.9,41.5c0.7,0.4,1.6,0.4,2.3,0c2.6-1.4,5.2-2.8,7.9-4.1c1.2-0.6,1.6-1.9,1.1-3.1l-22.9-46.6c-1-2,1.1-4,3-3.1l76.4,35
												c0.4,0.2,0.8,0.2,1.2,0.2c17.2-2.3,34.6-2,52.1,0.7c25.1,3.9,48.3,12.5,69.6,25.8c20.7,12.7,38.2,29,52.6,48.7
												c14.4,19.8,24.5,41.4,30.4,64.7c5.7,22.6,7.1,45.4,4.2,68.6c-0.3,2.1-2.9,2.8-4.2,1.2
												C-734.3-70.1-748.7-95.1-760.4-122.3z"/>
										</g>
									</g>
								</g>
							</g>
						</g>
						<g id="legLeft_4_" transform="matrix(0.9256,0.3785,-0.3785,0.9256,-57.0000,121.00)">
							<g id="flegLeft_4_" transform="matrix(0.9239,-0.3827,0.3827,0.9239,1.1418,49.74)">
								<path id="fleg_left_4_" class="st7" d="M-835.6-115.2L-835.6-115.2c7.6,1.2,12.8,8.3,11.6,15.9l-6.3,40.3
									c-1.2,7.6-8.3,12.8-15.9,11.6l0,0c-7.6-1.2-12.8-8.3-11.6-15.9l6.3-40.3C-850.3-111.2-843.2-116.4-835.6-115.2z"/>
								<g id="shoes_01_4_" transform="matrix(-1.0000,0.0000,0.0000,1.0000,15.0000,59.00)">
									<g id="container_25_4_" transform="matrix(0.6000,0.0000,0.0000,0.6000,0.0000,0.00)">
										<g id="container_26_4_">
											<g id="container_27_4_" transform="matrix(1.0000,0.0000,0.0000,1.0000,0.1000,-3.00)">
												<path id="shape_21_5_" class="st8" d="M1414.1-160.8l-4.4-28.1l45.5-7.1l2.4,15.3c12.1-1.1,18.8,2.2,20.2,9.9
													L1414.1-160.8z"/>
											</g>
											<g id="container_28_4_" transform="matrix(1.0000,0.0000,0.0000,1.0000,15.8000,-11.50)">
												<path id="shape_22_4_" class="st9" d="M1395.7-153c-1.6-2.4-2.7-4.9-3.2-7.6l-0.1,0l-0.1-1.2c-0.6-3.5-1-7.2-1.3-11.1
													c-0.6-6-0.8-10.9-0.7-14.4c0.1-4.1,2-5.6,5.7-4.5c1.8,0.5,3.6,1.5,5.4,2.8c5.4,3.6,12.6,4.2,21.3,1.9
													c4.3-1.1,8.1-2.6,11.2-4.5c0.1-1.1,0.6-2.2,1.5-3.2c0.5-0.5,0.9-0.9,1.2-1.2c1.4-1.4,2.7-2,3.8-1.6
													c0.5,0.1,0.8,0.4,1.2,0.9c0.5,3.1,1.7,6.7,3.5,10.8c0.8,0.5,1.7,0.9,2.6,1.2c1.1,0.1,2.1,0.4,2.9,0.8l8.1,1.6
													c6.1,1.9,10.5,4.5,13.4,8c1.8,2.1,3.1,4.2,4,6.2c0.4,1.1,0.7,1.9,0.8,2.5L1395.7-153z"/>
											</g>
											<path id="shape_23_5_" class="st10" d="M1412.9-155.8l-1.3-8.5l81.2-12.7l1.3,8.5L1412.9-155.8z"/>
											<path id="shape_24_4_" class="st11" d="M1412.4-159l-0.3-2.1l81.2-12.7l0.3,2.1L1412.4-159z"/>
											<path id="shape_25_4_" class="st12" d="M1459.1-189.1l5.1-7.5"/>
											<path id="shape_26_4_" class="st12" d="M1465.3-187.8l5.1-7.5"/>
											<path id="shape_27_4_" class="st12" d="M1471.5-186.3l5.1-7.5"/>
											<path id="shape_28_4_" class="st2" d="M1419.7-182.5c-1-0.7-1.6-1.7-1.8-2.8c-0.2-1.1,0.1-2.1,0.8-3.1
												c0.7-1,1.6-1.6,2.7-1.7c1.2-0.2,2.3,0.1,3.2,0.8c1,0.7,1.6,1.6,1.7,2.7c0.2,1.2-0.1,2.2-0.8,3.2c-0.7,1-1.6,1.6-2.8,1.8
												C1421.7-181.5,1420.7-181.8,1419.7-182.5z"/>
										</g>
									</g>
								</g>
							</g>
							<path id="leg_left_4_" class="st7" d="M-803.2,222.5L-803.2,222.5c7.6,1.2,12.8,8.3,11.6,15.9l-6.3,40.3
								c-1.2,7.6-8.3,12.8-15.9,11.6l0,0c-7.6-1.2-12.8-8.3-11.6-15.9l6.3-40.3C-817.9,226.5-810.8,221.3-803.2,222.5z"/>
						</g>
						<g id="legRight_4_" transform="matrix(0.7846,-0.6201,0.6201,0.7846,57.0000,121.00)">
							<g id="flegRight_4_" transform="matrix(0.8557,0.5174,-0.5174,0.8557,-2.1641,51.76)">
								<path id="fleg_right_4_" class="st7" d="M-871.3-197.1L-871.3-197.1c7.3-2.5,15.2,1.4,17.7,8.7l13.1,38.7
									c2.5,7.3-1.4,15.2-8.7,17.7l0,0c-7.3,2.5-15.2-1.4-17.7-8.7l-13.1-38.7C-882.5-186.7-878.6-194.6-871.3-197.1z"/>
								<g id="shoes_02_4_" transform="matrix(1.0000,0.0000,0.0000,1.0000,-15.0000,59.00)">
									<g id="container_29_4_" transform="matrix(0.6000,0.0000,0.0000,0.6000,0.0000,0.00)">
										<g id="container_30_4_">
											<g id="container_31_4_" transform="matrix(1.0000,0.0000,0.0000,1.0000,0.1000,-3.00)">
												<path id="shape_29_4_" class="st8" d="M-1409-298.6l-9.1-26.9l43.6-14.8l5,14.7c11.7-3.1,19-1,21.6,6.3L-1409-298.6z"/>
											</g>
											<g id="container_32_4_" transform="matrix(1.0000,0.0000,0.0000,1.0000,15.8000,-11.50)">
												<path id="shape_30_4_" class="st9" d="M-1427.4-290.3c-2-2.1-3.5-4.4-4.4-6.9l-0.1,0l-0.3-1.2c-1.2-3.4-2.2-7-3.1-10.7
													c-1.6-5.9-2.7-10.6-3.2-14.1c-0.6-4,1-5.9,4.8-5.5c1.8,0.2,3.8,0.8,5.8,1.8c6,2.6,13.1,2,21.4-1.8
													c4.1-1.8,7.5-4,10.3-6.3c0-1.1,0.3-2.2,0.9-3.4c0.4-0.6,0.7-1.1,1-1.4c1.1-1.6,2.3-2.4,3.5-2.2c0.5,0,0.9,0.2,1.3,0.6
													c1.1,3,2.8,6.3,5.3,10.1c0.9,0.3,1.8,0.6,2.8,0.7c1.2-0.1,2.2,0,3,0.2l8.3,0.2c6.3,0.8,11.1,2.7,14.5,5.6
													c2.1,1.8,3.8,3.6,5,5.5c0.6,1,1,1.8,1.2,2.3L-1427.4-290.3z"/>
											</g>
											<path id="shape_31_4_" class="st10" d="M-1408.8-293.5l-2.8-8.2l77.8-26.4l2.8,8.2L-1408.8-293.5z"/>
											<path id="shape_32_4_" class="st11" d="M-1409.8-296.6l-0.7-2l77.8-26.4l0.7,2L-1409.8-296.6z"/>
											<path id="shape_33_4_" class="st12" d="M-1368.9-334.3l3.8-8.2"/>
											<path id="shape_34_4_" class="st12" d="M-1362.6-334.1l3.8-8.2"/>
											<path id="shape_35_4_" class="st12" d="M-1356.2-333.6l3.8-8.2"/>
											<path id="shape_36_10_" class="st2" d="M-1406.6-321c-1.1-0.5-1.8-1.4-2.2-2.5c-0.4-1.1-0.3-2.1,0.3-3.2
												c0.5-1.1,1.3-1.8,2.4-2.2c1.2-0.4,2.3-0.3,3.3,0.2c1.1,0.5,1.8,1.3,2.2,2.4c0.4,1.1,0.3,2.2-0.2,3.3
												c-0.5,1.1-1.3,1.8-2.5,2.2C-1404.5-320.3-1405.5-320.4-1406.6-321z"/>
										</g>
									</g>
								</g>
							</g>
							<path id="leg_right_4_" class="st7" d="M-634.2-606.9L-634.2-606.9c7.4,2.1,11.7,9.7,9.7,17.2l-11,39.3
								c-2.1,7.4-9.7,11.7-17.2,9.7l0,0c-7.4-2.1-11.7-9.7-9.7-17.2l11-39.3C-649.3-604.6-641.6-608.9-634.2-606.9z"/>
						</g>
						<path id="gbody_4_" class="st13" d="M-892.2-46.6c3.2-20.3,22.1-34.1,42.4-31l31.2,4.9c20.3,3.2,34.1,22.1,31,42.4L-799.3,44
							l0,0l-104.5-16.3l0,0L-892.2-46.6z"/>
						
							<rect id="shape_37_3_" x="-867.4" y="-4.2" transform="matrix(-0.2639 0.9646 -0.9646 -0.2639 -1031.8282 884.7894)" class="st7" width="27.8" height="105.8"/>
						<g>
							<g id="tops_container_4_" transform="matrix(0.2850,0.0000,0.0000,0.2850,0.0000,0.00)">
								<g id="container_33_4_">
									<g id="container_34_4_" transform="matrix(1.0000,0.0000,0.0000,1.0000,-2.0000,0.00)">
										<g id="container_35_4_">
											<path id="shape_38_10_" class="st8" d="M-2970.4-234.3c-8.5-11.5-11.6-24.4-9.4-38.6c2.2-14.1,9.1-25.3,20.7-33.9
												c11.6-8.5,24.4-11.6,38.6-9.4c14.2,2.2,25.5,9.1,33.9,20.7c8.5,11.6,11.6,24.5,9.5,38.6c-2.3,14.2-9.2,25.5-20.8,33.9
												c-11.5,8.5-24.4,11.7-38.6,9.5C-2950.7-215.8-2962-222.7-2970.4-234.3z"/>
										</g>
									</g>
								</g>
							</g>
						</g>
						<g id="armRight_4_" transform="matrix(-0.0311,-0.9995,0.9995,-0.0311,57.0000,30.25)">
							<g id="farmRight_4_" transform="matrix(0.6756,-0.7373,0.7373,0.6756,0.0000,55.00)">
								<path id="farm_right_4_" class="st13" d="M684.7-520.1L684.7-520.1c7.6,1.2,12.8,8.3,11.6,15.9l-7.9,50.4
									c-1.2,7.6-8.3,12.8-15.9,11.6l0,0c-7.6-1.2-12.8-8.3-11.6-15.9l7.9-50.4C670-516.1,677.1-521.3,684.7-520.1z"/>
								<g id="hands_02_4_" transform="matrix(1.0000,0.0000,0.0000,1.0000,0.0000,70.00)">
									<g id="container_36_4_" transform="matrix(0.6000,0.0000,0.0000,0.6000,0.0000,0.00)">
										<g id="container_37_4_" transform="matrix(1.0000,0.0000,0.0000,1.0000,-0.1000,-0.80)">
											<g id="container_38_4_">
												<path id="shape_48_10_" class="st8" d="M1102.4-839.9c-3.7-5.1-5.1-10.8-4.2-17.1l0-0.1l3.5-22.4l45.8,7.1l-3.5,22.4
													l0,0.1c-1,6.2-4.1,11.2-9.2,15c-5.2,3.8-11,5.1-17.3,4.2C1111.2-831.7,1106.2-834.8,1102.4-839.9z"/>
											</g>
										</g>
									</g>
								</g>
							</g>
							<path id="arm_right_4_" class="st13" d="M97.8-854.5L97.8-854.5c7.6,1.2,12.8,8.3,11.6,15.9l-7.9,50.4
								c-1.2,7.6-8.3,12.8-15.9,11.6l0,0c-7.6-1.2-12.8-8.3-11.6-15.9l7.9-50.4C83.1-850.5,90.2-855.7,97.8-854.5z"/>
						</g>
						<g id="armLeft_4_" transform="matrix(-0.0318,0.9995,-0.9995,-0.0318,-57.0000,30.25)">
							<g id="farmLeft_4_" transform="matrix(0.8736,-0.4866,0.4866,0.8736,0.0000,55.00)">
								<path id="farm_left_4_" class="st13" d="M-461.1,680.1L-461.1,680.1c7.6,1.2,12.8,8.3,11.6,15.9l-7.9,50.4
									c-1.2,7.6-8.3,12.8-15.9,11.6l0,0c-7.6-1.2-12.8-8.3-11.6-15.9l7.9-50.4C-475.8,684.1-468.7,678.9-461.1,680.1z"/>
								<g id="hands_01_4_" transform="matrix(-1.0000,0.0000,0.0000,1.0000,0.0000,70.00)">
									<g id="container_39_4_" transform="matrix(0.6000,0.0000,0.0000,0.6000,0.0000,0.00)">
										<g id="container_40_4_" transform="matrix(1.0000,0.0000,0.0000,1.0000,-0.1000,-0.80)">
											<g id="container_41_10_">
												<path id="shape_49_10_" class="st8" d="M775,1165.4c-5.1-3.8-8.2-8.8-9.2-15l0-0.1l-3.5-22.4l45.8-7.1l3.5,22.4l0,0.1
													c0.9,6.2-0.5,11.9-4.2,17.1c-3.8,5.2-8.9,8.2-15.2,9.2C786,1170.6,780.2,1169.2,775,1165.4z"/>
											</g>
										</g>
									</g>
								</g>
							</g>
							<path id="arm_left_4_" class="st13" d="M-57.1,822.4L-57.1,822.4c7.6,1.2,12.8,8.3,11.6,15.9l-7.9,50.4
								c-1.2,7.6-8.3,12.8-15.9,11.6l0,0c-7.6-1.2-12.8-8.3-11.6-15.9L-73,834C-71.8,826.4-64.7,821.2-57.1,822.4z"/>
						</g>
					</g>
				</g>
				<g>
					<g>
						<g>
							<g>
								<g>
									<g>
										<g>
											
												<ellipse transform="matrix(0.1983 -0.9801 0.9801 0.1983 -175.573 394.4691)" class="st2" cx="153.3" cy="304.6" rx="4.4" ry="4.4"/>
										</g>
										<path class="st2" d="M171.6,308.7l0.1-0.6l-7.3-1.5l-0.1,0.6l0,0c-1.2,6.1-7.1,10-13.2,8.8c-6.1-1.2-10-7.1-8.8-13.2l0,0
											l0.1-0.6l-7.3-1.5l-0.1,0.6c-2,10.1,4.5,20,14.6,22C159.7,325.3,169.5,318.8,171.6,308.7"/>
									</g>
								</g>
							</g>
						</g>
					</g>
				</g>
			</g>
			<ellipse transform="matrix(0.1995 -0.9799 0.9799 0.1995 -137.9388 247.2574)" class="st0" cx="82.4" cy="208.1" rx="2" ry="2"/>
			<ellipse transform="matrix(0.1995 -0.9799 0.9799 0.1995 -21.2667 409.5799)" class="st0" cx="240.1" cy="217.8" rx="2" ry="2"/>
			<ellipse transform="matrix(0.1995 -0.9799 0.9799 0.1995 -26.7383 415.2497)" class="st0" cx="240.8" cy="224" rx="2" ry="2"/>
			<ellipse transform="matrix(0.1995 -0.9799 0.9799 0.1995 -34.0493 407.695)" class="st0" cx="232.5" cy="224.7" rx="2" ry="2"/>
			<ellipse transform="matrix(0.1995 -0.9799 0.9799 0.1995 -16.81 401.4986)" class="st0" cx="237.3" cy="211" rx="2" ry="2"/>
			<ellipse transform="matrix(0.1995 -0.9799 0.9799 0.1995 -10.7192 409.5416)" class="st0" cx="245.3" cy="211.3" rx="2" ry="2"/>
			<ellipse transform="matrix(0.1995 -0.9799 0.9799 0.1995 -25.5412 403.221)" class="st0" cx="234" cy="217.2" rx="2" ry="2"/>
			<ellipse transform="matrix(0.1995 -0.9799 0.9799 0.1995 -128.3571 251.6302)" class="st0" cx="89.8" cy="204.4" rx="2" ry="2"/>
			<ellipse transform="matrix(0.1995 -0.9799 0.9799 0.1995 -123.0666 261.6911)" class="st0" cx="98.6" cy="206.2" rx="2" ry="2"/>
			<ellipse transform="matrix(0.1995 -0.9799 0.9799 0.1995 -132.9546 262.1915)" class="st0" cx="94" cy="212.5" rx="2" ry="2"/>
			<ellipse transform="matrix(0.1995 -0.9799 0.9799 0.1995 -126.18 241.0741)" class="st0" cx="84.5" cy="197.8" rx="2" ry="2"/>
			<ellipse transform="matrix(0.1995 -0.9799 0.9799 0.1995 -141.2781 258.4246)" class="st0" cx="87.5" cy="215.7" rx="2" ry="2"/>
			<polygon class="st6" points="89.7,167.4 61.7,163.2 62.4,155.3 91.5,157.9 			"/>
			<polygon class="st6" points="244.7,182.7 275.6,183.3 276,175.7 245.2,172.7 			"/>
			<g id="container_18_5_">
				<g id="container_19_10_" transform="matrix(1.0000,0.0000,0.0000,1.0000,401.1000,385.10)">
					<path id="shape_18_5_" class="st8" d="M-141.3-157c-2-2.4-3-5-3.2-7.9l0-0.3l0-0.1l0-0.2c-0.6-12.1-0.8-19.7-0.5-22.6
						c0.5-5.6,3-10.2,7.3-13.8c4.4-3.6,9.3-5.1,14.9-4.6c5.6,0.5,10.2,3,13.8,7.3s5.1,9.3,4.6,14.9c-0.5,5.5-3,10.1-7.3,13.7
						c-3.6,3.9-5.5,6.9-5.5,9s-1.5,4.3-4.4,6.6c-2.9,2.3-6.3,3.3-10.2,2.9C-135.7-152.3-138.8-154-141.3-157z M-143.8-170.5l0.1-0.3
						l0.2-1.7L-143.8-170.5z M-356.6-177.5c-2.4-2.8-3.4-5.3-3-7.3c0.4-2.1-0.8-5.3-3.7-9.9c-3.6-4.3-5.1-9.2-4.6-14.8
						c0.5-5.6,3-10.2,7.3-13.8s9.3-5.1,14.9-4.6c5.6,0.5,10.2,3,13.8,7.3c3.6,4.4,5.1,9.3,4.6,14.9c-0.3,2.9-1.9,10.3-4.8,22.1
						l-0.1,0.2l0,0.1l0,0.3c-0.7,2.8-2.3,5.2-4.7,7.1c-3,2.5-6.4,3.5-10.2,3.2C-351.1-173.1-354.2-174.7-356.6-177.5z M-332-188.9
						l0.1,0.3l0-2.1L-332-188.9z"/>
				</g>
			</g>
		</g>
	</g>
</g>
</svg>
