<svg id="Calque_1" data-name="Calque 1" xmlns="http://www.w3.org/2000/svg" viewBox="0 0 80 80"><defs><style>.cls-1{fill:#231f20;}</style></defs><title>nav_buttons</title><rect class="cls-1" x="22.91" y="42.52" width="7.29" height="23.42" rx="3.64" ry="3.64"/><path class="cls-1" d="M55.91,42.52a3.65,3.65,0,0,0-3.64,3.64V62.3a3.64,3.64,0,1,0,7.29,0V46.16A3.65,3.65,0,0,0,55.91,42.52Z"/><path class="cls-1" d="M41.57,4H40.89A18.52,18.52,0,0,0,22.43,22.42v1.13A12.53,12.53,0,0,0,34.92,36H47.54A12.53,12.53,0,0,0,60,23.54V22.42A18.52,18.52,0,0,0,41.57,4Z"/><path class="cls-1" d="M45.21,37.61H37.26a6,6,0,0,0-6,6V74a3.35,3.35,0,0,0,3.34,3.34h0.6A3.35,3.35,0,0,0,38.57,74V60.65h5.32V74a3.35,3.35,0,0,0,3.34,3.34h0.6A3.35,3.35,0,0,0,51.18,74V43.58A6,6,0,0,0,45.21,37.61Z"/></svg>