<svg xmlns="http://www.w3.org/2000/svg" viewBox="0 0 50 50"><defs><style>.cls-1{fill:none;stroke:#fff;stroke-miterlimit:10;stroke-width:0.71px;}</style></defs><title>subnav</title><g id="eyes"><path class="cls-1" d="M35.35,24.77A2.26,2.26,0,0,0,33.09,27V25.21a2.26,2.26,0,1,0-4.51,0V24a2.26,2.26,0,0,0-4.51,0V11.24a2.26,2.26,0,1,0-4.51,0v15s.08,2.43-.47,1.11h0l-2.45-4.46a2.57,2.57,0,0,0-3.36-1.38c-1.3.54-.92,2.05-.38,3.36l3.94,9.41h0a18.41,18.41,0,0,1,1.21,4c.41,2.06,2.87,6.27,5.76,6.27H33.88s3.72,0,3.72-7.52V27A2.26,2.26,0,0,0,35.35,24.77Z"/><path class="cls-1" d="M17.95,17.95a7.52,7.52,0,1,1,7.58,0"/></g></svg>