<svg id="Calque_1" data-name="Calque 1" xmlns="http://www.w3.org/2000/svg" viewBox="0 0 50 50"><defs><style>.cls-1,.cls-2{fill:none;stroke:#fff;stroke-miterlimit:10;}.cls-1{stroke-width:0.42px;}.cls-2{stroke-width:0.46px;}</style></defs><title>subnav</title><path class="cls-1" d="M13.74,18.83a5.13,5.13,0,0,1-2.77,1H6.24a1.56,1.56,0,0,0-1.56,1.56v7.26a1.56,1.56,0,0,0,1.56,1.56H11a5.13,5.13,0,0,1,2.77,1l8,6.45c.67.54,1.21.28,1.21-.58V13c0-.86-.54-1.12-1.21-.58Z"/><path class="cls-2" d="M27.63,14.29a15.15,15.15,0,0,1,0,21.43"/><path class="cls-2" d="M32.57,9.34a22.15,22.15,0,0,1,0,31.32"/><path class="cls-2" d="M37,4.93a28.39,28.39,0,0,1,0,40.15"/></svg>