<svg xmlns="http://www.w3.org/2000/svg" viewBox="0 0 50 50"><defs><style>.cls-1{fill:#ed5260;}.cls-2{fill:#eb212e;}</style></defs><title>subnav</title><g id="eyes"><path class="cls-1" d="M32.68,11.78A10.14,10.14,0,0,0,25,15.29,10.17,10.17,0,0,0,7.15,22c0,5.62,6.51,16.52,17.85,19.68C36.61,38.47,42.85,27.57,42.85,22A10.17,10.17,0,0,0,32.68,11.78Z"/><path class="cls-2" d="M32.68,8.36A10.14,10.14,0,0,0,25,11.88,10.17,10.17,0,0,0,7.15,18.54c0,5.62,6.51,16.52,17.85,19.68,11.61-3.16,17.85-14.06,17.85-19.68A10.17,10.17,0,0,0,32.68,8.36Z"/></g></svg>